<?xml version="1.0" encoding="UTF-8"?>
<svg xmlns="http://www.w3.org/2000/svg" style="stroke-dasharray:none; shape-rendering:auto; font-family:'Arial'; text-rendering:auto; fill-opacity:1; color-interpolation:auto; color-rendering:auto; font-size:12; fill:black; stroke:black; image-rendering:auto; stroke-miterlimit:10; stroke-linecap:square; stroke-linejoin:miter; font-style:normal; stroke-width:1; stroke-dashoffset:0; font-weight:normal; stroke-opacity:1;" contentScriptType="text/ecmascript" preserveAspectRatio="xMidYMid meet" zoomAndPan="magnify" version="1.0" contentStyleType="text/css" xml:xlink="http://www.w3.org/1999/xlink" width="861" height="311"><rect x="10" y="10" width="851" height="301" ry="0" rx="0" style="stroke:#000000; fill:#FFFFFF" /><rect x="40" y="160" width="821" height="151" ry="0" rx="0" style="stroke:#000000; fill:#FFFFFF" /><g componentSequence="3"><text x="-235" y="46" transform="rotate(270)" text-anchor="middle" style="font-weight:bold;font-size:13px;stroke:none; fill:#434343"><tspan dy="14" x="-235">Aprovador</tspan></text></g><rect x="40" y="10" width="821" height="150" ry="0" rx="0" style="stroke:#000000; fill:#FFFFFF" /><g componentSequence="2"><text x="-85" y="46" transform="rotate(270)" text-anchor="middle" style="font-weight:bold;font-size:13px;stroke:none; fill:#434343"><tspan dy="14" x="-85">Solicitante</tspan></text></g><g componentSequence="1"><text x="-160" y="16" transform="rotate(270)" text-anchor="middle" style="font-weight:bold;font-size:13px;stroke:none; fill:#434343"><tspan dy="14" x="-160">Reserva de Recurso</tspan></text></g><g sequence="4"><ellipse cx="159" cy="85" rx="17" ry="17" stroke-width="1" style="fill:url(#linearGradient66FF6696FF96B6FFB6_636733981);" stroke="336633" /></g><g sequence="5"><rect x="220" y="214" width="106" height="65" ry="5" rx="5" style="fill:url(#linearGradientF8FBFEEDF5FCDEEDFAD4E7F8E2E5E9_724840659);" stroke="191970" /></g><g componentSequence="5"><text x="273" y="229" text-anchor="middle" style="font-weight:bold;font-size:13px;stroke:none; fill:#333399"><tspan dy="14" x="273">Aprovar</tspan><tspan dy="14" x="273">Recursos</tspan></text></g><g sequence="6"><rect x="420" y="63" width="106" height="53" ry="5" rx="5" style="fill:url(#linearGradientF8FBFEEDF5FCDEEDFAD4E7F8E2E5E9_789291373);" stroke="191970" /></g><g componentSequence="6"><text x="473" y="78" text-anchor="middle" style="font-weight:bold;font-size:13px;stroke:none; fill:#333399"><tspan dy="14" x="473">Utilizar Recurso</tspan></text></g><g sequence="7"><ellipse cx="757" cy="85" rx="17" ry="17" stroke-width="3" style="fill:url(#linearGradientFF6666FF9696FFB6B6_1778989800);" stroke="993333" /></g><g sequence="8"><rect x="580" y="210" width="106" height="65" ry="5" rx="5" style="fill:url(#linearGradientF8FBFEEDF5FCDEEDFAD4E7F8E2E5E9_1360111254);" stroke="191970" /></g><g componentSequence="8"><text x="633" y="225" text-anchor="middle" style="font-weight:bold;font-size:13px;stroke:none; fill:#333399"><tspan dy="14" x="633">Informar</tspan><tspan dy="14" x="633">Cancelamento</tspan></text></g><g sequence="9"><polygon points=" 370 213 400 183 430 213 400 243 370 213" style="fill:url(#linearGradientFAFBFCFFFFCC_1537849039);" stroke="000000" /></g><g componentSequence="9"><text x="400" y="253" text-anchor="middle" style="font-weight:bold;font-size:13px;stroke:none; fill:#333399"><tspan dy="14" x="400">Aprova</tspan><tspan dy="14" x="400">Recurso</tspan><tspan dy="14" x="400">?</tspan></text></g><rect x="200" y="24" width="105" height="63" ry="5" rx="5" style="stroke:none; fill:#FFFFE0" /><g componentSequence="10"><text x="210" y="47" text-anchor="left" style="font-weight:bold;font-size:13px;stroke:none; fill:#000000"><tspan dy="14" x="210">Inicia</tspan><tspan dy="14" x="210">Solicitação de</tspan><tspan dy="14" x="210">Recursos</tspan></text></g><path style="fill:none; stroke-width:1; stroke:#000000;" d="M220.0 24.0 L200.0 24.0 L200.0 87.0 L220.0 87.0" /><g sequence="22"><polygon points=" 130 228 160 198 190 228 160 258 130 228" style="fill:url(#linearGradientFAFBFCFFFFCC_693859358);" stroke="000000" /></g><g componentSequence="22"><text x="160" y="268" text-anchor="middle" style="font-weight:bold;font-size:13px;stroke:none; fill:#333399"><tspan dy="14" x="160">Aprovaç</tspan><tspan dy="14" x="160">ão?</tspan></text></g><g componentSequence="12"><text x="358" y="242" style="font-size:10px;font-weight:none;stroke:none; fill:#333399" text-anchor="left" /></g><g componentSequence="14"><text x="606" y="29" style="font-size:10px;font-weight:none;stroke:none; fill:#333399" text-anchor="left" /></g><g componentSequence="15"><text x="643" y="93" style="font-size:10px;font-weight:none;stroke:none; fill:#333399" text-anchor="left" /></g><g componentSequence="16"><text x="767" y="206" style="font-size:10px;font-weight:none;stroke:none; fill:#333399" text-anchor="left" /></g><g componentSequence="18"><text x="116" y="289" style="font-size:10px;font-weight:none;stroke:none; fill:#333399" text-anchor="left"><tspan dy="14" x="116">Refazer</tspan></text></g><g componentSequence="19"><text x="483" y="188" style="font-size:10px;font-weight:none;stroke:none; fill:#333399" text-anchor="left"><tspan dy="14" x="483">Aprovado</tspan></text></g><g componentSequence="20"><text x="777" y="280" style="font-size:10px;font-weight:none;stroke:none; fill:#333399" text-anchor="left"><tspan dy="14" x="777">Reprovado</tspan></text></g><g componentSequence="24"><text x="215" y="246" style="font-size:10px;font-weight:none;stroke:none; fill:#333399" text-anchor="left" /></g><g componentSequence="21"><text x="183" y="49" style="font-size:10px;font-weight:none;stroke:none; fill:#333399" text-anchor="left" /></g><g componentSequence="25"><text x="326" y="156" style="font-size:10px;font-weight:none;stroke:none; fill:#333399" text-anchor="left" /></g><g componentSequence="23"><text x="169" y="150" style="font-size:10px;font-weight:none;stroke:none; fill:#333399" text-anchor="left" /></g><path style="fill:none; stroke:#000000;stroke-width:1" d="M369.0 262.0 L336.0 289.0 L89.0 289.0 L89.0 85.0 L141.0 85.0" /><polygon style="fill:#000000; stroke:#000000;" points=" 131 80 141 85 131 90 133 85" /><path style="fill:none; stroke:#000000;stroke-dasharray:2" d="M199.0 51.0 L167.0 48.0 L162.0 68.0" /><path style="fill:none; stroke:#000000;stroke-width:1" d="M326.0 243.0 L369.0 240.0" /><polygon style="fill:#000000; stroke:#000000;" points=" 359 236 369 240 359 246 361 241" /><path style="fill:none; stroke:#000000;stroke-width:1" d="M473.0 62.0 L473.0 29.0 L666.0 29.0 L742.0 76.0" /><polygon style="fill:#000000; stroke:#000000;" points=" 736 66 742 76 731 75 735 72" /><path style="fill:none; stroke:#000000;stroke-width:1" d="M526.0 88.0 L633.0 85.0 L633.0 209.0" /><polygon style="fill:#000000; stroke:#000000;" points=" 638 199 633 209 628 199 633 201" /><path style="fill:none; stroke:#000000;stroke-width:1" d="M430.0 228.0 L473.0 215.0 L473.0 116.0" /><polygon style="fill:#000000; stroke:#000000;" points=" 468 126 473 116 478 126 473 124" /><path style="fill:none; stroke:#000000;stroke-width:1" d="M686.0 240.0 L757.0 238.0 L757.0 103.0" /><polygon style="fill:#000000; stroke:#000000;" points=" 752 113 757 103 762 113 757 111" /><path style="fill:none; stroke:#000000;stroke-width:1" d="M430.0 252.0 L491.0 280.0 L845.0 280.0 L845.0 85.0 L775.0 85.0" /><polygon style="fill:#000000; stroke:#000000;" points=" 785 90 775 85 785 80 783 85" /><path style="fill:none; stroke:#000000;stroke-width:1" d="M159.0 102.0 L159.0 197.0" /><polygon style="fill:#000000; stroke:#000000;" points=" 164 187 159 197 154 187 159 189" /><path style="fill:none; stroke:#000000;stroke-width:1" d="M190.0 246.0 L219.0 246.0" /><polygon style="fill:#000000; stroke:#000000;" points=" 209 241 219 246 209 251 211 246" /><path style="fill:none; stroke:#000000;stroke-width:1" d="M160.0 197.0 L160.0 156.0 L472.0 156.0 L472.0 116.0" /><polygon style="fill:#000000; stroke:#000000;" points=" 467 126 472 116 477 126 472 124" /><defs><linearGradient xmlns:xlink="http://www.w3.org/1999/xlink" xlink:href="#linearGradient66FF6696FF96B6FFB6" id="linearGradient66FF6696FF96B6FFB6_636733981" x1="0" y1="68.0" x2="0" y2="103.0" gradientUnits="userSpaceOnUse" xlink:type="simple" xlink:actuate="onLoad" xlink:show="other" /><linearGradient id="linearGradient66FF6696FF96B6FFB6"><stop style="stop-color:#66FF66;stop-opacity:1;" offset="0.0" id="stop66FF66" /><stop style="stop-color:#96FF96;stop-opacity:1;" offset="0.5" id="stop96FF96" /><stop style="stop-color:#B6FFB6;stop-opacity:1;" offset="1.0" id="stopB6FFB6" /></linearGradient><linearGradient xmlns:xlink="http://www.w3.org/1999/xlink" xlink:href="#linearGradientF8FBFEEDF5FCDEEDFAD4E7F8E2E5E9" id="linearGradientF8FBFEEDF5FCDEEDFAD4E7F8E2E5E9_724840659" x1="0" y1="214.0" x2="0" y2="320.0" gradientUnits="userSpaceOnUse" xlink:type="simple" xlink:actuate="onLoad" xlink:show="other" /><linearGradient id="linearGradientF8FBFEEDF5FCDEEDFAD4E7F8E2E5E9"><stop style="stop-color:#F8FBFE;stop-opacity:1;" offset="0.0" id="stopF8FBFE" /><stop style="stop-color:#EDF5FC;stop-opacity:1;" offset="0.25" id="stopEDF5FC" /><stop style="stop-color:#DEEDFA;stop-opacity:1;" offset="0.5" id="stopDEEDFA" /><stop style="stop-color:#D4E7F8;stop-opacity:1;" offset="0.75" id="stopD4E7F8" /><stop style="stop-color:#E2E5E9;stop-opacity:1;" offset="1.0" id="stopE2E5E9" /></linearGradient><linearGradient xmlns:xlink="http://www.w3.org/1999/xlink" xlink:href="#linearGradientF8FBFEEDF5FCDEEDFAD4E7F8E2E5E9" id="linearGradientF8FBFEEDF5FCDEEDFAD4E7F8E2E5E9_789291373" x1="0" y1="63.0" x2="0" y2="169.0" gradientUnits="userSpaceOnUse" xlink:type="simple" xlink:actuate="onLoad" xlink:show="other" /><linearGradient xmlns:xlink="http://www.w3.org/1999/xlink" xlink:href="#linearGradientFF6666FF9696FFB6B6" id="linearGradientFF6666FF9696FFB6B6_1778989800" x1="0" y1="68.0" x2="0" y2="103.0" gradientUnits="userSpaceOnUse" xlink:type="simple" xlink:actuate="onLoad" xlink:show="other" /><linearGradient id="linearGradientFF6666FF9696FFB6B6"><stop style="stop-color:#FF6666;stop-opacity:1;" offset="0.0" id="stopFF6666" /><stop style="stop-color:#FF9696;stop-opacity:1;" offset="0.5" id="stopFF9696" /><stop style="stop-color:#FFB6B6;stop-opacity:1;" offset="1.0" id="stopFFB6B6" /></linearGradient><linearGradient xmlns:xlink="http://www.w3.org/1999/xlink" xlink:href="#linearGradientF8FBFEEDF5FCDEEDFAD4E7F8E2E5E9" id="linearGradientF8FBFEEDF5FCDEEDFAD4E7F8E2E5E9_1360111254" x1="0" y1="210.0" x2="0" y2="316.0" gradientUnits="userSpaceOnUse" xlink:type="simple" xlink:actuate="onLoad" xlink:show="other" /><linearGradient xmlns:xlink="http://www.w3.org/1999/xlink" xlink:href="#linearGradientFAFBFCFFFFCC" id="linearGradientFAFBFCFFFFCC_1537849039" x1="0" y1="183.0" x2="0" y2="243.0" gradientUnits="userSpaceOnUse" xlink:type="simple" xlink:actuate="onLoad" xlink:show="other" /><linearGradient id="linearGradientFAFBFCFFFFCC"><stop style="stop-color:#FAFBFC;stop-opacity:1;" offset="0.0" id="stopFAFBFC" /><stop style="stop-color:#FFFFCC;stop-opacity:1;" offset="1.0" id="stopFFFFCC" /></linearGradient><linearGradient xmlns:xlink="http://www.w3.org/1999/xlink" xlink:href="#linearGradientFAFBFCFFFFCC" id="linearGradientFAFBFCFFFFCC_693859358" x1="0" y1="198.0" x2="0" y2="258.0" gradientUnits="userSpaceOnUse" xlink:type="simple" xlink:actuate="onLoad" xlink:show="other" /></defs></svg>
