<?xml version="1.0" encoding="UTF-8"?>
<svg xmlns="http://www.w3.org/2000/svg" style="stroke-dasharray:none; shape-rendering:auto; font-family:'Arial'; text-rendering:auto; fill-opacity:1; color-interpolation:auto; color-rendering:auto; font-size:12; fill:black; stroke:black; image-rendering:auto; stroke-miterlimit:10; stroke-linecap:square; stroke-linejoin:miter; font-style:normal; stroke-width:1; stroke-dashoffset:0; font-weight:normal; stroke-opacity:1;" contentScriptType="text/ecmascript" preserveAspectRatio="xMidYMid meet" zoomAndPan="magnify" version="1.0" contentStyleType="text/css" xml:xlink="http://www.w3.org/1999/xlink" width="1490" height="1370"><g sequence="4"><ellipse cx="397" cy="247" rx="17" ry="17" stroke-width="1" style="fill:url(#linearGradient66FF6696FF96B6FFB6_1009205326);" stroke="336633" /></g><g sequence="11"><polygon points=" 368 700 398 670 428 700 398 730 368 700" style="fill:url(#linearGradientFAFBFCFFFFCC_853584314);" stroke="000000" /></g><g componentSequence="11"><text x="398" y="740" text-anchor="middle" style="font-weight:bold;font-size:10px;stroke:none; fill:#333399"><tspan dy="14" x="398">Exclusiv</tspan><tspan dy="14" x="398">o</tspan></text></g><g sequence="13"><rect x="161" y="786" width="106" height="70" ry="5" rx="5" style="fill:url(#linearGradientF8FBFEEDF5FCDEEDFAD4E7F8E2E5E9_920595262);" stroke="191970" /></g><g componentSequence="13"><text x="214" y="810" text-anchor="middle" style="font-weight:bold;font-size:10px;stroke:none; fill:#333399"><tspan dy="14" x="214">Análise PROPPE</tspan></text></g><g sequence="15"><rect x="422" y="787" width="106" height="70" ry="5" rx="5" style="fill:url(#linearGradientF8FBFEEDF5FCDEEDFAD4E7F8E2E5E9_1943905153);" stroke="191970" /></g><g componentSequence="15"><text x="475" y="802" text-anchor="middle" style="font-weight:bold;font-size:10px;stroke:none; fill:#333399"><tspan dy="14" x="475">Análise</tspan><tspan dy="14" x="475">PROACAD</tspan></text></g><g sequence="17"><rect x="422" y="1300" width="106" height="70" ry="5" rx="5" style="fill:url(#linearGradientF8FBFEEDF5FCDEEDFAD4E7F8E2E5E9_1971239044);" stroke="191970" /></g><g componentSequence="17"><text x="475" y="1324" text-anchor="middle" style="font-weight:bold;font-size:10px;stroke:none; fill:#333399"><tspan dy="14" x="475">Análise Reitoria</tspan></text></g><g sequence="20"><rect x="874" y="994" width="106" height="84" ry="5" rx="5" style="fill:url(#linearGradientF8FBFEEDF5FCDEEDFAD4E7F8E2E5E9_1122267880);" stroke="191970" /></g><g componentSequence="20"><text x="927" y="1009" text-anchor="middle" style="font-weight:bold;font-size:10px;stroke:none; fill:#333399"><tspan dy="14" x="927">Análise Diretoria</tspan><tspan dy="14" x="927">Administrativa</tspan></text></g><g sequence="23"><polygon points=" 1374 800 1404 770 1434 800 1404 830 1374 800" style="fill:url(#linearGradientFAFBFCFFFFCC_229455697);" stroke="000000" /></g><g componentSequence="23"><text x="1404" y="840" text-anchor="middle" style="font-weight:bold;font-size:10px;stroke:none; fill:#333399"><tspan dy="14" x="1404">Exclusiv</tspan><tspan dy="14" x="1404">o</tspan></text></g><g sequence="25"><rect x="1225" y="1151" width="106" height="84" ry="5" rx="5" style="fill:url(#linearGradientF8FBFEEDF5FCDEEDFAD4E7F8E2E5E9_334650574);" stroke="191970" /></g><g componentSequence="25"><text x="1278" y="1166" text-anchor="middle" style="font-weight:bold;font-size:10px;stroke:none; fill:#333399"><tspan dy="14" x="1278">Parecer</tspan><tspan dy="14" x="1278">Recursos</tspan><tspan dy="14" x="1278">Humanos</tspan></text></g><g sequence="27"><ellipse cx="1472" cy="882" rx="17" ry="17" stroke-width="3" style="fill:url(#linearGradientFF6666FF9696FFB6B6_323513516);" stroke="993333" /></g><g sequence="40"><polygon points=" 896 1164 926 1134 956 1164 926 1194 896 1164" style="fill:url(#linearGradientFAFBFCFFFFCC_1926905631);" stroke="000000" /></g><g componentSequence="40"><text x="926" y="1204" text-anchor="middle" style="font-weight:bold;font-size:10px;stroke:none; fill:#333399"><tspan dy="14" x="926">Exclusiv</tspan><tspan dy="14" x="926">o</tspan></text></g><g sequence="43"><ellipse cx="984" cy="1249" rx="17" ry="17" stroke-width="3" style="fill:url(#linearGradientFF6666FF9696FFB6B6_380213674);" stroke="993333" /></g><g sequence="45"><polygon points=" 445 933 475 903 505 933 475 963 445 933" style="fill:url(#linearGradientFAFBFCFFFFCC_398238621);" stroke="000000" /></g><g componentSequence="45"><text x="475" y="973" text-anchor="middle" style="font-weight:bold;font-size:10px;stroke:none; fill:#333399"><tspan dy="14" x="475">Exclusiv</tspan><tspan dy="14" x="475">o</tspan></text></g><g sequence="49"><rect x="643" y="520" width="106" height="84" ry="5" rx="5" style="fill:url(#linearGradientF8FBFEEDF5FCDEEDFAD4E7F8E2E5E9_1195475146);" stroke="191970" /></g><g componentSequence="49"><text x="696" y="535" text-anchor="middle" style="font-weight:bold;font-size:10px;stroke:none; fill:#333399"><tspan dy="14" x="696">Análise Diretoria</tspan><tspan dy="14" x="696">Unidade</tspan></text></g><g sequence="51"><polygon points=" 819 541 849 511 879 541 849 571 819 541" style="fill:url(#linearGradientFAFBFCFFFFCC_1690336762);" stroke="000000" /></g><g componentSequence="51"><text x="849" y="581" text-anchor="middle" style="font-weight:bold;font-size:10px;stroke:none; fill:#333399"><tspan dy="14" x="849">Exclusiv</tspan><tspan dy="14" x="849">o</tspan></text></g><g sequence="53"><ellipse cx="909" cy="644" rx="17" ry="17" stroke-width="3" style="fill:url(#linearGradientFF6666FF9696FFB6B6_1056889857);" stroke="993333" /></g><g sequence="63"><ellipse cx="533" cy="1036" rx="17" ry="17" stroke-width="3" style="fill:url(#linearGradientFF6666FF9696FFB6B6_1286352904);" stroke="993333" /></g><g sequence="65"><polygon points=" 184 931 214 901 244 931 214 961 184 931" style="fill:url(#linearGradientFAFBFCFFFFCC_119586439);" stroke="000000" /></g><g componentSequence="65"><text x="214" y="971" text-anchor="middle" style="font-weight:bold;font-size:10px;stroke:none; fill:#333399"><tspan dy="14" x="214">Exclusiv</tspan><tspan dy="14" x="214">o</tspan></text></g><g sequence="67"><ellipse cx="276" cy="1019" rx="17" ry="17" stroke-width="3" style="fill:url(#linearGradientFF6666FF9696FFB6B6_1617443892);" stroke="993333" /></g><g sequence="72"><rect x="675" y="779" width="106" height="84" ry="5" rx="5" style="fill:url(#linearGradientF8FBFEEDF5FCDEEDFAD4E7F8E2E5E9_683604716);" stroke="191970" /></g><g componentSequence="72"><text x="728" y="794" text-anchor="middle" style="font-weight:bold;font-size:10px;stroke:none; fill:#333399"><tspan dy="14" x="728">Análise Diretoria</tspan><tspan dy="14" x="728">Financeira</tspan></text></g><g sequence="74"><polygon points=" 698 931 728 901 758 931 728 961 698 931" style="fill:url(#linearGradientFAFBFCFFFFCC_88060803);" stroke="000000" /></g><g componentSequence="74"><text x="728" y="971" text-anchor="middle" style="font-weight:bold;font-size:10px;stroke:none; fill:#333399"><tspan dy="14" x="728">Exclusiv</tspan><tspan dy="14" x="728">o</tspan></text></g><g sequence="77"><ellipse cx="780" cy="1035" rx="17" ry="17" stroke-width="3" style="fill:url(#linearGradientFF6666FF9696FFB6B6_132768037);" stroke="993333" /></g><g sequence="80"><polygon points=" 1100 1172 1130 1142 1160 1172 1130 1202 1100 1172" style="fill:url(#linearGradientFAFBFCFFFFCC_641856624);" stroke="000000" /></g><g componentSequence="80"><text x="1130" y="1212" text-anchor="middle" style="font-weight:bold;font-size:10px;stroke:none; fill:#333399"><tspan dy="14" x="1130">Exclusiv</tspan><tspan dy="14" x="1130">o</tspan></text></g><g sequence="82"><ellipse cx="1184" cy="1265" rx="17" ry="17" stroke-width="3" style="fill:url(#linearGradientFF6666FF9696FFB6B6_2037842894);" stroke="993333" /></g><g sequence="86"><rect x="680" y="330" width="106" height="84" ry="5" rx="5" style="fill:url(#linearGradientF8FBFEEDF5FCDEEDFAD4E7F8E2E5E9_19662024);" stroke="191970" /></g><g componentSequence="86"><text x="733" y="345" text-anchor="middle" style="font-weight:bold;font-size:10px;stroke:none; fill:#333399"><tspan dy="14" x="733">Análise Diretoria</tspan><tspan dy="14" x="733">Colégio</tspan></text></g><g sequence="88"><polygon points=" 838 351 868 321 898 351 868 381 838 351" style="fill:url(#linearGradientFAFBFCFFFFCC_1233403137);" stroke="000000" /></g><g componentSequence="88"><text x="868" y="391" text-anchor="middle" style="font-weight:bold;font-size:10px;stroke:none; fill:#333399"><tspan dy="14" x="868">Exclusiv</tspan><tspan dy="14" x="868">o</tspan></text></g><g sequence="90"><ellipse cx="927" cy="454" rx="17" ry="17" stroke-width="3" style="fill:url(#linearGradientFF6666FF9696FFB6B6_1615835701);" stroke="993333" /></g><g sequence="92"><rect x="979" y="330" width="106" height="84" ry="5" rx="5" style="fill:url(#linearGradientF8FBFEEDF5FCDEEDFAD4E7F8E2E5E9_568833153);" stroke="191970" /></g><g componentSequence="92"><text x="1032" y="345" text-anchor="middle" style="font-weight:bold;font-size:10px;stroke:none; fill:#333399"><tspan dy="14" x="1032">Análise Diretoria</tspan><tspan dy="14" x="1032">ColégioS</tspan></text></g><g sequence="94"><polygon points=" 1136 352 1166 322 1196 352 1166 382 1136 352" style="fill:url(#linearGradientFAFBFCFFFFCC_1074593329);" stroke="000000" /></g><g componentSequence="94"><text x="1166" y="392" text-anchor="middle" style="font-weight:bold;font-size:10px;stroke:none; fill:#333399"><tspan dy="14" x="1166">Exclusiv</tspan><tspan dy="14" x="1166">o</tspan></text></g><g sequence="96"><ellipse cx="1236" cy="428" rx="17" ry="17" stroke-width="3" style="fill:url(#linearGradientFF6666FF9696FFB6B6_680050436);" stroke="993333" /></g><g sequence="99"><rect x="960" y="521" width="106" height="84" ry="5" rx="5" style="fill:url(#linearGradientF8FBFEEDF5FCDEEDFAD4E7F8E2E5E9_902528570);" stroke="191970" /></g><g componentSequence="99"><text x="1013" y="536" text-anchor="middle" style="font-weight:bold;font-size:10px;stroke:none; fill:#333399"><tspan dy="14" x="1013">Análise</tspan><tspan dy="14" x="1013">Assessoria</tspan><tspan dy="14" x="1013">Mantenedora</tspan></text></g><g sequence="101"><polygon points=" 983 674 1013 644 1043 674 1013 704 983 674" style="fill:url(#linearGradientFAFBFCFFFFCC_697604030);" stroke="000000" /></g><g componentSequence="101"><text x="1013" y="714" text-anchor="middle" style="font-weight:bold;font-size:10px;stroke:none; fill:#333399"><tspan dy="14" x="1013">Exclusiv</tspan><tspan dy="14" x="1013">o</tspan></text></g><g sequence="103"><ellipse cx="1071" cy="762" rx="17" ry="17" stroke-width="3" style="fill:url(#linearGradientFF6666FF9696FFB6B6_248383947);" stroke="993333" /></g><g componentSequence="14"><text x="268" y="720" style="font-size:10px;font-weight:none;stroke:none; fill:#333399" text-anchor="left" /></g><g componentSequence="16"><text x="485" y="733" style="font-size:10px;font-weight:none;stroke:none; fill:#333399" text-anchor="left" /></g><g componentSequence="22"><text x="823" y="719" style="font-size:10px;font-weight:none;stroke:none; fill:#333399" text-anchor="left" /></g><g componentSequence="24"><text x="1187" y="923" style="font-size:10px;font-weight:none;stroke:none; fill:#333399" text-anchor="left" /></g><g componentSequence="26"><text x="1397" y="1056" style="font-size:10px;font-weight:none;stroke:none; fill:#333399" text-anchor="left" /></g><g componentSequence="28"><text x="1454" y="857" style="font-size:10px;font-weight:none;stroke:none; fill:#333399" text-anchor="left" /></g><g componentSequence="31"><text x="1207" y="1334" style="font-size:10px;font-weight:none;stroke:none; fill:#333399" text-anchor="left" /></g><g componentSequence="41"><text x="656" y="1185" style="font-size:10px;font-weight:none;stroke:none; fill:#333399" text-anchor="left" /></g><g componentSequence="44"><text x="972" y="1225" style="font-size:10px;font-weight:none;stroke:none; fill:#333399" text-anchor="left" /></g><g componentSequence="46"><text x="485" y="880" style="font-size:10px;font-weight:none;stroke:none; fill:#333399" text-anchor="left" /></g><g componentSequence="50"><text x="536" y="603" style="font-size:10px;font-weight:none;stroke:none; fill:#333399" text-anchor="left" /></g><g componentSequence="52"><text x="794" y="562" style="font-size:10px;font-weight:none;stroke:none; fill:#333399" text-anchor="left" /></g><g componentSequence="54"><text x="898" y="615" style="font-size:10px;font-weight:none;stroke:none; fill:#333399" text-anchor="left" /></g><g componentSequence="56"><text x="407" y="467" style="font-size:10px;font-weight:none;stroke:none; fill:#333399" text-anchor="left" /></g><g componentSequence="62"><text x="485" y="1152" style="font-size:10px;font-weight:none;stroke:none; fill:#333399" text-anchor="left" /></g><g componentSequence="64"><text x="523" y="1008" style="font-size:10px;font-weight:none;stroke:none; fill:#333399" text-anchor="left" /></g><g componentSequence="66"><text x="224" y="878" style="font-size:10px;font-weight:none;stroke:none; fill:#333399" text-anchor="left" /></g><g componentSequence="68"><text x="262" y="993" style="font-size:10px;font-weight:none;stroke:none; fill:#333399" text-anchor="left" /></g><g componentSequence="69"><text x="223" y="1273" style="font-size:10px;font-weight:none;stroke:none; fill:#333399" text-anchor="left" /></g><g componentSequence="70"><text x="936" y="1106" style="font-size:10px;font-weight:none;stroke:none; fill:#333399" text-anchor="left" /></g><g componentSequence="73"><text x="606" y="732" style="font-size:10px;font-weight:none;stroke:none; fill:#333399" text-anchor="left" /></g><g componentSequence="75"><text x="738" y="882" style="font-size:10px;font-weight:none;stroke:none; fill:#333399" text-anchor="left" /></g><g componentSequence="76"><text x="865" y="952" style="font-size:10px;font-weight:none;stroke:none; fill:#333399" text-anchor="left" /></g><g componentSequence="78"><text x="774" y="1009" style="font-size:10px;font-weight:none;stroke:none; fill:#333399" text-anchor="left" /></g><g componentSequence="79"><text x="1181" y="247" style="font-size:10px;font-weight:none;stroke:none; fill:#333399" text-anchor="left" /></g><g componentSequence="81"><text x="1202" y="1193" style="font-size:10px;font-weight:none;stroke:none; fill:#333399" text-anchor="left" /></g><g componentSequence="83"><text x="1176" y="1240" style="font-size:10px;font-weight:none;stroke:none; fill:#333399" text-anchor="left" /></g><g componentSequence="84"><text x="1118" y="1035" style="font-size:10px;font-weight:none;stroke:none; fill:#333399" text-anchor="left" /></g><g componentSequence="85"><text x="1087" y="821" style="font-size:10px;font-weight:none;stroke:none; fill:#333399" text-anchor="left" /></g><g componentSequence="87"><text x="536" y="478" style="font-size:10px;font-weight:none;stroke:none; fill:#333399" text-anchor="left" /></g><g componentSequence="89"><text x="822" y="372" style="font-size:10px;font-weight:none;stroke:none; fill:#333399" text-anchor="left" /></g><g componentSequence="91"><text x="916" y="425" style="font-size:10px;font-weight:none;stroke:none; fill:#333399" text-anchor="left" /></g><g componentSequence="93"><text x="948" y="372" style="font-size:10px;font-weight:none;stroke:none; fill:#333399" text-anchor="left" /></g><g componentSequence="95"><text x="1120" y="372" style="font-size:10px;font-weight:none;stroke:none; fill:#333399" text-anchor="left" /></g><g componentSequence="97"><text x="1217" y="406" style="font-size:10px;font-weight:none;stroke:none; fill:#333399" text-anchor="left" /></g><g componentSequence="98"><text x="1175" y="747" style="font-size:10px;font-weight:none;stroke:none; fill:#333399" text-anchor="left" /></g><g componentSequence="100"><text x="929" y="562" style="font-size:10px;font-weight:none;stroke:none; fill:#333399" text-anchor="left" /></g><g componentSequence="102"><text x="1023" y="624" style="font-size:10px;font-weight:none;stroke:none; fill:#333399" text-anchor="left" /></g><g componentSequence="104"><text x="1059" y="737" style="font-size:10px;font-weight:none;stroke:none; fill:#333399" text-anchor="left" /></g><g componentSequence="105"><text x="949" y="827" style="font-size:10px;font-weight:none;stroke:none; fill:#333399" text-anchor="left" /></g><g componentSequence="106"><text x="1336" y="563" style="font-size:10px;font-weight:none;stroke:none; fill:#333399" text-anchor="left" /></g><g componentSequence="107"><text x="1395" y="334" style="font-size:10px;font-weight:none;stroke:none; fill:#333399" text-anchor="left" /></g><path style="fill:none; stroke:#000000;stroke-width:1" d="M397.0 264.0 L397.0 669.0" /><polygon style="fill:#000000; stroke:#000000;" points=" 402 659 397 669 392 659 397 661" /><path style="fill:none; stroke:#000000;stroke-width:1" d="M1404.0 769.0 L1404.0 247.0 L415.0 247.0" /><polygon style="fill:#000000; stroke:#000000;" points=" 425 252 415 247 425 242 423 247" /><path style="fill:none; stroke:#000000;stroke-width:1" d="M367.0 720.0 L213.0 720.0 L213.0 785.0" /><polygon style="fill:#000000; stroke:#000000;" points=" 218 775 213 785 208 775 213 777" /><path style="fill:none; stroke:#000000;stroke-width:1" d="M428.0 723.0 L475.0 728.0 L475.0 786.0" /><polygon style="fill:#000000; stroke:#000000;" points=" 480 776 475 786 470 776 475 778" /><path style="fill:none; stroke:#000000;stroke-width:1" d="M428.0 720.0 L923.0 719.0 L926.0 993.0" /><polygon style="fill:#000000; stroke:#000000;" points=" 931 983 926 993 921 983 926 985" /><path style="fill:none; stroke:#000000;stroke-width:1" d="M428.0 692.0 L570.0 562.0 L642.0 562.0" /><polygon style="fill:#000000; stroke:#000000;" points=" 632 557 642 562 632 567 634 562" /><path style="fill:none; stroke:#000000;stroke-width:1" d="M428.0 722.0 L726.0 740.0 L727.0 778.0" /><polygon style="fill:#000000; stroke:#000000;" points=" 732 768 727 778 722 768 727 770" /><path style="fill:none; stroke:#000000;stroke-width:1" d="M425.0 669.0 L582.0 372.0 L679.0 372.0" /><polygon style="fill:#000000; stroke:#000000;" points=" 669 367 679 372 669 377 671 372" /><path style="fill:none; stroke:#000000;stroke-width:1" d="M214.0 856.0 L214.0 900.0" /><polygon style="fill:#000000; stroke:#000000;" points=" 219 890 214 900 209 890 214 892" /><path style="fill:none; stroke:#000000;stroke-width:1" d="M475.0 857.0 L475.0 902.0" /><polygon style="fill:#000000; stroke:#000000;" points=" 480 892 475 902 470 892 475 894" /><path style="fill:none; stroke:#000000;stroke-width:1" d="M484.0 1299.0 L516.0 1185.0 L895.0 1185.0" /><polygon style="fill:#000000; stroke:#000000;" points=" 885 1180 895 1185 885 1190 887 1185" /><path style="fill:none; stroke:#000000;stroke-width:1" d="M1403.0 872.0 L1403.0 1334.0 L528.0 1334.0" /><polygon style="fill:#000000; stroke:#000000;" points=" 538 1339 528 1334 538 1329 536 1334" /><path style="fill:none; stroke:#000000;stroke-width:1" d="M475.0 1005.0 L475.0 1299.0" /><polygon style="fill:#000000; stroke:#000000;" points=" 480 1289 475 1299 470 1289 475 1291" /><path style="fill:none; stroke:#000000;stroke-width:1" d="M213.0 1003.0 L213.0 1334.0 L421.0 1334.0" /><polygon style="fill:#000000; stroke:#000000;" points=" 411 1329 421 1334 411 1339 413 1334" /><path style="fill:none; stroke:#000000;stroke-width:1" d="M980.0 1011.0 L1373.0 834.0" /><polygon style="fill:#000000; stroke:#000000;" points=" 1362 834 1373 834 1366 843 1366 837" /><path style="fill:none; stroke:#000000;stroke-width:1" d="M926.0 1133.0 L926.0 1078.0" /><polygon style="fill:#000000; stroke:#000000;" points=" 921 1088 926 1078 931 1088 926 1086" /><path style="fill:none; stroke:#000000;stroke-width:1" d="M758.0 952.0 L910.0 952.0 L918.0 993.0" /><polygon style="fill:#000000; stroke:#000000;" points=" 921 982 918 993 911 984 916 985" /><path style="fill:none; stroke:#000000;stroke-width:1" d="M1129.0 1141.0 L1129.0 1035.0 L980.0 1035.0" /><polygon style="fill:#000000; stroke:#000000;" points=" 990 1040 980 1035 990 1030 988 1035" /><path style="fill:none; stroke:#000000;stroke-width:1" d="M1165.0 424.0 L1165.0 775.0 L965.0 993.0" /><polygon style="fill:#000000; stroke:#000000;" points=" 975 989 965 993 968 982 970 987" /><path style="fill:none; stroke:#000000;stroke-width:1" d="M982.0 695.0 L947.0 695.0 L929.0 993.0" /><polygon style="fill:#000000; stroke:#000000;" points=" 935 983 929 993 925 983 929 985" /><path style="fill:none; stroke:#000000;stroke-width:1" d="M1400.0 872.0 L1378.0 1193.0 L1331.0 1193.0" /><polygon style="fill:#000000; stroke:#000000;" points=" 1341 1198 1331 1193 1341 1188 1339 1193" /><path style="fill:none; stroke:#000000;stroke-width:1" d="M1434.0 848.0 L1459.0 870.0" /><polygon style="fill:#000000; stroke:#000000;" points=" 1455 860 1459 870 1448 867 1453 865" /><path style="fill:none; stroke:#000000;stroke-width:1" d="M1373.0 821.0 L781.0 821.0" /><polygon style="fill:#000000; stroke:#000000;" points=" 791 826 781 821 791 816 789 821" /><path style="fill:none; stroke:#000000;stroke-width:1" d="M1399.0 769.0 L1379.0 563.0 L1066.0 563.0" /><polygon style="fill:#000000; stroke:#000000;" points=" 1076 568 1066 563 1076 558 1074 563" /><path style="fill:none; stroke:#000000;stroke-width:1" d="M1402.0 769.0 L1383.0 289.0 L1032.0 289.0 L1032.0 329.0" /><polygon style="fill:#000000; stroke:#000000;" points=" 1037 319 1032 329 1027 319 1032 321" /><path style="fill:none; stroke:#000000;stroke-width:1" d="M1224.0 1193.0 L1160.0 1193.0" /><polygon style="fill:#000000; stroke:#000000;" points=" 1170 1198 1160 1193 1170 1188 1168 1193" /><path style="fill:none; stroke:#000000;stroke-width:1" d="M956.0 1218.0 L972.0 1236.0" /><polygon style="fill:#000000; stroke:#000000;" points=" 969 1225 972 1236 962 1232 967 1230" /><path style="fill:none; stroke:#000000;stroke-width:1" d="M505.0 997.0 L523.0 1022.0" /><polygon style="fill:#000000; stroke:#000000;" points=" 521 1011 523 1022 513 1017 518 1016" /><path style="fill:none; stroke:#000000;stroke-width:1" d="M749.0 562.0 L818.0 562.0" /><polygon style="fill:#000000; stroke:#000000;" points=" 808 557 818 562 808 567 810 562" /><path style="fill:none; stroke:#000000;stroke-width:1" d="M879.0 603.0 L899.0 630.0" /><polygon style="fill:#000000; stroke:#000000;" points=" 897 619 899 630 889 625 894 624" /><path style="fill:none; stroke:#000000;stroke-width:1" d="M879.0 562.0 L959.0 562.0" /><polygon style="fill:#000000; stroke:#000000;" points=" 949 557 959 562 949 567 951 562" /><path style="fill:none; stroke:#000000;stroke-width:1" d="M244.0 984.0 L264.0 1006.0" /><polygon style="fill:#000000; stroke:#000000;" points=" 261 995 264 1006 254 1002 259 1000" /><path style="fill:none; stroke:#000000;stroke-width:1" d="M728.0 863.0 L728.0 900.0" /><polygon style="fill:#000000; stroke:#000000;" points=" 733 890 728 900 723 890 728 892" /><path style="fill:none; stroke:#000000;stroke-width:1" d="M758.0 1000.0 L771.0 1020.0" /><polygon style="fill:#000000; stroke:#000000;" points=" 770 1009 771 1020 761 1014 767 1013" /><path style="fill:none; stroke:#000000;stroke-width:1" d="M1160.0 1233.0 L1174.0 1251.0" /><polygon style="fill:#000000; stroke:#000000;" points=" 1172 1240 1174 1251 1164 1246 1169 1245" /><path style="fill:none; stroke:#000000;stroke-width:1" d="M786.0 372.0 L837.0 372.0" /><polygon style="fill:#000000; stroke:#000000;" points=" 827 367 837 372 827 377 829 372" /><path style="fill:none; stroke:#000000;stroke-width:1" d="M898.0 414.0 L917.0 440.0" /><polygon style="fill:#000000; stroke:#000000;" points=" 915 429 917 440 907 435 912 434" /><path style="fill:none; stroke:#000000;stroke-width:1" d="M898.0 372.0 L978.0 372.0" /><polygon style="fill:#000000; stroke:#000000;" points=" 968 367 978 372 968 377 970 372" /><path style="fill:none; stroke:#000000;stroke-width:1" d="M1085.0 372.0 L1135.0 372.0" /><polygon style="fill:#000000; stroke:#000000;" points=" 1125 367 1135 372 1125 377 1127 372" /><path style="fill:none; stroke:#000000;stroke-width:1" d="M1196.0 397.0 L1222.0 417.0" /><polygon style="fill:#000000; stroke:#000000;" points=" 1217 407 1222 417 1211 415 1216 412" /><path style="fill:none; stroke:#000000;stroke-width:1" d="M1013.0 605.0 L1013.0 643.0" /><polygon style="fill:#000000; stroke:#000000;" points=" 1018 633 1013 643 1008 633 1013 635" /><path style="fill:none; stroke:#000000;stroke-width:1" d="M1043.0 730.0 L1060.0 749.0" /><polygon style="fill:#000000; stroke:#000000;" points=" 1057 738 1060 749 1050 745 1055 743" /><defs><linearGradient xmlns:xlink="http://www.w3.org/1999/xlink" xlink:href="#linearGradient66FF6696FF96B6FFB6" id="linearGradient66FF6696FF96B6FFB6_1009205326" x1="0" y1="230.0" x2="0" y2="265.0" gradientUnits="userSpaceOnUse" xlink:type="simple" xlink:actuate="onLoad" xlink:show="other" /><linearGradient id="linearGradient66FF6696FF96B6FFB6"><stop style="stop-color:#66FF66;stop-opacity:1;" offset="0.0" id="stop66FF66" /><stop style="stop-color:#96FF96;stop-opacity:1;" offset="0.5" id="stop96FF96" /><stop style="stop-color:#B6FFB6;stop-opacity:1;" offset="1.0" id="stopB6FFB6" /></linearGradient><linearGradient xmlns:xlink="http://www.w3.org/1999/xlink" xlink:href="#linearGradientFAFBFCFFFFCC" id="linearGradientFAFBFCFFFFCC_853584314" x1="0" y1="670.0" x2="0" y2="730.0" gradientUnits="userSpaceOnUse" xlink:type="simple" xlink:actuate="onLoad" xlink:show="other" /><linearGradient id="linearGradientFAFBFCFFFFCC"><stop style="stop-color:#FAFBFC;stop-opacity:1;" offset="0.0" id="stopFAFBFC" /><stop style="stop-color:#FFFFCC;stop-opacity:1;" offset="1.0" id="stopFFFFCC" /></linearGradient><linearGradient xmlns:xlink="http://www.w3.org/1999/xlink" xlink:href="#linearGradientF8FBFEEDF5FCDEEDFAD4E7F8E2E5E9" id="linearGradientF8FBFEEDF5FCDEEDFAD4E7F8E2E5E9_920595262" x1="0" y1="786.0" x2="0" y2="892.0" gradientUnits="userSpaceOnUse" xlink:type="simple" xlink:actuate="onLoad" xlink:show="other" /><linearGradient id="linearGradientF8FBFEEDF5FCDEEDFAD4E7F8E2E5E9"><stop style="stop-color:#F8FBFE;stop-opacity:1;" offset="0.0" id="stopF8FBFE" /><stop style="stop-color:#EDF5FC;stop-opacity:1;" offset="0.25" id="stopEDF5FC" /><stop style="stop-color:#DEEDFA;stop-opacity:1;" offset="0.5" id="stopDEEDFA" /><stop style="stop-color:#D4E7F8;stop-opacity:1;" offset="0.75" id="stopD4E7F8" /><stop style="stop-color:#E2E5E9;stop-opacity:1;" offset="1.0" id="stopE2E5E9" /></linearGradient><linearGradient xmlns:xlink="http://www.w3.org/1999/xlink" xlink:href="#linearGradientF8FBFEEDF5FCDEEDFAD4E7F8E2E5E9" id="linearGradientF8FBFEEDF5FCDEEDFAD4E7F8E2E5E9_1943905153" x1="0" y1="787.0" x2="0" y2="893.0" gradientUnits="userSpaceOnUse" xlink:type="simple" xlink:actuate="onLoad" xlink:show="other" /><linearGradient xmlns:xlink="http://www.w3.org/1999/xlink" xlink:href="#linearGradientF8FBFEEDF5FCDEEDFAD4E7F8E2E5E9" id="linearGradientF8FBFEEDF5FCDEEDFAD4E7F8E2E5E9_1971239044" x1="0" y1="1300.0" x2="0" y2="1406.0" gradientUnits="userSpaceOnUse" xlink:type="simple" xlink:actuate="onLoad" xlink:show="other" /><linearGradient xmlns:xlink="http://www.w3.org/1999/xlink" xlink:href="#linearGradientF8FBFEEDF5FCDEEDFAD4E7F8E2E5E9" id="linearGradientF8FBFEEDF5FCDEEDFAD4E7F8E2E5E9_1122267880" x1="0" y1="994.0" x2="0" y2="1100.0" gradientUnits="userSpaceOnUse" xlink:type="simple" xlink:actuate="onLoad" xlink:show="other" /><linearGradient xmlns:xlink="http://www.w3.org/1999/xlink" xlink:href="#linearGradientFAFBFCFFFFCC" id="linearGradientFAFBFCFFFFCC_229455697" x1="0" y1="770.0" x2="0" y2="830.0" gradientUnits="userSpaceOnUse" xlink:type="simple" xlink:actuate="onLoad" xlink:show="other" /><linearGradient xmlns:xlink="http://www.w3.org/1999/xlink" xlink:href="#linearGradientF8FBFEEDF5FCDEEDFAD4E7F8E2E5E9" id="linearGradientF8FBFEEDF5FCDEEDFAD4E7F8E2E5E9_334650574" x1="0" y1="1151.0" x2="0" y2="1257.0" gradientUnits="userSpaceOnUse" xlink:type="simple" xlink:actuate="onLoad" xlink:show="other" /><linearGradient xmlns:xlink="http://www.w3.org/1999/xlink" xlink:href="#linearGradientFF6666FF9696FFB6B6" id="linearGradientFF6666FF9696FFB6B6_323513516" x1="0" y1="865.0" x2="0" y2="900.0" gradientUnits="userSpaceOnUse" xlink:type="simple" xlink:actuate="onLoad" xlink:show="other" /><linearGradient id="linearGradientFF6666FF9696FFB6B6"><stop style="stop-color:#FF6666;stop-opacity:1;" offset="0.0" id="stopFF6666" /><stop style="stop-color:#FF9696;stop-opacity:1;" offset="0.5" id="stopFF9696" /><stop style="stop-color:#FFB6B6;stop-opacity:1;" offset="1.0" id="stopFFB6B6" /></linearGradient><linearGradient xmlns:xlink="http://www.w3.org/1999/xlink" xlink:href="#linearGradientFAFBFCFFFFCC" id="linearGradientFAFBFCFFFFCC_1926905631" x1="0" y1="1134.0" x2="0" y2="1194.0" gradientUnits="userSpaceOnUse" xlink:type="simple" xlink:actuate="onLoad" xlink:show="other" /><linearGradient xmlns:xlink="http://www.w3.org/1999/xlink" xlink:href="#linearGradientFF6666FF9696FFB6B6" id="linearGradientFF6666FF9696FFB6B6_380213674" x1="0" y1="1232.0" x2="0" y2="1267.0" gradientUnits="userSpaceOnUse" xlink:type="simple" xlink:actuate="onLoad" xlink:show="other" /><linearGradient xmlns:xlink="http://www.w3.org/1999/xlink" xlink:href="#linearGradientFAFBFCFFFFCC" id="linearGradientFAFBFCFFFFCC_398238621" x1="0" y1="903.0" x2="0" y2="963.0" gradientUnits="userSpaceOnUse" xlink:type="simple" xlink:actuate="onLoad" xlink:show="other" /><linearGradient xmlns:xlink="http://www.w3.org/1999/xlink" xlink:href="#linearGradientF8FBFEEDF5FCDEEDFAD4E7F8E2E5E9" id="linearGradientF8FBFEEDF5FCDEEDFAD4E7F8E2E5E9_1195475146" x1="0" y1="520.0" x2="0" y2="626.0" gradientUnits="userSpaceOnUse" xlink:type="simple" xlink:actuate="onLoad" xlink:show="other" /><linearGradient xmlns:xlink="http://www.w3.org/1999/xlink" xlink:href="#linearGradientFAFBFCFFFFCC" id="linearGradientFAFBFCFFFFCC_1690336762" x1="0" y1="511.0" x2="0" y2="571.0" gradientUnits="userSpaceOnUse" xlink:type="simple" xlink:actuate="onLoad" xlink:show="other" /><linearGradient xmlns:xlink="http://www.w3.org/1999/xlink" xlink:href="#linearGradientFF6666FF9696FFB6B6" id="linearGradientFF6666FF9696FFB6B6_1056889857" x1="0" y1="627.0" x2="0" y2="662.0" gradientUnits="userSpaceOnUse" xlink:type="simple" xlink:actuate="onLoad" xlink:show="other" /><linearGradient xmlns:xlink="http://www.w3.org/1999/xlink" xlink:href="#linearGradientFF6666FF9696FFB6B6" id="linearGradientFF6666FF9696FFB6B6_1286352904" x1="0" y1="1019.0" x2="0" y2="1054.0" gradientUnits="userSpaceOnUse" xlink:type="simple" xlink:actuate="onLoad" xlink:show="other" /><linearGradient xmlns:xlink="http://www.w3.org/1999/xlink" xlink:href="#linearGradientFAFBFCFFFFCC" id="linearGradientFAFBFCFFFFCC_119586439" x1="0" y1="901.0" x2="0" y2="961.0" gradientUnits="userSpaceOnUse" xlink:type="simple" xlink:actuate="onLoad" xlink:show="other" /><linearGradient xmlns:xlink="http://www.w3.org/1999/xlink" xlink:href="#linearGradientFF6666FF9696FFB6B6" id="linearGradientFF6666FF9696FFB6B6_1617443892" x1="0" y1="1002.0" x2="0" y2="1037.0" gradientUnits="userSpaceOnUse" xlink:type="simple" xlink:actuate="onLoad" xlink:show="other" /><linearGradient xmlns:xlink="http://www.w3.org/1999/xlink" xlink:href="#linearGradientF8FBFEEDF5FCDEEDFAD4E7F8E2E5E9" id="linearGradientF8FBFEEDF5FCDEEDFAD4E7F8E2E5E9_683604716" x1="0" y1="779.0" x2="0" y2="885.0" gradientUnits="userSpaceOnUse" xlink:type="simple" xlink:actuate="onLoad" xlink:show="other" /><linearGradient xmlns:xlink="http://www.w3.org/1999/xlink" xlink:href="#linearGradientFAFBFCFFFFCC" id="linearGradientFAFBFCFFFFCC_88060803" x1="0" y1="901.0" x2="0" y2="961.0" gradientUnits="userSpaceOnUse" xlink:type="simple" xlink:actuate="onLoad" xlink:show="other" /><linearGradient xmlns:xlink="http://www.w3.org/1999/xlink" xlink:href="#linearGradientFF6666FF9696FFB6B6" id="linearGradientFF6666FF9696FFB6B6_132768037" x1="0" y1="1018.0" x2="0" y2="1053.0" gradientUnits="userSpaceOnUse" xlink:type="simple" xlink:actuate="onLoad" xlink:show="other" /><linearGradient xmlns:xlink="http://www.w3.org/1999/xlink" xlink:href="#linearGradientFAFBFCFFFFCC" id="linearGradientFAFBFCFFFFCC_641856624" x1="0" y1="1142.0" x2="0" y2="1202.0" gradientUnits="userSpaceOnUse" xlink:type="simple" xlink:actuate="onLoad" xlink:show="other" /><linearGradient xmlns:xlink="http://www.w3.org/1999/xlink" xlink:href="#linearGradientFF6666FF9696FFB6B6" id="linearGradientFF6666FF9696FFB6B6_2037842894" x1="0" y1="1248.0" x2="0" y2="1283.0" gradientUnits="userSpaceOnUse" xlink:type="simple" xlink:actuate="onLoad" xlink:show="other" /><linearGradient xmlns:xlink="http://www.w3.org/1999/xlink" xlink:href="#linearGradientF8FBFEEDF5FCDEEDFAD4E7F8E2E5E9" id="linearGradientF8FBFEEDF5FCDEEDFAD4E7F8E2E5E9_19662024" x1="0" y1="330.0" x2="0" y2="436.0" gradientUnits="userSpaceOnUse" xlink:type="simple" xlink:actuate="onLoad" xlink:show="other" /><linearGradient xmlns:xlink="http://www.w3.org/1999/xlink" xlink:href="#linearGradientFAFBFCFFFFCC" id="linearGradientFAFBFCFFFFCC_1233403137" x1="0" y1="321.0" x2="0" y2="381.0" gradientUnits="userSpaceOnUse" xlink:type="simple" xlink:actuate="onLoad" xlink:show="other" /><linearGradient xmlns:xlink="http://www.w3.org/1999/xlink" xlink:href="#linearGradientFF6666FF9696FFB6B6" id="linearGradientFF6666FF9696FFB6B6_1615835701" x1="0" y1="437.0" x2="0" y2="472.0" gradientUnits="userSpaceOnUse" xlink:type="simple" xlink:actuate="onLoad" xlink:show="other" /><linearGradient xmlns:xlink="http://www.w3.org/1999/xlink" xlink:href="#linearGradientF8FBFEEDF5FCDEEDFAD4E7F8E2E5E9" id="linearGradientF8FBFEEDF5FCDEEDFAD4E7F8E2E5E9_568833153" x1="0" y1="330.0" x2="0" y2="436.0" gradientUnits="userSpaceOnUse" xlink:type="simple" xlink:actuate="onLoad" xlink:show="other" /><linearGradient xmlns:xlink="http://www.w3.org/1999/xlink" xlink:href="#linearGradientFAFBFCFFFFCC" id="linearGradientFAFBFCFFFFCC_1074593329" x1="0" y1="322.0" x2="0" y2="382.0" gradientUnits="userSpaceOnUse" xlink:type="simple" xlink:actuate="onLoad" xlink:show="other" /><linearGradient xmlns:xlink="http://www.w3.org/1999/xlink" xlink:href="#linearGradientFF6666FF9696FFB6B6" id="linearGradientFF6666FF9696FFB6B6_680050436" x1="0" y1="411.0" x2="0" y2="446.0" gradientUnits="userSpaceOnUse" xlink:type="simple" xlink:actuate="onLoad" xlink:show="other" /><linearGradient xmlns:xlink="http://www.w3.org/1999/xlink" xlink:href="#linearGradientF8FBFEEDF5FCDEEDFAD4E7F8E2E5E9" id="linearGradientF8FBFEEDF5FCDEEDFAD4E7F8E2E5E9_902528570" x1="0" y1="521.0" x2="0" y2="627.0" gradientUnits="userSpaceOnUse" xlink:type="simple" xlink:actuate="onLoad" xlink:show="other" /><linearGradient xmlns:xlink="http://www.w3.org/1999/xlink" xlink:href="#linearGradientFAFBFCFFFFCC" id="linearGradientFAFBFCFFFFCC_697604030" x1="0" y1="644.0" x2="0" y2="704.0" gradientUnits="userSpaceOnUse" xlink:type="simple" xlink:actuate="onLoad" xlink:show="other" /><linearGradient xmlns:xlink="http://www.w3.org/1999/xlink" xlink:href="#linearGradientFF6666FF9696FFB6B6" id="linearGradientFF6666FF9696FFB6B6_248383947" x1="0" y1="745.0" x2="0" y2="780.0" gradientUnits="userSpaceOnUse" xlink:type="simple" xlink:actuate="onLoad" xlink:show="other" /></defs></svg>
