<?xml version="1.0" encoding="UTF-8"?>
<svg xmlns="http://www.w3.org/2000/svg" style="stroke-dasharray:none; shape-rendering:auto; font-family:'Arial'; text-rendering:auto; fill-opacity:1; color-interpolation:auto; color-rendering:auto; font-size:12; fill:black; stroke:black; image-rendering:auto; stroke-miterlimit:10; stroke-linecap:square; stroke-linejoin:miter; font-style:normal; stroke-width:1; stroke-dashoffset:0; font-weight:normal; stroke-opacity:1;" contentScriptType="text/ecmascript" preserveAspectRatio="xMidYMid meet" zoomAndPan="magnify" version="1.0" contentStyleType="text/css" xml:xlink="http://www.w3.org/1999/xlink" width="1241" height="951"><rect x="10" y="10" width="1231" height="941" ry="0" rx="0" style="stroke:#000000; fill:#FFFFFF" /><rect x="40" y="762" width="1201" height="189" ry="0" rx="0" style="stroke:#000000; fill:#DFFFDF" /><g componentSequence="9"><text x="-856" y="47" transform="rotate(270)" text-anchor="middle" style="font-weight:bold;font-size:10px;stroke:none; fill:#434343"><tspan dy="14" x="-856">Patrimônio</tspan></text></g><rect x="40" y="574" width="1201" height="188" ry="0" rx="0" style="stroke:#000000; fill:#FFFFE6" /><g componentSequence="8"><text x="-668" y="47" transform="rotate(270)" text-anchor="middle" style="font-weight:bold;font-size:10px;stroke:none; fill:#434343"><tspan dy="14" x="-668">Almoxarifado</tspan></text></g><rect x="40" y="386" width="1201" height="188" ry="0" rx="0" style="stroke:#000000; fill:#DFFFDF" /><g componentSequence="7"><text x="-480" y="47" transform="rotate(270)" text-anchor="middle" style="font-weight:bold;font-size:10px;stroke:none; fill:#434343"><tspan dy="14" x="-480">Dir. Administrativa</tspan></text></g><rect x="40" y="198" width="1201" height="188" ry="0" rx="0" style="stroke:#000000; fill:#FFFFE6" /><g componentSequence="3"><text x="-292" y="47" transform="rotate(270)" text-anchor="middle" style="font-weight:bold;font-size:10px;stroke:none; fill:#434343"><tspan dy="14" x="-292">Compras</tspan></text></g><rect x="40" y="10" width="1201" height="188" ry="0" rx="0" style="stroke:#000000; fill:#DFFFDF" /><g componentSequence="2"><text x="-104" y="47" transform="rotate(270)" text-anchor="middle" style="font-weight:bold;font-size:10px;stroke:none; fill:#434343"><tspan dy="14" x="-104">Solicitante</tspan></text></g><g componentSequence="1"><text x="-480" y="17" transform="rotate(270)" text-anchor="middle" style="font-weight:bold;font-size:10px;stroke:none; fill:#434343"><tspan dy="14" x="-480">Solicitação de Compra</tspan></text></g><g sequence="4"><ellipse cx="192" cy="43" rx="17" ry="17" stroke-width="1" style="fill:url(#linearGradient66FF6696FF96B6FFB6_759107085);" stroke="336633" /></g><g sequence="11"><rect x="140" y="293" width="106" height="70" ry="5" rx="5" style="fill:url(#linearGradientF8FBFEEDF5FCDEEDFAD4E7F8E2E5E9_603518426);" stroke="191970" /></g><g componentSequence="11"><text x="193" y="308" text-anchor="middle" style="font-weight:bold;font-size:10px;stroke:none; fill:#333399"><tspan dy="14" x="193">Solicitar</tspan><tspan dy="14" x="193">Orçamento</tspan></text></g><g sequence="13"><polygon points=" 287 307 317 277 347 307 317 337 287 307" style="fill:url(#linearGradientFAFBFCFFFFCC_667379069);" stroke="000000" /></g><g componentSequence="13"><text x="317" y="347" text-anchor="middle" style="font-weight:bold;font-size:10px;stroke:none; fill:#333399"><tspan dy="14" x="317">Exclusiv</tspan><tspan dy="14" x="317">o</tspan></text></g><g sequence="15"><ellipse cx="317" cy="230" rx="17" ry="17" stroke-width="3" style="fill:url(#linearGradientFF6666FF9696FFB6B6_1657143265);" stroke="993333" /></g><g sequence="17"><rect x="390" y="300" width="106" height="56" ry="5" rx="5" style="fill:url(#linearGradientF8FBFEEDF5FCDEEDFAD4E7F8E2E5E9_929024722);" stroke="191970" /></g><g componentSequence="17"><text x="443" y="317" text-anchor="middle" style="font-weight:bold;font-size:10px;stroke:none; fill:#333399"><tspan dy="14" x="443">Orçar</tspan></text></g><g sequence="19"><rect x="540" y="300" width="106" height="56" ry="5" rx="5" style="fill:url(#linearGradientF8FBFEEDF5FCDEEDFAD4E7F8E2E5E9_1399701446);" stroke="191970" /></g><g componentSequence="19"><text x="593" y="317" text-anchor="middle" style="font-weight:bold;font-size:10px;stroke:none; fill:#333399"><tspan dy="14" x="593">Pré-Aprovar</tspan></text></g><g sequence="21"><polygon points=" 682 307 712 277 742 307 712 337 682 307" style="fill:url(#linearGradientFAFBFCFFFFCC_1327354971);" stroke="000000" /></g><g componentSequence="21"><text x="712" y="347" text-anchor="middle" style="font-weight:bold;font-size:10px;stroke:none; fill:#333399"><tspan dy="14" x="712">Exclusiv</tspan><tspan dy="14" x="712">o</tspan></text></g><g sequence="23"><rect x="660" y="60" width="106" height="70" ry="5" rx="5" style="fill:url(#linearGradientF8FBFEEDF5FCDEEDFAD4E7F8E2E5E9_48890030);" stroke="191970" /></g><g componentSequence="23"><text x="713" y="75" text-anchor="middle" style="font-weight:bold;font-size:10px;stroke:none; fill:#333399"><tspan dy="14" x="713">Comprar</tspan><tspan dy="14" x="713">Diretamente</tspan></text></g><g sequence="25"><rect x="660" y="400" width="106" height="56" ry="5" rx="5" style="fill:url(#linearGradientF8FBFEEDF5FCDEEDFAD4E7F8E2E5E9_1261065083);" stroke="191970" /></g><g componentSequence="25"><text x="713" y="417" text-anchor="middle" style="font-weight:bold;font-size:10px;stroke:none; fill:#333399"><tspan dy="14" x="713">Aprovar</tspan></text></g><g sequence="27"><polygon points=" 680 511 710 481 740 511 710 541 680 511" style="fill:url(#linearGradientFAFBFCFFFFCC_1971803735);" stroke="000000" /></g><g componentSequence="27"><text x="710" y="551" text-anchor="middle" style="font-weight:bold;font-size:10px;stroke:none; fill:#333399"><tspan dy="14" x="710">Exclusiv</tspan><tspan dy="14" x="710">o</tspan></text></g><g sequence="29"><ellipse cx="807" cy="477" rx="17" ry="17" stroke-width="3" style="fill:url(#linearGradientFF6666FF9696FFB6B6_1410988976);" stroke="993333" /></g><g sequence="31"><rect x="810" y="280" width="106" height="56" ry="5" rx="5" style="fill:url(#linearGradientF8FBFEEDF5FCDEEDFAD4E7F8E2E5E9_111443693);" stroke="191970" /></g><g componentSequence="31"><text x="863" y="297" text-anchor="middle" style="font-weight:bold;font-size:10px;stroke:none; fill:#333399"><tspan dy="14" x="863">Comprar</tspan></text></g><g sequence="33"><rect x="890" y="642" width="106" height="56" ry="5" rx="5" style="fill:url(#linearGradientF8FBFEEDF5FCDEEDFAD4E7F8E2E5E9_529290441);" stroke="191970" /></g><g componentSequence="33"><text x="943" y="659" text-anchor="middle" style="font-weight:bold;font-size:10px;stroke:none; fill:#333399"><tspan dy="14" x="943">Receber</tspan></text></g><g sequence="35"><rect x="980" y="863" width="106" height="56" ry="5" rx="5" style="fill:url(#linearGradientF8FBFEEDF5FCDEEDFAD4E7F8E2E5E9_1349946497);" stroke="191970" /></g><g componentSequence="35"><text x="1033" y="880" text-anchor="middle" style="font-weight:bold;font-size:10px;stroke:none; fill:#333399"><tspan dy="14" x="1033">Patrimoniar</tspan></text></g><g sequence="37"><ellipse cx="1153" cy="891" rx="17" ry="17" stroke-width="3" style="fill:url(#linearGradientFF6666FF9696FFB6B6_1269377348);" stroke="993333" /></g><g componentSequence="12"><text x="202" y="177" style="font-size:10px;font-weight:none;stroke:none; fill:#333399" text-anchor="left" /></g><g componentSequence="14"><text x="276" y="328" style="font-size:10px;font-weight:none;stroke:none; fill:#333399" text-anchor="left" /></g><g componentSequence="16"><text x="327" y="262" style="font-size:10px;font-weight:none;stroke:none; fill:#333399" text-anchor="left" /></g><g componentSequence="18"><text x="378" y="328" style="font-size:10px;font-weight:none;stroke:none; fill:#333399" text-anchor="left" /></g><g componentSequence="20"><text x="528" y="328" style="font-size:10px;font-weight:none;stroke:none; fill:#333399" text-anchor="left" /></g><g componentSequence="22"><text x="674" y="328" style="font-size:10px;font-weight:none;stroke:none; fill:#333399" text-anchor="left" /></g><g componentSequence="24"><text x="722" y="203" style="font-size:10px;font-weight:none;stroke:none; fill:#333399" text-anchor="left" /></g><g componentSequence="26"><text x="722" y="389" style="font-size:10px;font-weight:none;stroke:none; fill:#333399" text-anchor="left" /></g><g componentSequence="28"><text x="722" y="468" style="font-size:10px;font-weight:none;stroke:none; fill:#333399" text-anchor="left" /></g><g componentSequence="30"><text x="775" y="501" style="font-size:10px;font-weight:none;stroke:none; fill:#333399" text-anchor="left" /></g><g componentSequence="32"><text x="870" y="494" style="font-size:10px;font-weight:none;stroke:none; fill:#333399" text-anchor="left" /></g><g componentSequence="34"><text x="952" y="461" style="font-size:10px;font-weight:none;stroke:none; fill:#333399" text-anchor="left" /></g><g componentSequence="36"><text x="952" y="812" style="font-size:10px;font-weight:none;stroke:none; fill:#333399" text-anchor="left" /></g><g componentSequence="38"><text x="1121" y="891" style="font-size:10px;font-weight:none;stroke:none; fill:#333399" text-anchor="left" /></g><g componentSequence="39"><text x="1042" y="344" style="font-size:10px;font-weight:none;stroke:none; fill:#333399" text-anchor="left" /></g><g componentSequence="40"><text x="570" y="262" style="font-size:10px;font-weight:none;stroke:none; fill:#333399" text-anchor="left" /></g><g componentSequence="41"><text x="602" y="488" style="font-size:10px;font-weight:none;stroke:none; fill:#333399" text-anchor="left" /></g><path style="fill:none; stroke:#000000;stroke-width:1" d="M192.0 60.0 L192.0 292.0" /><polygon style="fill:#000000; stroke:#000000;" points=" 197 282 192 292 187 282 192 284" /><path style="fill:none; stroke:#000000;stroke-width:1" d="M246.0 328.0 L286.0 328.0" /><polygon style="fill:#000000; stroke:#000000;" points=" 276 323 286 328 276 333 278 328" /><path style="fill:none; stroke:#000000;stroke-width:1" d="M317.0 276.0 L317.0 248.0" /><polygon style="fill:#000000; stroke:#000000;" points=" 312 258 317 248 322 258 317 256" /><path style="fill:none; stroke:#000000;stroke-width:1" d="M347.0 328.0 L389.0 328.0" /><polygon style="fill:#000000; stroke:#000000;" points=" 379 323 389 328 379 333 381 328" /><path style="fill:none; stroke:#000000;stroke-width:1" d="M496.0 328.0 L539.0 328.0" /><polygon style="fill:#000000; stroke:#000000;" points=" 529 323 539 328 529 333 531 328" /><path style="fill:none; stroke:#000000;stroke-width:1" d="M703.0 276.0 L701.0 261.0 L440.0 262.0 L441.0 299.0" /><polygon style="fill:#000000; stroke:#000000;" points=" 446 289 441 299 436 289 441 291" /><path style="fill:none; stroke:#000000;stroke-width:1" d="M646.0 328.0 L681.0 328.0" /><polygon style="fill:#000000; stroke:#000000;" points=" 671 323 681 328 671 333 673 328" /><path style="fill:none; stroke:#000000;stroke-width:1" d="M679.0 532.0 L592.0 532.0 L592.0 356.0" /><polygon style="fill:#000000; stroke:#000000;" points=" 587 366 592 356 597 366 592 364" /><path style="fill:none; stroke:#000000;stroke-width:1" d="M712.0 276.0 L712.0 130.0" /><polygon style="fill:#000000; stroke:#000000;" points=" 707 140 712 130 717 140 712 138" /><path style="fill:none; stroke:#000000;stroke-width:1" d="M712.0 379.0 L712.0 399.0" /><polygon style="fill:#000000; stroke:#000000;" points=" 717 389 712 399 707 389 712 391" /><path style="fill:none; stroke:#000000;stroke-width:1" d="M766.0 94.0 L1032.0 93.0 L1032.0 862.0" /><polygon style="fill:#000000; stroke:#000000;" points=" 1037 852 1032 862 1027 852 1032 854" /><path style="fill:none; stroke:#000000;stroke-width:1" d="M712.0 456.0 L711.0 480.0" /><polygon style="fill:#000000; stroke:#000000;" points=" 716 470 711 480 706 470 711 472" /><path style="fill:none; stroke:#000000;stroke-width:1" d="M740.0 514.0 L792.0 485.0" /><polygon style="fill:#000000; stroke:#000000;" points=" 781 486 792 485 786 494 785 489" /><path style="fill:none; stroke:#000000;stroke-width:1" d="M740.0 532.0 L860.0 532.0 L862.0 336.0" /><polygon style="fill:#000000; stroke:#000000;" points=" 857 346 862 336 867 346 862 344" /><path style="fill:none; stroke:#000000;stroke-width:1" d="M916.0 306.0 L942.0 306.0 L942.0 641.0" /><polygon style="fill:#000000; stroke:#000000;" points=" 947 631 942 641 937 631 942 633" /><path style="fill:none; stroke:#000000;stroke-width:1" d="M942.0 698.0 L942.0 888.0 L979.0 889.0" /><polygon style="fill:#000000; stroke:#000000;" points=" 969 884 979 889 969 894 971 889" /><path style="fill:none; stroke:#000000;stroke-width:1" d="M1086.0 891.0 L1135.0 891.0" /><polygon style="fill:#000000; stroke:#000000;" points=" 1125 886 1135 891 1125 896 1127 891" /><defs><linearGradient xmlns:xlink="http://www.w3.org/1999/xlink" xlink:href="#linearGradient66FF6696FF96B6FFB6" id="linearGradient66FF6696FF96B6FFB6_759107085" x1="0" y1="26.0" x2="0" y2="61.0" gradientUnits="userSpaceOnUse" xlink:type="simple" xlink:actuate="onLoad" xlink:show="other" /><linearGradient id="linearGradient66FF6696FF96B6FFB6"><stop style="stop-color:#66FF66;stop-opacity:1;" offset="0.0" id="stop66FF66" /><stop style="stop-color:#96FF96;stop-opacity:1;" offset="0.5" id="stop96FF96" /><stop style="stop-color:#B6FFB6;stop-opacity:1;" offset="1.0" id="stopB6FFB6" /></linearGradient><linearGradient xmlns:xlink="http://www.w3.org/1999/xlink" xlink:href="#linearGradientF8FBFEEDF5FCDEEDFAD4E7F8E2E5E9" id="linearGradientF8FBFEEDF5FCDEEDFAD4E7F8E2E5E9_603518426" x1="0" y1="293.0" x2="0" y2="399.0" gradientUnits="userSpaceOnUse" xlink:type="simple" xlink:actuate="onLoad" xlink:show="other" /><linearGradient id="linearGradientF8FBFEEDF5FCDEEDFAD4E7F8E2E5E9"><stop style="stop-color:#F8FBFE;stop-opacity:1;" offset="0.0" id="stopF8FBFE" /><stop style="stop-color:#EDF5FC;stop-opacity:1;" offset="0.25" id="stopEDF5FC" /><stop style="stop-color:#DEEDFA;stop-opacity:1;" offset="0.5" id="stopDEEDFA" /><stop style="stop-color:#D4E7F8;stop-opacity:1;" offset="0.75" id="stopD4E7F8" /><stop style="stop-color:#E2E5E9;stop-opacity:1;" offset="1.0" id="stopE2E5E9" /></linearGradient><linearGradient xmlns:xlink="http://www.w3.org/1999/xlink" xlink:href="#linearGradientFAFBFCFFFFCC" id="linearGradientFAFBFCFFFFCC_667379069" x1="0" y1="277.0" x2="0" y2="337.0" gradientUnits="userSpaceOnUse" xlink:type="simple" xlink:actuate="onLoad" xlink:show="other" /><linearGradient id="linearGradientFAFBFCFFFFCC"><stop style="stop-color:#FAFBFC;stop-opacity:1;" offset="0.0" id="stopFAFBFC" /><stop style="stop-color:#FFFFCC;stop-opacity:1;" offset="1.0" id="stopFFFFCC" /></linearGradient><linearGradient xmlns:xlink="http://www.w3.org/1999/xlink" xlink:href="#linearGradientFF6666FF9696FFB6B6" id="linearGradientFF6666FF9696FFB6B6_1657143265" x1="0" y1="213.0" x2="0" y2="248.0" gradientUnits="userSpaceOnUse" xlink:type="simple" xlink:actuate="onLoad" xlink:show="other" /><linearGradient id="linearGradientFF6666FF9696FFB6B6"><stop style="stop-color:#FF6666;stop-opacity:1;" offset="0.0" id="stopFF6666" /><stop style="stop-color:#FF9696;stop-opacity:1;" offset="0.5" id="stopFF9696" /><stop style="stop-color:#FFB6B6;stop-opacity:1;" offset="1.0" id="stopFFB6B6" /></linearGradient><linearGradient xmlns:xlink="http://www.w3.org/1999/xlink" xlink:href="#linearGradientF8FBFEEDF5FCDEEDFAD4E7F8E2E5E9" id="linearGradientF8FBFEEDF5FCDEEDFAD4E7F8E2E5E9_929024722" x1="0" y1="300.0" x2="0" y2="406.0" gradientUnits="userSpaceOnUse" xlink:type="simple" xlink:actuate="onLoad" xlink:show="other" /><linearGradient xmlns:xlink="http://www.w3.org/1999/xlink" xlink:href="#linearGradientF8FBFEEDF5FCDEEDFAD4E7F8E2E5E9" id="linearGradientF8FBFEEDF5FCDEEDFAD4E7F8E2E5E9_1399701446" x1="0" y1="300.0" x2="0" y2="406.0" gradientUnits="userSpaceOnUse" xlink:type="simple" xlink:actuate="onLoad" xlink:show="other" /><linearGradient xmlns:xlink="http://www.w3.org/1999/xlink" xlink:href="#linearGradientFAFBFCFFFFCC" id="linearGradientFAFBFCFFFFCC_1327354971" x1="0" y1="277.0" x2="0" y2="337.0" gradientUnits="userSpaceOnUse" xlink:type="simple" xlink:actuate="onLoad" xlink:show="other" /><linearGradient xmlns:xlink="http://www.w3.org/1999/xlink" xlink:href="#linearGradientF8FBFEEDF5FCDEEDFAD4E7F8E2E5E9" id="linearGradientF8FBFEEDF5FCDEEDFAD4E7F8E2E5E9_48890030" x1="0" y1="60.0" x2="0" y2="166.0" gradientUnits="userSpaceOnUse" xlink:type="simple" xlink:actuate="onLoad" xlink:show="other" /><linearGradient xmlns:xlink="http://www.w3.org/1999/xlink" xlink:href="#linearGradientF8FBFEEDF5FCDEEDFAD4E7F8E2E5E9" id="linearGradientF8FBFEEDF5FCDEEDFAD4E7F8E2E5E9_1261065083" x1="0" y1="400.0" x2="0" y2="506.0" gradientUnits="userSpaceOnUse" xlink:type="simple" xlink:actuate="onLoad" xlink:show="other" /><linearGradient xmlns:xlink="http://www.w3.org/1999/xlink" xlink:href="#linearGradientFAFBFCFFFFCC" id="linearGradientFAFBFCFFFFCC_1971803735" x1="0" y1="481.0" x2="0" y2="541.0" gradientUnits="userSpaceOnUse" xlink:type="simple" xlink:actuate="onLoad" xlink:show="other" /><linearGradient xmlns:xlink="http://www.w3.org/1999/xlink" xlink:href="#linearGradientFF6666FF9696FFB6B6" id="linearGradientFF6666FF9696FFB6B6_1410988976" x1="0" y1="460.0" x2="0" y2="495.0" gradientUnits="userSpaceOnUse" xlink:type="simple" xlink:actuate="onLoad" xlink:show="other" /><linearGradient xmlns:xlink="http://www.w3.org/1999/xlink" xlink:href="#linearGradientF8FBFEEDF5FCDEEDFAD4E7F8E2E5E9" id="linearGradientF8FBFEEDF5FCDEEDFAD4E7F8E2E5E9_111443693" x1="0" y1="280.0" x2="0" y2="386.0" gradientUnits="userSpaceOnUse" xlink:type="simple" xlink:actuate="onLoad" xlink:show="other" /><linearGradient xmlns:xlink="http://www.w3.org/1999/xlink" xlink:href="#linearGradientF8FBFEEDF5FCDEEDFAD4E7F8E2E5E9" id="linearGradientF8FBFEEDF5FCDEEDFAD4E7F8E2E5E9_529290441" x1="0" y1="642.0" x2="0" y2="748.0" gradientUnits="userSpaceOnUse" xlink:type="simple" xlink:actuate="onLoad" xlink:show="other" /><linearGradient xmlns:xlink="http://www.w3.org/1999/xlink" xlink:href="#linearGradientF8FBFEEDF5FCDEEDFAD4E7F8E2E5E9" id="linearGradientF8FBFEEDF5FCDEEDFAD4E7F8E2E5E9_1349946497" x1="0" y1="863.0" x2="0" y2="969.0" gradientUnits="userSpaceOnUse" xlink:type="simple" xlink:actuate="onLoad" xlink:show="other" /><linearGradient xmlns:xlink="http://www.w3.org/1999/xlink" xlink:href="#linearGradientFF6666FF9696FFB6B6" id="linearGradientFF6666FF9696FFB6B6_1269377348" x1="0" y1="874.0" x2="0" y2="909.0" gradientUnits="userSpaceOnUse" xlink:type="simple" xlink:actuate="onLoad" xlink:show="other" /></defs></svg>
