<?xml version="1.0" encoding="UTF-8"?>
<svg xmlns="http://www.w3.org/2000/svg" style="stroke-dasharray:none; shape-rendering:auto; font-family:'Arial'; text-rendering:auto; fill-opacity:1; color-interpolation:auto; color-rendering:auto; font-size:12; fill:black; stroke:black; image-rendering:auto; stroke-miterlimit:10; stroke-linecap:square; stroke-linejoin:miter; font-style:normal; stroke-width:1; stroke-dashoffset:0; font-weight:normal; stroke-opacity:1;" contentScriptType="text/ecmascript" preserveAspectRatio="xMidYMid meet" zoomAndPan="magnify" version="1.0" contentStyleType="text/css" xml:xlink="http://www.w3.org/1999/xlink" width="443" height="692"><g sequence="4"><ellipse cx="312" cy="187" rx="17" ry="17" stroke-width="1" style="fill:url(#linearGradient66FF6696FF96B6FFB6_753929883);" stroke="336633" /></g><g sequence="5"><rect x="260" y="240" width="106" height="70" ry="5" rx="5" style="fill:url(#linearGradientF8FBFEEDF5FCDEEDFAD4E7F8E2E5E9_574088565);" stroke="191970" /></g><g componentSequence="5"><text x="313" y="255" text-anchor="middle" style="font-weight:bold;font-size:10px;stroke:none; fill:#333399"><tspan dy="14" x="313">Atendimento -</tspan><tspan dy="14" x="313">Nível 1</tspan></text></g><g sequence="7"><polygon points=" 283 366 313 336 343 366 313 396 283 366" style="fill:url(#linearGradientFAFBFCFFFFCC_638084587);" stroke="000000" /></g><g componentSequence="7"><text x="313" y="406" text-anchor="middle" style="font-weight:bold;font-size:10px;stroke:none; fill:#333399"><tspan dy="14" x="313">Encamin</tspan><tspan dy="14" x="313">har?</tspan></text></g><g sequence="9"><rect x="260" y="460" width="105" height="70" ry="5" rx="5" style="fill:url(#linearGradientF8FBFEEDF5FCDEEDFAD4E7F8E2E5E9_1661661006);" stroke="191970" /></g><g componentSequence="9"><text x="312" y="475" text-anchor="middle" style="font-weight:bold;font-size:10px;stroke:none; fill:#333399"><tspan dy="14" x="312">Atendimento -</tspan><tspan dy="14" x="312">Nível 2</tspan></text></g><g sequence="11"><polygon points=" 283 586 313 556 343 586 313 616 283 586" style="fill:url(#linearGradientFAFBFCFFFFCC_1336062306);" stroke="000000" /></g><g componentSequence="11"><text x="313" y="626" text-anchor="middle" style="font-weight:bold;font-size:10px;stroke:none; fill:#333399"><tspan dy="14" x="313">Resolvid</tspan><tspan dy="14" x="313">o?</tspan></text></g><g sequence="13"><ellipse cx="425" cy="674" rx="17" ry="17" stroke-width="3" style="fill:url(#linearGradientFF6666FF9696FFB6B6_1378085294);" stroke="993333" /></g><g componentSequence="6"><text x="322" y="222" style="font-size:10px;font-weight:none;stroke:none; fill:#333399" text-anchor="left" /></g><g componentSequence="8"><text x="323" y="323" style="font-size:10px;font-weight:none;stroke:none; fill:#333399" text-anchor="left" /></g><g componentSequence="10"><text x="322" y="449" style="font-size:10px;font-weight:none;stroke:none; fill:#333399" text-anchor="left" /></g><g componentSequence="12"><text x="322" y="543" style="font-size:10px;font-weight:none;stroke:none; fill:#333399" text-anchor="left" /></g><g componentSequence="14"><text x="362" y="674" style="font-size:10px;font-weight:none;stroke:none; fill:#333399" text-anchor="left" /></g><g componentSequence="15"><text x="435" y="480" style="font-size:10px;font-weight:none;stroke:none; fill:#333399" text-anchor="left" /></g><g componentSequence="16"><text x="408" y="562" style="font-size:10px;font-weight:none;stroke:none; fill:#333399" text-anchor="left" /></g><g componentSequence="17"><text x="241" y="452" style="font-size:10px;font-weight:none;stroke:none; fill:#333399" text-anchor="left" /></g><path style="fill:none; stroke:#000000;stroke-width:1" d="M312.0 204.0 L312.0 239.0" /><polygon style="fill:#000000; stroke:#000000;" points=" 317 229 312 239 307 229 312 231" /><path style="fill:none; stroke:#000000;stroke-width:1" d="M313.0 310.0 L313.0 335.0" /><polygon style="fill:#000000; stroke:#000000;" points=" 318 325 313 335 308 325 313 327" /><path style="fill:none; stroke:#000000;stroke-width:1" d="M312.0 438.0 L312.0 459.0" /><polygon style="fill:#000000; stroke:#000000;" points=" 317 449 312 459 307 449 312 451" /><path style="fill:none; stroke:#000000;stroke-width:1" d="M312.0 530.0 L312.0 555.0" /><polygon style="fill:#000000; stroke:#000000;" points=" 317 545 312 555 307 545 312 547" /><path style="fill:none; stroke:#000000;stroke-width:1" d="M313.0 658.0 L313.0 674.0 L407.0 674.0" /><polygon style="fill:#000000; stroke:#000000;" points=" 397 669 407 674 397 679 399 674" /><path style="fill:none; stroke:#000000;stroke-width:1" d="M343.0 386.0 L425.0 386.0 L425.0 656.0" /><polygon style="fill:#000000; stroke:#000000;" points=" 430 646 425 656 420 646 425 648" /><path style="fill:none; stroke:#000000;stroke-width:1" d="M343.0 606.0 L398.0 606.0 L398.0 495.0 L365.0 495.0" /><polygon style="fill:#000000; stroke:#000000;" points=" 375 500 365 495 375 490 373 495" /><path style="fill:none; stroke:#000000;stroke-width:1" d="M282.0 606.0 L231.0 606.0 L231.0 274.0 L259.0 274.0" /><polygon style="fill:#000000; stroke:#000000;" points=" 249 269 259 274 249 279 251 274" /><defs><linearGradient xmlns:xlink="http://www.w3.org/1999/xlink" xlink:href="#linearGradient66FF6696FF96B6FFB6" id="linearGradient66FF6696FF96B6FFB6_753929883" x1="0" y1="170.0" x2="0" y2="205.0" gradientUnits="userSpaceOnUse" xlink:type="simple" xlink:actuate="onLoad" xlink:show="other" /><linearGradient id="linearGradient66FF6696FF96B6FFB6"><stop style="stop-color:#66FF66;stop-opacity:1;" offset="0.0" id="stop66FF66" /><stop style="stop-color:#96FF96;stop-opacity:1;" offset="0.5" id="stop96FF96" /><stop style="stop-color:#B6FFB6;stop-opacity:1;" offset="1.0" id="stopB6FFB6" /></linearGradient><linearGradient xmlns:xlink="http://www.w3.org/1999/xlink" xlink:href="#linearGradientF8FBFEEDF5FCDEEDFAD4E7F8E2E5E9" id="linearGradientF8FBFEEDF5FCDEEDFAD4E7F8E2E5E9_574088565" x1="0" y1="240.0" x2="0" y2="346.0" gradientUnits="userSpaceOnUse" xlink:type="simple" xlink:actuate="onLoad" xlink:show="other" /><linearGradient id="linearGradientF8FBFEEDF5FCDEEDFAD4E7F8E2E5E9"><stop style="stop-color:#F8FBFE;stop-opacity:1;" offset="0.0" id="stopF8FBFE" /><stop style="stop-color:#EDF5FC;stop-opacity:1;" offset="0.25" id="stopEDF5FC" /><stop style="stop-color:#DEEDFA;stop-opacity:1;" offset="0.5" id="stopDEEDFA" /><stop style="stop-color:#D4E7F8;stop-opacity:1;" offset="0.75" id="stopD4E7F8" /><stop style="stop-color:#E2E5E9;stop-opacity:1;" offset="1.0" id="stopE2E5E9" /></linearGradient><linearGradient xmlns:xlink="http://www.w3.org/1999/xlink" xlink:href="#linearGradientFAFBFCFFFFCC" id="linearGradientFAFBFCFFFFCC_638084587" x1="0" y1="336.0" x2="0" y2="396.0" gradientUnits="userSpaceOnUse" xlink:type="simple" xlink:actuate="onLoad" xlink:show="other" /><linearGradient id="linearGradientFAFBFCFFFFCC"><stop style="stop-color:#FAFBFC;stop-opacity:1;" offset="0.0" id="stopFAFBFC" /><stop style="stop-color:#FFFFCC;stop-opacity:1;" offset="1.0" id="stopFFFFCC" /></linearGradient><linearGradient xmlns:xlink="http://www.w3.org/1999/xlink" xlink:href="#linearGradientF8FBFEEDF5FCDEEDFAD4E7F8E2E5E9" id="linearGradientF8FBFEEDF5FCDEEDFAD4E7F8E2E5E9_1661661006" x1="0" y1="460.0" x2="0" y2="565.0" gradientUnits="userSpaceOnUse" xlink:type="simple" xlink:actuate="onLoad" xlink:show="other" /><linearGradient xmlns:xlink="http://www.w3.org/1999/xlink" xlink:href="#linearGradientFAFBFCFFFFCC" id="linearGradientFAFBFCFFFFCC_1336062306" x1="0" y1="556.0" x2="0" y2="616.0" gradientUnits="userSpaceOnUse" xlink:type="simple" xlink:actuate="onLoad" xlink:show="other" /><linearGradient xmlns:xlink="http://www.w3.org/1999/xlink" xlink:href="#linearGradientFF6666FF9696FFB6B6" id="linearGradientFF6666FF9696FFB6B6_1378085294" x1="0" y1="657.0" x2="0" y2="692.0" gradientUnits="userSpaceOnUse" xlink:type="simple" xlink:actuate="onLoad" xlink:show="other" /><linearGradient id="linearGradientFF6666FF9696FFB6B6"><stop style="stop-color:#FF6666;stop-opacity:1;" offset="0.0" id="stopFF6666" /><stop style="stop-color:#FF9696;stop-opacity:1;" offset="0.5" id="stopFF9696" /><stop style="stop-color:#FFB6B6;stop-opacity:1;" offset="1.0" id="stopFFB6B6" /></linearGradient></defs></svg>
