<?xml version="1.0" encoding="UTF-8"?>
<svg xmlns="http://www.w3.org/2000/svg" style="stroke-dasharray:none; shape-rendering:auto; font-family:'Arial'; text-rendering:auto; fill-opacity:1; color-interpolation:auto; color-rendering:auto; font-size:12; fill:black; stroke:black; image-rendering:auto; stroke-miterlimit:10; stroke-linecap:square; stroke-linejoin:miter; font-style:normal; stroke-width:1; stroke-dashoffset:0; font-weight:normal; stroke-opacity:1;" contentScriptType="text/ecmascript" preserveAspectRatio="xMidYMid meet" zoomAndPan="magnify" version="1.0" contentStyleType="text/css" xml:xlink="http://www.w3.org/1999/xlink" width="1151" height="471"><rect x="10" y="10" width="1141" height="461" ry="0" rx="0" style="stroke:#000000; fill:#FFFFFF" /><rect x="40" y="240" width="1111" height="231" ry="0" rx="0" style="stroke:#000000; fill:#F0FFF0" /><g componentSequence="3"><text x="-355" y="47" transform="rotate(270)" text-anchor="middle" style="font-weight:bold;font-size:10px;stroke:none; fill:#434343"><tspan dy="14" x="-355">TI</tspan></text></g><rect x="40" y="10" width="1111" height="230" ry="0" rx="0" style="stroke:#000000; fill:#ECF5FF" /><g componentSequence="2"><text x="-125" y="47" transform="rotate(270)" text-anchor="middle" style="font-weight:bold;font-size:10px;stroke:none; fill:#434343"><tspan dy="14" x="-125">Solicitante</tspan></text></g><g componentSequence="1"><text x="-240" y="17" transform="rotate(270)" text-anchor="middle" style="font-weight:bold;font-size:10px;stroke:none; fill:#434343"><tspan dy="14" x="-240">Solicitação de Processos</tspan></text></g><g sequence="4"><ellipse cx="257" cy="67" rx="17" ry="17" stroke-width="1" style="fill:url(#linearGradient66FF6696FF96B6FFB6_1829926155);" stroke="336633" /></g><g sequence="7"><ellipse cx="1087" cy="73" rx="17" ry="17" stroke-width="3" style="fill:url(#linearGradientFF6666FF9696FFB6B6_1674942169);" stroke="993333" /></g><g sequence="9"><polygon points=" 227 180 257 150 287 180 257 210 227 180" style="fill:url(#linearGradientFAFBFCFFFFCC_1743396475);" stroke="000000" /></g><g componentSequence="9"><text x="257" y="220" text-anchor="middle" style="font-weight:bold;font-size:10px;stroke:none; fill:#333399"><tspan dy="14" x="257">Aprovad</tspan><tspan dy="14" x="257">o?</tspan></text></g><g sequence="11"><rect x="390" y="356" width="106" height="70" ry="5" rx="5" style="fill:url(#linearGradientF8FBFEEDF5FCDEEDFAD4E7F8E2E5E9_585669858);" stroke="191970" /></g><g componentSequence="11"><text x="443" y="371" text-anchor="middle" style="font-weight:bold;font-size:10px;stroke:none; fill:#333399"><tspan dy="14" x="443">Análise da</tspan><tspan dy="14" x="443">Proposta</tspan></text></g><g sequence="13"><polygon points=" 592 370 622 340 652 370 622 400 592 370" style="fill:url(#linearGradientFAFBFCFFFFCC_1546391449);" stroke="000000" /></g><g componentSequence="13"><text x="622" y="410" text-anchor="middle" style="font-weight:bold;font-size:10px;stroke:none; fill:#333399"><tspan dy="14" x="622">Reunião</tspan><tspan dy="14" x="622">?</tspan></text></g><g sequence="17"><rect x="740" y="356" width="106" height="70" ry="5" rx="5" style="fill:url(#linearGradientF8FBFEEDF5FCDEEDFAD4E7F8E2E5E9_327170459);" stroke="191970" /></g><g componentSequence="17"><text x="793" y="371" text-anchor="middle" style="font-weight:bold;font-size:10px;stroke:none; fill:#333399"><tspan dy="14" x="793">Desenvolviment</tspan><tspan dy="14" x="793">o</tspan></text></g><g sequence="21"><rect x="887" y="150" width="106" height="56" ry="5" rx="5" style="fill:url(#linearGradientF8FBFEEDF5FCDEEDFAD4E7F8E2E5E9_615445590);" stroke="191970" /></g><g componentSequence="21"><text x="940" y="167" text-anchor="middle" style="font-weight:bold;font-size:10px;stroke:none; fill:#333399"><tspan dy="14" x="940">Análise</tspan></text></g><g sequence="23"><polygon points=" 910 52 940 22 970 52 940 82 910 52" style="fill:url(#linearGradientFAFBFCFFFFCC_1120363437);" stroke="000000" /></g><g componentSequence="23"><text x="940" y="92" text-anchor="middle" style="font-weight:bold;font-size:10px;stroke:none; fill:#333399"><tspan dy="14" x="940">Aprovad</tspan><tspan dy="14" x="940">o?</tspan></text></g><g sequence="26"><rect x="570" y="250" width="106" height="56" ry="5" rx="5" style="fill:url(#linearGradientF8FBFEEDF5FCDEEDFAD4E7F8E2E5E9_2125196459);" stroke="191970" /></g><g componentSequence="26"><text x="623" y="267" text-anchor="middle" style="font-weight:bold;font-size:10px;stroke:none; fill:#333399"><tspan dy="14" x="623">Reunião</tspan></text></g><g sequence="37"><rect x="570" y="80" width="106" height="56" ry="5" rx="5" style="fill:url(#linearGradientF8FBFEEDF5FCDEEDFAD4E7F8E2E5E9_1819631108);" stroke="191970" /></g><g componentSequence="37"><text x="623" y="97" text-anchor="middle" style="font-weight:bold;font-size:10px;stroke:none; fill:#333399"><tspan dy="14" x="623">Verificar</tspan></text></g><g componentSequence="12"><text x="427" y="214" style="font-size:10px;font-weight:none;stroke:none; fill:#333399" text-anchor="left" /></g><g componentSequence="14"><text x="554" y="391" style="font-size:10px;font-weight:none;stroke:none; fill:#333399" text-anchor="left" /></g><g componentSequence="16"><text x="190" y="127" style="font-size:10px;font-weight:none;stroke:none; fill:#333399" text-anchor="left" /></g><g componentSequence="18"><text x="706" y="391" style="font-size:10px;font-weight:none;stroke:none; fill:#333399" text-anchor="left" /></g><g componentSequence="24"><text x="950" y="137" style="font-size:10px;font-weight:none;stroke:none; fill:#333399" text-anchor="left" /></g><g componentSequence="25"><text x="1030" y="73" style="font-size:10px;font-weight:none;stroke:none; fill:#333399" text-anchor="left" /></g><g componentSequence="27"><text x="632" y="323" style="font-size:10px;font-weight:none;stroke:none; fill:#333399" text-anchor="left" /></g><g componentSequence="31"><text x="760" y="133" style="font-size:10px;font-weight:none;stroke:none; fill:#333399" text-anchor="left" /></g><g componentSequence="33"><text x="949" y="345" style="font-size:10px;font-weight:none;stroke:none; fill:#333399" text-anchor="left" /></g><g componentSequence="36"><text x="267" y="117" style="font-size:10px;font-weight:none;stroke:none; fill:#333399" text-anchor="left" /></g><g componentSequence="38"><text x="633" y="193" style="font-size:10px;font-weight:none;stroke:none; fill:#333399" text-anchor="left" /></g><g componentSequence="39"><text x="487" y="194" style="font-size:10px;font-weight:none;stroke:none; fill:#333399" text-anchor="left" /></g><path style="fill:none; stroke:#000000;stroke-width:1" d="M257.0 85.0 L257.0 149.0" /><polygon style="fill:#000000; stroke:#000000;" points=" 262 139 257 149 252 139 257 141" /><path style="fill:none; stroke:#000000;stroke-width:1" d="M226.0 200.0 L180.0 200.0 L180.0 67.0 L239.0 67.0" /><polygon style="fill:#000000; stroke:#000000;" points=" 229 62 239 67 229 72 231 67" /><path style="fill:none; stroke:#000000;stroke-width:1" d="M970.0 73.0 L1069.0 73.0" /><polygon style="fill:#000000; stroke:#000000;" points=" 1059 68 1069 73 1059 78 1061 73" /><path style="fill:none; stroke:#000000;stroke-width:1" d="M287.0 200.0 L415.0 200.0 L437.0 355.0" /><polygon style="fill:#000000; stroke:#000000;" points=" 441 344 437 355 431 346 436 347" /><path style="fill:none; stroke:#000000;stroke-width:1" d="M496.0 391.0 L591.0 391.0" /><polygon style="fill:#000000; stroke:#000000;" points=" 581 386 591 391 581 396 583 391" /><path style="fill:none; stroke:#000000;stroke-width:1" d="M569.0 108.0 L492.0 108.0 L449.0 355.0" /><polygon style="fill:#000000; stroke:#000000;" points=" 456 346 449 355 446 344 450 347" /><path style="fill:none; stroke:#000000;stroke-width:1" d="M652.0 391.0 L739.0 391.0" /><polygon style="fill:#000000; stroke:#000000;" points=" 729 386 739 391 729 396 731 391" /><path style="fill:none; stroke:#000000;stroke-width:1" d="M622.0 339.0 L622.0 306.0" /><polygon style="fill:#000000; stroke:#000000;" points=" 617 316 622 306 627 316 622 314" /><path style="fill:none; stroke:#000000;stroke-width:1" d="M846.0 391.0 L939.0 391.0 L939.0 206.0" /><polygon style="fill:#000000; stroke:#000000;" points=" 934 216 939 206 944 216 939 214" /><path style="fill:none; stroke:#000000;stroke-width:1" d="M940.0 149.0 L940.0 124.0" /><polygon style="fill:#000000; stroke:#000000;" points=" 935 134 940 124 945 134 940 132" /><path style="fill:none; stroke:#000000;stroke-width:1" d="M909.0 73.0 L750.0 73.0 L750.0 277.0 L676.0 277.0" /><polygon style="fill:#000000; stroke:#000000;" points=" 686 282 676 277 686 272 684 277" /><path style="fill:none; stroke:#000000;stroke-width:1" d="M623.0 249.0 L623.0 136.0" /><polygon style="fill:#000000; stroke:#000000;" points=" 618 146 623 136 628 146 623 144" /><defs><linearGradient xmlns:xlink="http://www.w3.org/1999/xlink" xlink:href="#linearGradient66FF6696FF96B6FFB6" id="linearGradient66FF6696FF96B6FFB6_1829926155" x1="0" y1="50.0" x2="0" y2="85.0" gradientUnits="userSpaceOnUse" xlink:type="simple" xlink:actuate="onLoad" xlink:show="other" /><linearGradient id="linearGradient66FF6696FF96B6FFB6"><stop style="stop-color:#66FF66;stop-opacity:1;" offset="0.0" id="stop66FF66" /><stop style="stop-color:#96FF96;stop-opacity:1;" offset="0.5" id="stop96FF96" /><stop style="stop-color:#B6FFB6;stop-opacity:1;" offset="1.0" id="stopB6FFB6" /></linearGradient><linearGradient xmlns:xlink="http://www.w3.org/1999/xlink" xlink:href="#linearGradientFF6666FF9696FFB6B6" id="linearGradientFF6666FF9696FFB6B6_1674942169" x1="0" y1="56.0" x2="0" y2="91.0" gradientUnits="userSpaceOnUse" xlink:type="simple" xlink:actuate="onLoad" xlink:show="other" /><linearGradient id="linearGradientFF6666FF9696FFB6B6"><stop style="stop-color:#FF6666;stop-opacity:1;" offset="0.0" id="stopFF6666" /><stop style="stop-color:#FF9696;stop-opacity:1;" offset="0.5" id="stopFF9696" /><stop style="stop-color:#FFB6B6;stop-opacity:1;" offset="1.0" id="stopFFB6B6" /></linearGradient><linearGradient xmlns:xlink="http://www.w3.org/1999/xlink" xlink:href="#linearGradientFAFBFCFFFFCC" id="linearGradientFAFBFCFFFFCC_1743396475" x1="0" y1="150.0" x2="0" y2="210.0" gradientUnits="userSpaceOnUse" xlink:type="simple" xlink:actuate="onLoad" xlink:show="other" /><linearGradient id="linearGradientFAFBFCFFFFCC"><stop style="stop-color:#FAFBFC;stop-opacity:1;" offset="0.0" id="stopFAFBFC" /><stop style="stop-color:#FFFFCC;stop-opacity:1;" offset="1.0" id="stopFFFFCC" /></linearGradient><linearGradient xmlns:xlink="http://www.w3.org/1999/xlink" xlink:href="#linearGradientF8FBFEEDF5FCDEEDFAD4E7F8E2E5E9" id="linearGradientF8FBFEEDF5FCDEEDFAD4E7F8E2E5E9_585669858" x1="0" y1="356.0" x2="0" y2="462.0" gradientUnits="userSpaceOnUse" xlink:type="simple" xlink:actuate="onLoad" xlink:show="other" /><linearGradient id="linearGradientF8FBFEEDF5FCDEEDFAD4E7F8E2E5E9"><stop style="stop-color:#F8FBFE;stop-opacity:1;" offset="0.0" id="stopF8FBFE" /><stop style="stop-color:#EDF5FC;stop-opacity:1;" offset="0.25" id="stopEDF5FC" /><stop style="stop-color:#DEEDFA;stop-opacity:1;" offset="0.5" id="stopDEEDFA" /><stop style="stop-color:#D4E7F8;stop-opacity:1;" offset="0.75" id="stopD4E7F8" /><stop style="stop-color:#E2E5E9;stop-opacity:1;" offset="1.0" id="stopE2E5E9" /></linearGradient><linearGradient xmlns:xlink="http://www.w3.org/1999/xlink" xlink:href="#linearGradientFAFBFCFFFFCC" id="linearGradientFAFBFCFFFFCC_1546391449" x1="0" y1="340.0" x2="0" y2="400.0" gradientUnits="userSpaceOnUse" xlink:type="simple" xlink:actuate="onLoad" xlink:show="other" /><linearGradient xmlns:xlink="http://www.w3.org/1999/xlink" xlink:href="#linearGradientF8FBFEEDF5FCDEEDFAD4E7F8E2E5E9" id="linearGradientF8FBFEEDF5FCDEEDFAD4E7F8E2E5E9_327170459" x1="0" y1="356.0" x2="0" y2="462.0" gradientUnits="userSpaceOnUse" xlink:type="simple" xlink:actuate="onLoad" xlink:show="other" /><linearGradient xmlns:xlink="http://www.w3.org/1999/xlink" xlink:href="#linearGradientF8FBFEEDF5FCDEEDFAD4E7F8E2E5E9" id="linearGradientF8FBFEEDF5FCDEEDFAD4E7F8E2E5E9_615445590" x1="0" y1="150.0" x2="0" y2="256.0" gradientUnits="userSpaceOnUse" xlink:type="simple" xlink:actuate="onLoad" xlink:show="other" /><linearGradient xmlns:xlink="http://www.w3.org/1999/xlink" xlink:href="#linearGradientFAFBFCFFFFCC" id="linearGradientFAFBFCFFFFCC_1120363437" x1="0" y1="22.0" x2="0" y2="82.0" gradientUnits="userSpaceOnUse" xlink:type="simple" xlink:actuate="onLoad" xlink:show="other" /><linearGradient xmlns:xlink="http://www.w3.org/1999/xlink" xlink:href="#linearGradientF8FBFEEDF5FCDEEDFAD4E7F8E2E5E9" id="linearGradientF8FBFEEDF5FCDEEDFAD4E7F8E2E5E9_2125196459" x1="0" y1="250.0" x2="0" y2="356.0" gradientUnits="userSpaceOnUse" xlink:type="simple" xlink:actuate="onLoad" xlink:show="other" /><linearGradient xmlns:xlink="http://www.w3.org/1999/xlink" xlink:href="#linearGradientF8FBFEEDF5FCDEEDFAD4E7F8E2E5E9" id="linearGradientF8FBFEEDF5FCDEEDFAD4E7F8E2E5E9_1819631108" x1="0" y1="80.0" x2="0" y2="186.0" gradientUnits="userSpaceOnUse" xlink:type="simple" xlink:actuate="onLoad" xlink:show="other" /></defs></svg>
