<?xml version="1.0" encoding="UTF-8"?>
<svg xmlns="http://www.w3.org/2000/svg" style="stroke-dasharray:none; shape-rendering:auto; font-family:'Arial'; text-rendering:auto; fill-opacity:1; color-interpolation:auto; color-rendering:auto; font-size:12; fill:black; stroke:black; image-rendering:auto; stroke-miterlimit:10; stroke-linecap:square; stroke-linejoin:miter; font-style:normal; stroke-width:1; stroke-dashoffset:0; font-weight:normal; stroke-opacity:1;" contentScriptType="text/ecmascript" preserveAspectRatio="xMidYMid meet" zoomAndPan="magnify" version="1.0" contentStyleType="text/css" xml:xlink="http://www.w3.org/1999/xlink" width="901" height="541"><rect x="10" y="10" width="891" height="531" ry="0" rx="0" style="stroke:#000000; fill:#FFFFFF" /><rect x="40" y="187" width="861" height="177" ry="0" rx="0" style="stroke:#000000; fill:#EAF4FF" /><g componentSequence="23"><text x="-275" y="47" transform="rotate(270)" text-anchor="middle" style="font-weight:bold;font-size:10px;stroke:none; fill:#434343"><tspan dy="14" x="-275">Diretor Departamento</tspan></text></g><rect x="40" y="364" width="861" height="177" ry="0" rx="0" style="stroke:#000000; fill:#E8FFE8" /><g componentSequence="3"><text x="-452" y="47" transform="rotate(270)" text-anchor="middle" style="font-weight:bold;font-size:10px;stroke:none; fill:#434343"><tspan dy="14" x="-452">Auxiliar de Almoxarife</tspan></text></g><rect x="40" y="10" width="861" height="177" ry="0" rx="0" style="stroke:#000000; fill:#EAFFEA" /><g componentSequence="2"><text x="-98" y="47" transform="rotate(270)" text-anchor="middle" style="font-weight:bold;font-size:10px;stroke:none; fill:#434343"><tspan dy="14" x="-98">Solicitante</tspan></text></g><g componentSequence="1"><text x="-275" y="17" transform="rotate(270)" text-anchor="middle" style="font-weight:bold;font-size:10px;stroke:none; fill:#434343"><tspan dy="14" x="-275">Solicitação de Produdos do Almoxarifado</tspan></text></g><g sequence="4"><ellipse cx="172" cy="105" rx="17" ry="17" stroke-width="1" style="fill:url(#linearGradient66FF6696FF96B6FFB6_420302714);" stroke="336633" /></g><g sequence="5"><rect x="420" y="427" width="106" height="56" ry="5" rx="5" style="fill:url(#linearGradientF8FBFEEDF5FCDEEDFAD4E7F8E2E5E9_399155755);" stroke="191970" /></g><g componentSequence="5"><text x="473" y="444" text-anchor="middle" style="font-weight:bold;font-size:10px;stroke:none; fill:#333399"><tspan dy="14" x="473">Entregar</tspan></text></g><g sequence="9"><rect x="570" y="109" width="106" height="56" ry="5" rx="5" style="fill:url(#linearGradientF8FBFEEDF5FCDEEDFAD4E7F8E2E5E9_334832650);" stroke="191970" /></g><g componentSequence="9"><text x="623" y="126" text-anchor="middle" style="font-weight:bold;font-size:10px;stroke:none; fill:#333399"><tspan dy="14" x="623">Conferir</tspan></text></g><g sequence="13"><ellipse cx="757" cy="137" rx="17" ry="17" stroke-width="3" style="fill:url(#linearGradientFF6666FF9696FFB6B6_1459070992);" stroke="993333" /></g><g sequence="15"><polygon points=" 593 434 623 404 653 434 623 464 593 434" style="fill:url(#linearGradientFAFBFCFFFFCC_628247339);" stroke="000000" /></g><g componentSequence="15"><text x="623" y="474" text-anchor="middle" style="font-weight:bold;font-size:10px;stroke:none; fill:#333399"><tspan dy="14" x="623">Entregue</tspan><tspan dy="14" x="623">?</tspan></text></g><g sequence="19"><rect x="120" y="250" width="106" height="56" ry="5" rx="5" style="fill:url(#linearGradientF8FBFEEDF5FCDEEDFAD4E7F8E2E5E9_1743486548);" stroke="191970" /></g><g componentSequence="19"><text x="173" y="267" text-anchor="middle" style="font-weight:bold;font-size:10px;stroke:none; fill:#333399"><tspan dy="14" x="173">Aprovar</tspan></text></g><g sequence="21"><polygon points=" 280 257 310 227 340 257 310 287 280 257" style="fill:url(#linearGradientFAFBFCFFFFCC_1568981975);" stroke="000000" /></g><g componentSequence="21"><text x="310" y="297" text-anchor="middle" style="font-weight:bold;font-size:10px;stroke:none; fill:#333399"><tspan dy="14" x="310">Aprovad</tspan><tspan dy="14" x="310">o?</tspan></text></g><g sequence="26"><rect x="257" y="427" width="106" height="56" ry="5" rx="5" style="fill:url(#linearGradientF8FBFEEDF5FCDEEDFAD4E7F8E2E5E9_920147807);" stroke="191970" /></g><g componentSequence="26"><text x="310" y="444" text-anchor="middle" style="font-weight:bold;font-size:10px;stroke:none; fill:#333399"><tspan dy="14" x="310">Preparar</tspan></text></g><g componentSequence="14"><text x="718" y="137" style="font-size:10px;font-weight:none;stroke:none; fill:#333399" text-anchor="left" /></g><g componentSequence="16"><text x="569" y="455" style="font-size:10px;font-weight:none;stroke:none; fill:#333399" text-anchor="left" /></g><g componentSequence="17"><text x="633" y="284" style="font-size:10px;font-weight:none;stroke:none; fill:#333399" text-anchor="left" /></g><g componentSequence="18"><text x="547" y="517" style="font-size:10px;font-weight:none;stroke:none; fill:#333399" text-anchor="left" /></g><g componentSequence="20"><text x="182" y="186" style="font-size:10px;font-weight:none;stroke:none; fill:#333399" text-anchor="left" /></g><g componentSequence="22"><text x="263" y="278" style="font-size:10px;font-weight:none;stroke:none; fill:#333399" text-anchor="left" /></g><g componentSequence="27"><text x="320" y="378" style="font-size:10px;font-weight:none;stroke:none; fill:#333399" text-anchor="left" /></g><g componentSequence="28"><text x="401" y="455" style="font-size:10px;font-weight:none;stroke:none; fill:#333399" text-anchor="left" /></g><g componentSequence="29"><text x="320" y="106" style="font-size:10px;font-weight:none;stroke:none; fill:#333399" text-anchor="left" /></g><path style="fill:none; stroke:#000000;stroke-width:1" d="M172.0 122.0 L172.0 249.0" /><polygon style="fill:#000000; stroke:#000000;" points=" 177 239 172 249 167 239 172 241" /><path style="fill:none; stroke:#000000;stroke-width:1" d="M310.0 226.0 L310.0 105.0 L190.0 105.0" /><polygon style="fill:#000000; stroke:#000000;" points=" 200 110 190 105 200 100 198 105" /><path style="fill:none; stroke:#000000;stroke-width:1" d="M526.0 455.0 L592.0 455.0" /><polygon style="fill:#000000; stroke:#000000;" points=" 582 450 592 455 582 460 584 455" /><path style="fill:none; stroke:#000000;stroke-width:1" d="M623.0 506.0 L623.0 517.0 L473.0 517.0 L473.0 483.0" /><polygon style="fill:#000000; stroke:#000000;" points=" 468 493 473 483 478 493 473 491" /><path style="fill:none; stroke:#000000;stroke-width:1" d="M363.0 455.0 L419.0 455.0" /><polygon style="fill:#000000; stroke:#000000;" points=" 409 450 419 455 409 460 411 455" /><path style="fill:none; stroke:#000000;stroke-width:1" d="M676.0 137.0 L739.0 137.0" /><polygon style="fill:#000000; stroke:#000000;" points=" 729 132 739 137 729 142 731 137" /><path style="fill:none; stroke:#000000;stroke-width:1" d="M623.0 403.0 L623.0 165.0" /><polygon style="fill:#000000; stroke:#000000;" points=" 618 175 623 165 628 175 623 173" /><path style="fill:none; stroke:#000000;stroke-width:1" d="M226.0 278.0 L279.0 278.0" /><polygon style="fill:#000000; stroke:#000000;" points=" 269 273 279 278 269 283 271 278" /><path style="fill:none; stroke:#000000;stroke-width:1" d="M310.0 329.0 L310.0 426.0" /><polygon style="fill:#000000; stroke:#000000;" points=" 315 416 310 426 305 416 310 418" /><defs><linearGradient xmlns:xlink="http://www.w3.org/1999/xlink" xlink:href="#linearGradient66FF6696FF96B6FFB6" id="linearGradient66FF6696FF96B6FFB6_420302714" x1="0" y1="88.0" x2="0" y2="123.0" gradientUnits="userSpaceOnUse" xlink:type="simple" xlink:actuate="onLoad" xlink:show="other" /><linearGradient id="linearGradient66FF6696FF96B6FFB6"><stop style="stop-color:#66FF66;stop-opacity:1;" offset="0.0" id="stop66FF66" /><stop style="stop-color:#96FF96;stop-opacity:1;" offset="0.5" id="stop96FF96" /><stop style="stop-color:#B6FFB6;stop-opacity:1;" offset="1.0" id="stopB6FFB6" /></linearGradient><linearGradient xmlns:xlink="http://www.w3.org/1999/xlink" xlink:href="#linearGradientF8FBFEEDF5FCDEEDFAD4E7F8E2E5E9" id="linearGradientF8FBFEEDF5FCDEEDFAD4E7F8E2E5E9_399155755" x1="0" y1="427.0" x2="0" y2="533.0" gradientUnits="userSpaceOnUse" xlink:type="simple" xlink:actuate="onLoad" xlink:show="other" /><linearGradient id="linearGradientF8FBFEEDF5FCDEEDFAD4E7F8E2E5E9"><stop style="stop-color:#F8FBFE;stop-opacity:1;" offset="0.0" id="stopF8FBFE" /><stop style="stop-color:#EDF5FC;stop-opacity:1;" offset="0.25" id="stopEDF5FC" /><stop style="stop-color:#DEEDFA;stop-opacity:1;" offset="0.5" id="stopDEEDFA" /><stop style="stop-color:#D4E7F8;stop-opacity:1;" offset="0.75" id="stopD4E7F8" /><stop style="stop-color:#E2E5E9;stop-opacity:1;" offset="1.0" id="stopE2E5E9" /></linearGradient><linearGradient xmlns:xlink="http://www.w3.org/1999/xlink" xlink:href="#linearGradientF8FBFEEDF5FCDEEDFAD4E7F8E2E5E9" id="linearGradientF8FBFEEDF5FCDEEDFAD4E7F8E2E5E9_334832650" x1="0" y1="109.0" x2="0" y2="215.0" gradientUnits="userSpaceOnUse" xlink:type="simple" xlink:actuate="onLoad" xlink:show="other" /><linearGradient xmlns:xlink="http://www.w3.org/1999/xlink" xlink:href="#linearGradientFF6666FF9696FFB6B6" id="linearGradientFF6666FF9696FFB6B6_1459070992" x1="0" y1="120.0" x2="0" y2="155.0" gradientUnits="userSpaceOnUse" xlink:type="simple" xlink:actuate="onLoad" xlink:show="other" /><linearGradient id="linearGradientFF6666FF9696FFB6B6"><stop style="stop-color:#FF6666;stop-opacity:1;" offset="0.0" id="stopFF6666" /><stop style="stop-color:#FF9696;stop-opacity:1;" offset="0.5" id="stopFF9696" /><stop style="stop-color:#FFB6B6;stop-opacity:1;" offset="1.0" id="stopFFB6B6" /></linearGradient><linearGradient xmlns:xlink="http://www.w3.org/1999/xlink" xlink:href="#linearGradientFAFBFCFFFFCC" id="linearGradientFAFBFCFFFFCC_628247339" x1="0" y1="404.0" x2="0" y2="464.0" gradientUnits="userSpaceOnUse" xlink:type="simple" xlink:actuate="onLoad" xlink:show="other" /><linearGradient id="linearGradientFAFBFCFFFFCC"><stop style="stop-color:#FAFBFC;stop-opacity:1;" offset="0.0" id="stopFAFBFC" /><stop style="stop-color:#FFFFCC;stop-opacity:1;" offset="1.0" id="stopFFFFCC" /></linearGradient><linearGradient xmlns:xlink="http://www.w3.org/1999/xlink" xlink:href="#linearGradientF8FBFEEDF5FCDEEDFAD4E7F8E2E5E9" id="linearGradientF8FBFEEDF5FCDEEDFAD4E7F8E2E5E9_1743486548" x1="0" y1="250.0" x2="0" y2="356.0" gradientUnits="userSpaceOnUse" xlink:type="simple" xlink:actuate="onLoad" xlink:show="other" /><linearGradient xmlns:xlink="http://www.w3.org/1999/xlink" xlink:href="#linearGradientFAFBFCFFFFCC" id="linearGradientFAFBFCFFFFCC_1568981975" x1="0" y1="227.0" x2="0" y2="287.0" gradientUnits="userSpaceOnUse" xlink:type="simple" xlink:actuate="onLoad" xlink:show="other" /><linearGradient xmlns:xlink="http://www.w3.org/1999/xlink" xlink:href="#linearGradientF8FBFEEDF5FCDEEDFAD4E7F8E2E5E9" id="linearGradientF8FBFEEDF5FCDEEDFAD4E7F8E2E5E9_920147807" x1="0" y1="427.0" x2="0" y2="533.0" gradientUnits="userSpaceOnUse" xlink:type="simple" xlink:actuate="onLoad" xlink:show="other" /></defs></svg>
