<?xml version="1.0" encoding="UTF-8"?>
<svg xmlns="http://www.w3.org/2000/svg" style="stroke-dasharray:none; shape-rendering:auto; font-family:'Arial'; text-rendering:auto; fill-opacity:1; color-interpolation:auto; color-rendering:auto; font-size:12; fill:black; stroke:black; image-rendering:auto; stroke-miterlimit:10; stroke-linecap:square; stroke-linejoin:miter; font-style:normal; stroke-width:1; stroke-dashoffset:0; font-weight:normal; stroke-opacity:1;" contentScriptType="text/ecmascript" preserveAspectRatio="xMidYMid meet" zoomAndPan="magnify" version="1.0" contentStyleType="text/css" xml:xlink="http://www.w3.org/1999/xlink" width="731" height="410"><rect x="31" y="37" width="700" height="371" ry="0" rx="0" style="stroke:#000000; fill:#FFFFFF" /><rect x="61" y="313" width="670" height="95" ry="0" rx="0" style="stroke:#000000; fill:#D6E0D0" /><g componentSequence="5"><text x="-360" y="67" transform="rotate(270)" text-anchor="middle" style="font-weight:bold;font-size:13px;stroke:none; fill:#434343"><tspan dy="14" x="-360">Entrega</tspan></text></g><rect x="61" y="221" width="670" height="92" ry="0" rx="0" style="stroke:#000000; fill:#D0DAAE" /><g componentSequence="4"><text x="-267" y="67" transform="rotate(270)" text-anchor="middle" style="font-weight:bold;font-size:13px;stroke:none; fill:#434343"><tspan dy="14" x="-267">Parecer</tspan></text></g><rect x="61" y="129" width="670" height="92" ry="0" rx="0" style="stroke:#000000; fill:#ADC9AC" /><g componentSequence="3"><text x="-175" y="67" transform="rotate(270)" text-anchor="middle" style="font-weight:bold;font-size:13px;stroke:none; fill:#434343"><tspan dy="14" x="-175">Justificar</tspan></text></g><rect x="61" y="37" width="670" height="92" ry="0" rx="0" style="stroke:#000000; fill:#82B0B7" /><g componentSequence="2"><text x="-83" y="67" transform="rotate(270)" text-anchor="middle" style="font-weight:bold;font-size:13px;stroke:none; fill:#434343"><tspan dy="14" x="-83">Aprovação</tspan></text></g><g componentSequence="1"><text x="-222" y="37" transform="rotate(270)" text-anchor="middle" style="font-weight:bold;font-size:13px;stroke:none; fill:#434343"><tspan dy="14" x="-222">Pedido de Compra</tspan></text></g><g sequence="4"><ellipse cx="119" cy="85" rx="17" ry="17" stroke-width="1" style="fill:url(#linearGradient66FF6696FF96B6FFB6_949292418);" stroke="336633" /></g><g sequence="5"><rect x="190" y="59" width="106" height="53" ry="5" rx="5" style="fill:url(#linearGradientF8FBFEEDF5FCDEEDFAD4E7F8E2E5E9_911402208);" stroke="191970" /></g><g componentSequence="5"><text x="243" y="74" text-anchor="middle" style="font-weight:bold;font-size:13px;stroke:none; fill:#333399"><tspan dy="14" x="243">Aprovar</tspan></text></g><g sequence="13"><polygon points=" 320 77 350 47 380 77 350 107 320 77" style="fill:url(#linearGradientFAFBFCFFFFCC_846030578);" stroke="000000" /></g><g componentSequence="13"><text x="350" y="108" text-anchor="middle" style="font-weight:bold;font-size:13px;stroke:none; fill:#333399"><tspan dy="14" x="350">Aprov?</tspan></text></g><g sequence="15"><rect x="190" y="155" width="106" height="53" ry="5" rx="5" style="fill:url(#linearGradientF8FBFEEDF5FCDEEDFAD4E7F8E2E5E9_2003824347);" stroke="191970" /></g><g componentSequence="15"><text x="243" y="170" text-anchor="middle" style="font-weight:bold;font-size:13px;stroke:none; fill:#333399"><tspan dy="14" x="243">Justificar</tspan></text></g><g sequence="17"><ellipse cx="447" cy="89" rx="17" ry="17" stroke-width="3" style="fill:url(#linearGradientFF6666FF9696FFB6B6_1736836265);" stroke="993333" /></g><g sequence="19"><rect x="190" y="329" width="106" height="65" ry="5" rx="5" style="fill:url(#linearGradientF8FBFEEDF5FCDEEDFAD4E7F8E2E5E9_1179818333);" stroke="191970" /></g><g componentSequence="19"><text x="243" y="344" text-anchor="middle" style="font-weight:bold;font-size:13px;stroke:none; fill:#333399"><tspan dy="14" x="243">Aguardar</tspan><tspan dy="14" x="243">Produto</tspan></text></g><g sequence="21"><rect x="390" y="329" width="106" height="65" ry="5" rx="5" style="fill:url(#linearGradientF8FBFEEDF5FCDEEDFAD4E7F8E2E5E9_525413779);" stroke="191970" /></g><g componentSequence="21"><text x="443" y="344" text-anchor="middle" style="font-weight:bold;font-size:13px;stroke:none; fill:#333399"><tspan dy="14" x="443">Produto</tspan><tspan dy="14" x="443">Disponível</tspan></text></g><g sequence="26"><ellipse cx="677" cy="361" rx="17" ry="17" stroke-width="3" style="fill:url(#linearGradientFF6666FF9696FFB6B6_390074772);" stroke="993333" /></g><g sequence="35"><rect x="190" y="241" width="106" height="53" ry="5" rx="5" style="fill:url(#linearGradientF8FBFEEDF5FCDEEDFAD4E7F8E2E5E9_1085598873);" stroke="191970" /></g><g componentSequence="35"><text x="243" y="256" text-anchor="middle" style="font-weight:bold;font-size:13px;stroke:none; fill:#333399"><tspan dy="14" x="243">Parecer</tspan></text></g><g sequence="38"><polygon points=" 560 343 590 313 620 343 590 373 560 343" style="fill:url(#linearGradientFAFBFCFFFFCC_310255011);" stroke="000000" /></g><g componentSequence="38"><text x="590" y="383" text-anchor="middle" style="font-weight:bold;font-size:13px;stroke:none; fill:#333399"><tspan dy="14" x="590">Entrega</tspan><tspan dy="14" x="590">Parcial?</tspan></text></g><g componentSequence="39"><text x="173" y="85" style="font-size:10px;font-weight:none;stroke:none; fill:#333399" text-anchor="left" /></g><g componentSequence="44"><text x="318" y="88" style="font-size:10px;font-weight:none;stroke:none; fill:#333399" text-anchor="left" /></g><g componentSequence="45"><text x="415" y="89" style="font-size:10px;font-weight:none;stroke:none; fill:#333399" text-anchor="left" /></g><g componentSequence="47"><text x="358" y="181" style="font-size:10px;font-weight:none;stroke:none; fill:#333399" text-anchor="left" /></g><g componentSequence="50"><text x="358" y="224" style="font-size:10px;font-weight:none;stroke:none; fill:#333399" text-anchor="left" /></g><g componentSequence="51"><text x="165" y="174" style="font-size:10px;font-weight:none;stroke:none; fill:#333399" text-anchor="left" /></g><g componentSequence="52"><text x="358" y="272" style="font-size:10px;font-weight:none;stroke:none; fill:#333399" text-anchor="left" /></g><g componentSequence="53"><text x="353" y="361" style="font-size:10px;font-weight:none;stroke:none; fill:#333399" text-anchor="left" /></g><g componentSequence="54"><text x="650" y="361" style="font-size:10px;font-weight:none;stroke:none; fill:#333399" text-anchor="left" /></g><g componentSequence="55"><text x="538" y="361" style="font-size:10px;font-weight:none;stroke:none; fill:#333399" text-anchor="left" /></g><g componentSequence="56"><text x="405" y="308" style="font-size:10px;font-weight:none;stroke:none; fill:#333399" text-anchor="left" /></g><g componentSequence="57"><text x="253" y="133" style="font-size:10px;font-weight:none;stroke:none; fill:#333399" text-anchor="left" /></g><path style="fill:none; stroke:#000000;stroke-width:1" d="M137.0 85.0 L189.0 85.0" /><polygon style="fill:#000000; stroke:#000000;" points=" 179 80 189 85 179 90 181 85" /><path style="fill:none; stroke:#000000;stroke-width:1" d="M296.0 87.0 L319.0 88.0" /><polygon style="fill:#000000; stroke:#000000;" points=" 309 83 319 88 309 93 311 88" /><path style="fill:none; stroke:#000000;stroke-width:1" d="M189.0 263.0 L155.0 261.0 L156.0 85.0 L189.0 85.0" /><polygon style="fill:#000000; stroke:#000000;" points=" 179 80 189 85 179 90 181 85" /><path style="fill:none; stroke:#000000;stroke-width:1" d="M243.0 154.0 L243.0 112.0" /><polygon style="fill:#000000; stroke:#000000;" points=" 238 122 243 112 248 122 243 120" /><path style="fill:none; stroke:#000000;stroke-width:1" d="M380.0 89.0 L429.0 89.0" /><polygon style="fill:#000000; stroke:#000000;" points=" 419 84 429 89 419 94 421 89" /><path style="fill:none; stroke:#000000;stroke-width:1" d="M350.0 132.0 L350.0 181.0 L296.0 181.0" /><polygon style="fill:#000000; stroke:#000000;" points=" 306 186 296 181 306 176 304 181" /><path style="fill:none; stroke:#000000;stroke-width:1" d="M349.0 132.0 L347.0 265.0 L296.0 266.0" /><polygon style="fill:#000000; stroke:#000000;" points=" 306 271 296 266 306 261 304 266" /><path style="fill:none; stroke:#000000;stroke-width:1" d="M349.0 132.0 L347.0 361.0 L296.0 361.0" /><polygon style="fill:#000000; stroke:#000000;" points=" 306 366 296 361 306 356 304 361" /><path style="fill:none; stroke:#000000;stroke-width:1" d="M296.0 361.0 L389.0 361.0" /><polygon style="fill:#000000; stroke:#000000;" points=" 379 356 389 361 379 366 381 361" /><path style="fill:none; stroke:#000000;stroke-width:1" d="M559.0 339.0 L515.0 308.0 L242.0 308.0 L242.0 328.0" /><polygon style="fill:#000000; stroke:#000000;" points=" 247 318 242 328 237 318 242 320" /><path style="fill:none; stroke:#000000;stroke-width:1" d="M496.0 361.0 L559.0 361.0" /><polygon style="fill:#000000; stroke:#000000;" points=" 549 356 559 361 549 366 551 361" /><path style="fill:none; stroke:#000000;stroke-width:1" d="M620.0 361.0 L659.0 361.0" /><polygon style="fill:#000000; stroke:#000000;" points=" 649 356 659 361 649 366 651 361" /><defs><linearGradient xmlns:xlink="http://www.w3.org/1999/xlink" xlink:href="#linearGradient66FF6696FF96B6FFB6" id="linearGradient66FF6696FF96B6FFB6_949292418" x1="0" y1="68.0" x2="0" y2="103.0" gradientUnits="userSpaceOnUse" xlink:type="simple" xlink:actuate="onLoad" xlink:show="other" /><linearGradient id="linearGradient66FF6696FF96B6FFB6"><stop style="stop-color:#66FF66;stop-opacity:1;" offset="0.0" id="stop66FF66" /><stop style="stop-color:#96FF96;stop-opacity:1;" offset="0.5" id="stop96FF96" /><stop style="stop-color:#B6FFB6;stop-opacity:1;" offset="1.0" id="stopB6FFB6" /></linearGradient><linearGradient xmlns:xlink="http://www.w3.org/1999/xlink" xlink:href="#linearGradientF8FBFEEDF5FCDEEDFAD4E7F8E2E5E9" id="linearGradientF8FBFEEDF5FCDEEDFAD4E7F8E2E5E9_911402208" x1="0" y1="59.0" x2="0" y2="165.0" gradientUnits="userSpaceOnUse" xlink:type="simple" xlink:actuate="onLoad" xlink:show="other" /><linearGradient id="linearGradientF8FBFEEDF5FCDEEDFAD4E7F8E2E5E9"><stop style="stop-color:#F8FBFE;stop-opacity:1;" offset="0.0" id="stopF8FBFE" /><stop style="stop-color:#EDF5FC;stop-opacity:1;" offset="0.25" id="stopEDF5FC" /><stop style="stop-color:#DEEDFA;stop-opacity:1;" offset="0.5" id="stopDEEDFA" /><stop style="stop-color:#D4E7F8;stop-opacity:1;" offset="0.75" id="stopD4E7F8" /><stop style="stop-color:#E2E5E9;stop-opacity:1;" offset="1.0" id="stopE2E5E9" /></linearGradient><linearGradient xmlns:xlink="http://www.w3.org/1999/xlink" xlink:href="#linearGradientFAFBFCFFFFCC" id="linearGradientFAFBFCFFFFCC_846030578" x1="0" y1="47.0" x2="0" y2="107.0" gradientUnits="userSpaceOnUse" xlink:type="simple" xlink:actuate="onLoad" xlink:show="other" /><linearGradient id="linearGradientFAFBFCFFFFCC"><stop style="stop-color:#FAFBFC;stop-opacity:1;" offset="0.0" id="stopFAFBFC" /><stop style="stop-color:#FFFFCC;stop-opacity:1;" offset="1.0" id="stopFFFFCC" /></linearGradient><linearGradient xmlns:xlink="http://www.w3.org/1999/xlink" xlink:href="#linearGradientF8FBFEEDF5FCDEEDFAD4E7F8E2E5E9" id="linearGradientF8FBFEEDF5FCDEEDFAD4E7F8E2E5E9_2003824347" x1="0" y1="155.0" x2="0" y2="261.0" gradientUnits="userSpaceOnUse" xlink:type="simple" xlink:actuate="onLoad" xlink:show="other" /><linearGradient xmlns:xlink="http://www.w3.org/1999/xlink" xlink:href="#linearGradientFF6666FF9696FFB6B6" id="linearGradientFF6666FF9696FFB6B6_1736836265" x1="0" y1="72.0" x2="0" y2="107.0" gradientUnits="userSpaceOnUse" xlink:type="simple" xlink:actuate="onLoad" xlink:show="other" /><linearGradient id="linearGradientFF6666FF9696FFB6B6"><stop style="stop-color:#FF6666;stop-opacity:1;" offset="0.0" id="stopFF6666" /><stop style="stop-color:#FF9696;stop-opacity:1;" offset="0.5" id="stopFF9696" /><stop style="stop-color:#FFB6B6;stop-opacity:1;" offset="1.0" id="stopFFB6B6" /></linearGradient><linearGradient xmlns:xlink="http://www.w3.org/1999/xlink" xlink:href="#linearGradientF8FBFEEDF5FCDEEDFAD4E7F8E2E5E9" id="linearGradientF8FBFEEDF5FCDEEDFAD4E7F8E2E5E9_1179818333" x1="0" y1="329.0" x2="0" y2="435.0" gradientUnits="userSpaceOnUse" xlink:type="simple" xlink:actuate="onLoad" xlink:show="other" /><linearGradient xmlns:xlink="http://www.w3.org/1999/xlink" xlink:href="#linearGradientF8FBFEEDF5FCDEEDFAD4E7F8E2E5E9" id="linearGradientF8FBFEEDF5FCDEEDFAD4E7F8E2E5E9_525413779" x1="0" y1="329.0" x2="0" y2="435.0" gradientUnits="userSpaceOnUse" xlink:type="simple" xlink:actuate="onLoad" xlink:show="other" /><linearGradient xmlns:xlink="http://www.w3.org/1999/xlink" xlink:href="#linearGradientFF6666FF9696FFB6B6" id="linearGradientFF6666FF9696FFB6B6_390074772" x1="0" y1="344.0" x2="0" y2="379.0" gradientUnits="userSpaceOnUse" xlink:type="simple" xlink:actuate="onLoad" xlink:show="other" /><linearGradient xmlns:xlink="http://www.w3.org/1999/xlink" xlink:href="#linearGradientF8FBFEEDF5FCDEEDFAD4E7F8E2E5E9" id="linearGradientF8FBFEEDF5FCDEEDFAD4E7F8E2E5E9_1085598873" x1="0" y1="241.0" x2="0" y2="347.0" gradientUnits="userSpaceOnUse" xlink:type="simple" xlink:actuate="onLoad" xlink:show="other" /><linearGradient xmlns:xlink="http://www.w3.org/1999/xlink" xlink:href="#linearGradientFAFBFCFFFFCC" id="linearGradientFAFBFCFFFFCC_310255011" x1="0" y1="313.0" x2="0" y2="373.0" gradientUnits="userSpaceOnUse" xlink:type="simple" xlink:actuate="onLoad" xlink:show="other" /></defs></svg>
