<?xml version="1.0" encoding="UTF-8"?>
<svg xmlns="http://www.w3.org/2000/svg" style="stroke-dasharray:none; shape-rendering:auto; font-family:'Arial'; text-rendering:auto; fill-opacity:1; color-interpolation:auto; color-rendering:auto; font-size:12; fill:black; stroke:black; image-rendering:auto; stroke-miterlimit:10; stroke-linecap:square; stroke-linejoin:miter; font-style:normal; stroke-width:1; stroke-dashoffset:0; font-weight:normal; stroke-opacity:1;" contentScriptType="text/ecmascript" preserveAspectRatio="xMidYMid meet" zoomAndPan="magnify" version="1.0" contentStyleType="text/css" xml:xlink="http://www.w3.org/1999/xlink" width="1391" height="1190"><rect x="10" y="10" width="1381" height="1180" ry="0" rx="0" style="stroke:#000000; fill:#FFFFFF" /><rect x="40" y="990" width="1351" height="200" ry="0" rx="0" style="stroke:#000000; fill:#ECF5FF" /><g componentSequence="59"><text x="-1090" y="47" transform="rotate(270)" text-anchor="middle" style="font-weight:bold;font-size:10px;stroke:none; fill:#434343"><tspan dy="14" x="-1090">Presidência</tspan></text></g><rect x="40" y="794" width="1351" height="196" ry="0" rx="0" style="stroke:#000000; fill:#EAFFEA" /><g componentSequence="7"><text x="-892" y="47" transform="rotate(270)" text-anchor="middle" style="font-weight:bold;font-size:10px;stroke:none; fill:#434343"><tspan dy="14" x="-892">Reitoria</tspan></text></g><rect x="40" y="402" width="1351" height="196" ry="0" rx="0" style="stroke:#000000; fill:#E6FFE6" /><g componentSequence="6"><text x="-500" y="47" transform="rotate(270)" text-anchor="middle" style="font-weight:bold;font-size:10px;stroke:none; fill:#434343"><tspan dy="14" x="-500">Diretoria Administrativa</tspan></text></g><rect x="40" y="206" width="1351" height="196" ry="0" rx="0" style="stroke:#000000; fill:#EAF4FF" /><g componentSequence="5"><text x="-304" y="47" transform="rotate(270)" text-anchor="middle" style="font-weight:bold;font-size:10px;stroke:none; fill:#434343"><tspan dy="14" x="-304">Diretoria de Departamento</tspan></text></g><rect x="40" y="598" width="1351" height="196" ry="0" rx="0" style="stroke:#000000; fill:#ECF5FF" /><g componentSequence="3"><text x="-696" y="47" transform="rotate(270)" text-anchor="middle" style="font-weight:bold;font-size:10px;stroke:none; fill:#434343"><tspan dy="14" x="-696">Diretoria Financeira</tspan></text></g><rect x="40" y="10" width="1351" height="196" ry="0" rx="0" style="stroke:#000000; fill:#ECFFEC" /><g componentSequence="2"><text x="-108" y="47" transform="rotate(270)" text-anchor="middle" style="font-weight:bold;font-size:10px;stroke:none; fill:#434343"><tspan dy="14" x="-108">Secretária/o</tspan></text></g><g componentSequence="1"><text x="-600" y="17" transform="rotate(270)" text-anchor="middle" style="font-weight:bold;font-size:10px;stroke:none; fill:#434343"><tspan dy="14" x="-600">PROC003 - Comunicação Interna</tspan></text></g><g sequence="4"><ellipse cx="142" cy="37" rx="17" ry="17" stroke-width="1" style="fill:url(#linearGradient66FF6696FF96B6FFB6_253245038);" stroke="336633" /></g><g sequence="13"><rect x="90" y="249" width="106" height="56" ry="5" rx="5" style="fill:url(#linearGradientF8FBFEEDF5FCDEEDFAD4E7F8E2E5E9_31443453);" stroke="191970" /></g><g componentSequence="13"><text x="143" y="266" text-anchor="middle" style="font-weight:bold;font-size:10px;stroke:none; fill:#333399"><tspan dy="14" x="143">Aprovar Texto</tspan></text></g><g sequence="15"><polygon points=" 300 256 330 226 360 256 330 286 300 256" style="fill:url(#linearGradientFAFBFCFFFFCC_98589982);" stroke="000000" /></g><g componentSequence="15"><text x="330" y="296" text-anchor="middle" style="font-weight:bold;font-size:10px;stroke:none; fill:#333399"><tspan dy="14" x="330">Texto</tspan><tspan dy="14" x="330">correto?</tspan></text></g><g sequence="17"><rect x="340" y="108" width="106" height="56" ry="5" rx="5" style="fill:url(#linearGradientF8FBFEEDF5FCDEEDFAD4E7F8E2E5E9_1088603078);" stroke="191970" /></g><g componentSequence="17"><text x="393" y="125" text-anchor="middle" style="font-weight:bold;font-size:10px;stroke:none; fill:#333399"><tspan dy="14" x="393">Corrigir Texto</tspan></text></g><g sequence="20"><rect x="1210" y="435" width="106" height="84" ry="5" rx="5" style="fill:url(#linearGradientF8FBFEEDF5FCDEEDFAD4E7F8E2E5E9_243742450);" stroke="191970" /></g><g componentSequence="20"><text x="1263" y="450" text-anchor="middle" style="font-weight:bold;font-size:10px;stroke:none; fill:#333399"><tspan dy="14" x="1263">Análise Diretoria</tspan><tspan dy="14" x="1263">Administrativa</tspan></text></g><g sequence="22"><polygon points=" 1080 449 1110 419 1140 449 1110 479 1080 449" style="fill:url(#linearGradientFAFBFCFFFFCC_1902675710);" stroke="000000" /></g><g componentSequence="22"><text x="1110" y="489" text-anchor="middle" style="font-weight:bold;font-size:10px;stroke:none; fill:#333399"><tspan dy="14" x="1110">Encamin</tspan><tspan dy="14" x="1110">har /</tspan><tspan dy="14" x="1110">Parecer</tspan></text></g><g sequence="31"><rect x="827" y="1000" width="106" height="70" ry="5" rx="5" style="fill:url(#linearGradientF8FBFEEDF5FCDEEDFAD4E7F8E2E5E9_1994861920);" stroke="191970" /></g><g componentSequence="31"><text x="880" y="1015" text-anchor="middle" style="font-weight:bold;font-size:10px;stroke:none; fill:#333399"><tspan dy="14" x="880">Análise</tspan><tspan dy="14" x="880">Presidência</tspan></text></g><g sequence="33"><polygon points=" 850 1130 880 1100 910 1130 880 1160 850 1130" style="fill:url(#linearGradientFAFBFCFFFFCC_550321289);" stroke="000000" /></g><g componentSequence="33"><text x="880" y="1163" text-anchor="middle" style="font-weight:bold;font-size:10px;stroke:none; fill:#333399"><tspan dy="14" x="880">Parecer</tspan></text></g><g sequence="36"><ellipse cx="1017" cy="1092" rx="17" ry="17" stroke-width="3" style="fill:url(#linearGradientFF6666FF9696FFB6B6_399158980);" stroke="993333" /></g><g sequence="38"><polygon points=" 112 120 142 90 172 120 142 150 112 120" style="fill:url(#linearGradientFAFBFCFFFFCC_580945333);" stroke="000000" /></g><g componentSequence="38"><text x="142" y="160" text-anchor="middle" style="font-weight:bold;font-size:10px;stroke:none; fill:#333399"><tspan dy="14" x="142">Rascunh</tspan><tspan dy="14" x="142">o?</tspan></text></g><g sequence="44"><rect x="770" y="656" width="106" height="84" ry="5" rx="5" style="fill:url(#linearGradientF8FBFEEDF5FCDEEDFAD4E7F8E2E5E9_1843601580);" stroke="191970" /></g><g componentSequence="44"><text x="823" y="671" text-anchor="middle" style="font-weight:bold;font-size:10px;stroke:none; fill:#333399"><tspan dy="14" x="823">Análise Diretoria</tspan><tspan dy="14" x="823">Financeira</tspan></text></g><g sequence="46"><rect x="280" y="840" width="106" height="70" ry="5" rx="5" style="fill:url(#linearGradientF8FBFEEDF5FCDEEDFAD4E7F8E2E5E9_612589805);" stroke="191970" /></g><g componentSequence="46"><text x="333" y="864" text-anchor="middle" style="font-weight:bold;font-size:10px;stroke:none; fill:#333399"><tspan dy="14" x="333">Análise Reitoria</tspan></text></g><g sequence="51"><polygon points=" 660 677 690 647 720 677 690 707 660 677" style="fill:url(#linearGradientFAFBFCFFFFCC_1719486007);" stroke="000000" /></g><g componentSequence="51"><text x="690" y="717" text-anchor="middle" style="font-weight:bold;font-size:10px;stroke:none; fill:#333399"><tspan dy="14" x="690">Encamin</tspan><tspan dy="14" x="690">har /</tspan><tspan dy="14" x="690">Parecer</tspan></text></g><g sequence="61"><polygon points=" 450 854 480 824 510 854 480 884 450 854" style="fill:url(#linearGradientFAFBFCFFFFCC_1087830624);" stroke="000000" /></g><g componentSequence="61"><text x="480" y="894" text-anchor="middle" style="font-weight:bold;font-size:10px;stroke:none; fill:#333399"><tspan dy="14" x="480">Encamin</tspan><tspan dy="14" x="480">har /</tspan><tspan dy="14" x="480">Parecer</tspan></text></g><g sequence="70"><ellipse cx="587" cy="697" rx="17" ry="17" stroke-width="3" style="fill:url(#linearGradientFF6666FF9696FFB6B6_885277846);" stroke="993333" /></g><g sequence="73"><ellipse cx="1007" cy="557" rx="17" ry="17" stroke-width="3" style="fill:url(#linearGradientFF6666FF9696FFB6B6_201314027);" stroke="993333" /></g><g sequence="76"><ellipse cx="597" cy="876" rx="17" ry="17" stroke-width="3" style="fill:url(#linearGradientFF6666FF9696FFB6B6_129985885);" stroke="993333" /></g><g componentSequence="18"><text x="402" y="228" style="font-size:10px;font-weight:none;stroke:none; fill:#333399" text-anchor="left" /></g><g componentSequence="23"><text x="1185" y="477" style="font-size:10px;font-weight:none;stroke:none; fill:#333399" text-anchor="left" /></g><g componentSequence="34"><text x="890" y="1085" style="font-size:10px;font-weight:none;stroke:none; fill:#333399" text-anchor="left" /></g><g componentSequence="37"><text x="960" y="1092" style="font-size:10px;font-weight:none;stroke:none; fill:#333399" text-anchor="left" /></g><g componentSequence="39"><text x="152" y="72" style="font-size:10px;font-weight:none;stroke:none; fill:#333399" text-anchor="left" /></g><g componentSequence="45"><text x="707" y="376" style="font-size:10px;font-weight:none;stroke:none; fill:#333399" text-anchor="left" /></g><g componentSequence="47"><text x="341" y="584" style="font-size:10px;font-weight:none;stroke:none; fill:#333399" text-anchor="left" /></g><g componentSequence="52"><text x="755" y="702" style="font-size:10px;font-weight:none;stroke:none; fill:#333399" text-anchor="left" /></g><g componentSequence="62"><text x="428" y="879" style="font-size:10px;font-weight:none;stroke:none; fill:#333399" text-anchor="left" /></g><g componentSequence="71"><text x="642" y="700" style="font-size:10px;font-weight:none;stroke:none; fill:#333399" text-anchor="left" /></g><g componentSequence="74"><text x="1035" y="497" style="font-size:10px;font-weight:none;stroke:none; fill:#333399" text-anchor="left" /></g><g componentSequence="77"><text x="554" y="876" style="font-size:10px;font-weight:none;stroke:none; fill:#333399" text-anchor="left" /></g><g componentSequence="79"><text x="152" y="220" style="font-size:10px;font-weight:none;stroke:none; fill:#333399" text-anchor="left" /></g><g componentSequence="80"><text x="836" y="361" style="font-size:10px;font-weight:none;stroke:none; fill:#333399" text-anchor="left" /></g><g componentSequence="81"><text x="1119" y="873" style="font-size:10px;font-weight:none;stroke:none; fill:#333399" text-anchor="left" /></g><g componentSequence="82"><text x="808" y="868" style="font-size:10px;font-weight:none;stroke:none; fill:#333399" text-anchor="left" /></g><g componentSequence="83"><text x="616" y="1034" style="font-size:10px;font-weight:none;stroke:none; fill:#333399" text-anchor="left" /></g><g componentSequence="84"><text x="484" y="1144" style="font-size:10px;font-weight:none;stroke:none; fill:#333399" text-anchor="left" /></g><g componentSequence="85"><text x="1272" y="1008" style="font-size:10px;font-weight:none;stroke:none; fill:#333399" text-anchor="left" /></g><g componentSequence="86"><text x="258" y="277" style="font-size:10px;font-weight:none;stroke:none; fill:#333399" text-anchor="left" /></g><g componentSequence="87"><text x="392" y="500" style="font-size:10px;font-weight:none;stroke:none; fill:#333399" text-anchor="left" /></g><g componentSequence="88"><text x="534" y="476" style="font-size:10px;font-weight:none;stroke:none; fill:#333399" text-anchor="left" /></g><g componentSequence="89"><text x="415" y="485" style="font-size:10px;font-weight:none;stroke:none; fill:#333399" text-anchor="left" /></g><g componentSequence="90"><text x="219" y="81" style="font-size:10px;font-weight:none;stroke:none; fill:#333399" text-anchor="left" /></g><g componentSequence="91"><text x="256" y="171" style="font-size:10px;font-weight:none;stroke:none; fill:#333399" text-anchor="left" /></g><g componentSequence="92"><text x="1261" y="913" style="font-size:10px;font-weight:none;stroke:none; fill:#333399" text-anchor="left" /></g><g componentSequence="93"><text x="648" y="764" style="font-size:10px;font-weight:none;stroke:none; fill:#333399" text-anchor="left" /></g><g componentSequence="94"><text x="979" y="780" style="font-size:10px;font-weight:none;stroke:none; fill:#333399" text-anchor="left" /></g><g componentSequence="95"><text x="1007" y="615" style="font-size:10px;font-weight:none;stroke:none; fill:#333399" text-anchor="left" /></g><g componentSequence="96"><text x="473" y="749" style="font-size:10px;font-weight:none;stroke:none; fill:#333399" text-anchor="left" /></g><g componentSequence="97"><text x="1063" y="681" style="font-size:10px;font-weight:none;stroke:none; fill:#333399" text-anchor="left" /></g><g componentSequence="98"><text x="891" y="952" style="font-size:10px;font-weight:none;stroke:none; fill:#333399" text-anchor="left" /></g><path style="fill:none; stroke:#000000;stroke-width:1" d="M142.0 55.0 L142.0 89.0" /><polygon style="fill:#000000; stroke:#000000;" points=" 147 79 142 89 137 79 142 81" /><path style="fill:none; stroke:#000000;stroke-width:1" d="M172.0 139.0 L210.0 137.0 L209.0 36.0 L159.0 37.0" /><polygon style="fill:#000000; stroke:#000000;" points=" 169 42 159 37 169 32 167 37" /><path style="fill:none; stroke:#000000;stroke-width:1" d="M196.0 277.0 L299.0 277.0" /><polygon style="fill:#000000; stroke:#000000;" points=" 289 272 299 277 289 282 291 277" /><path style="fill:none; stroke:#000000;stroke-width:1" d="M142.0 192.0 L142.0 248.0" /><polygon style="fill:#000000; stroke:#000000;" points=" 147 238 142 248 137 238 142 240" /><path style="fill:none; stroke:#000000;stroke-width:1" d="M479.0 823.0 L479.0 511.0 L140.0 472.0 L142.0 305.0" /><polygon style="fill:#000000; stroke:#000000;" points=" 137 315 142 305 147 315 142 313" /><path style="fill:none; stroke:#000000;stroke-width:1" d="M1079.0 476.0 L140.0 476.0 L142.0 305.0" /><polygon style="fill:#000000; stroke:#000000;" points=" 137 315 142 305 147 315 142 313" /><path style="fill:none; stroke:#000000;stroke-width:1" d="M689.0 646.0 L689.0 496.0 L140.0 474.0 L142.0 305.0" /><polygon style="fill:#000000; stroke:#000000;" points=" 137 315 142 305 147 315 142 313" /><path style="fill:none; stroke:#000000;stroke-width:1" d="M339.0 136.0 L281.0 136.0 L171.0 248.0" /><polygon style="fill:#000000; stroke:#000000;" points=" 182 244 171 248 174 237 177 242" /><path style="fill:none; stroke:#000000;stroke-width:1" d="M360.0 268.0 L392.0 260.0 L392.0 164.0" /><polygon style="fill:#000000; stroke:#000000;" points=" 387 174 392 164 397 174 392 172" /><path style="fill:none; stroke:#000000;stroke-width:1" d="M335.0 328.0 L341.0 376.0 L822.0 376.0 L822.0 655.0" /><polygon style="fill:#000000; stroke:#000000;" points=" 827 645 822 655 817 645 822 647" /><path style="fill:none; stroke:#000000;stroke-width:1" d="M330.0 328.0 L332.0 839.0" /><polygon style="fill:#000000; stroke:#000000;" points=" 337 829 332 839 327 829 332 831" /><path style="fill:none; stroke:#000000;stroke-width:1" d="M343.0 328.0 L351.0 361.0 L1262.0 361.0 L1262.0 434.0" /><polygon style="fill:#000000; stroke:#000000;" points=" 1267 424 1262 434 1257 424 1262 426" /><path style="fill:none; stroke:#000000;stroke-width:1" d="M1209.0 477.0 L1140.0 477.0" /><polygon style="fill:#000000; stroke:#000000;" points=" 1150 482 1140 477 1150 472 1148 477" /><path style="fill:none; stroke:#000000;stroke-width:1" d="M910.0 1144.0 L1262.0 1144.0 L1262.0 519.0" /><polygon style="fill:#000000; stroke:#000000;" points=" 1257 529 1262 519 1267 529 1262 527" /><path style="fill:none; stroke:#000000;stroke-width:1" d="M488.0 823.0 L495.0 780.0 L1224.0 780.0 L1257.0 519.0" /><polygon style="fill:#000000; stroke:#000000;" points=" 1251 528 1257 519 1261 530 1256 527" /><path style="fill:none; stroke:#000000;stroke-width:1" d="M695.0 646.0 L698.0 615.0 L1229.0 615.0 L1252.0 519.0" /><polygon style="fill:#000000; stroke:#000000;" points=" 1245 528 1252 519 1255 530 1250 527" /><path style="fill:none; stroke:#000000;stroke-width:1" d="M1079.0 484.0 L1007.0 501.0 L1007.0 539.0" /><polygon style="fill:#000000; stroke:#000000;" points=" 1012 529 1007 539 1002 529 1007 531" /><path style="fill:none; stroke:#000000;stroke-width:1" d="M1109.0 535.0 L1109.0 1034.0 L933.0 1034.0" /><polygon style="fill:#000000; stroke:#000000;" points=" 943 1039 933 1034 943 1029 941 1034" /><path style="fill:none; stroke:#000000;stroke-width:1" d="M1103.0 535.0 L1086.0 679.0 L876.0 694.0" /><polygon style="fill:#000000; stroke:#000000;" points=" 886 698 876 694 886 688 884 693" /><path style="fill:none; stroke:#000000;stroke-width:1" d="M1097.0 535.0 L1006.0 952.0 L379.0 952.0 L354.0 910.0" /><polygon style="fill:#000000; stroke:#000000;" points=" 355 921 354 910 363 916 358 917" /><path style="fill:none; stroke:#000000;stroke-width:1" d="M880.0 1070.0 L880.0 1099.0" /><polygon style="fill:#000000; stroke:#000000;" points=" 885 1089 880 1099 875 1089 880 1091" /><path style="fill:none; stroke:#000000;stroke-width:1" d="M689.0 763.0 L689.0 868.0 L880.0 868.0 L880.0 999.0" /><polygon style="fill:#000000; stroke:#000000;" points=" 885 989 880 999 875 989 880 991" /><path style="fill:none; stroke:#000000;stroke-width:1" d="M479.0 940.0 L479.0 1034.0 L826.0 1034.0" /><polygon style="fill:#000000; stroke:#000000;" points=" 816 1029 826 1034 816 1039 818 1034" /><path style="fill:none; stroke:#000000;stroke-width:1" d="M910.0 1120.0 L945.0 1092.0 L999.0 1092.0" /><polygon style="fill:#000000; stroke:#000000;" points=" 989 1087 999 1092 989 1097 991 1092" /><path style="fill:none; stroke:#000000;stroke-width:1" d="M849.0 1144.0 L332.0 1144.0 L332.0 910.0" /><polygon style="fill:#000000; stroke:#000000;" points=" 327 920 332 910 337 920 332 918" /><path style="fill:none; stroke:#000000;stroke-width:1" d="M910.0 1144.0 L1260.0 1144.0 L1242.0 697.0 L876.0 697.0" /><polygon style="fill:#000000; stroke:#000000;" points=" 886 702 876 697 886 692 884 697" /><path style="fill:none; stroke:#000000;stroke-width:1" d="M769.0 701.0 L720.0 703.0" /><polygon style="fill:#000000; stroke:#000000;" points=" 730 708 720 703 730 698 728 703" /><path style="fill:none; stroke:#000000;stroke-width:1" d="M485.0 823.0 L490.0 764.0 L822.0 764.0 L822.0 740.0" /><polygon style="fill:#000000; stroke:#000000;" points=" 817 750 822 740 827 750 822 748" /><path style="fill:none; stroke:#000000;stroke-width:1" d="M386.0 877.0 L449.0 880.0" /><polygon style="fill:#000000; stroke:#000000;" points=" 439 875 449 880 439 885 441 880" /><path style="fill:none; stroke:#000000;stroke-width:1" d="M659.0 726.0 L625.0 749.0 L352.0 749.0 L338.0 839.0" /><polygon style="fill:#000000; stroke:#000000;" points=" 344 830 338 839 335 828 339 831" /><path style="fill:none; stroke:#000000;stroke-width:1" d="M659.0 702.0 L604.0 698.0" /><polygon style="fill:#000000; stroke:#000000;" points=" 614 704 604 698 614 694 612 699" /><path style="fill:none; stroke:#000000;stroke-width:1" d="M510.0 879.0 L567.0 874.0 L580.0 875.0" /><polygon style="fill:#000000; stroke:#000000;" points=" 570 869 580 875 570 879 572 874" /><defs><linearGradient xmlns:xlink="http://www.w3.org/1999/xlink" xlink:href="#linearGradient66FF6696FF96B6FFB6" id="linearGradient66FF6696FF96B6FFB6_253245038" x1="0" y1="20.0" x2="0" y2="55.0" gradientUnits="userSpaceOnUse" xlink:type="simple" xlink:actuate="onLoad" xlink:show="other" /><linearGradient id="linearGradient66FF6696FF96B6FFB6"><stop style="stop-color:#66FF66;stop-opacity:1;" offset="0.0" id="stop66FF66" /><stop style="stop-color:#96FF96;stop-opacity:1;" offset="0.5" id="stop96FF96" /><stop style="stop-color:#B6FFB6;stop-opacity:1;" offset="1.0" id="stopB6FFB6" /></linearGradient><linearGradient xmlns:xlink="http://www.w3.org/1999/xlink" xlink:href="#linearGradientF8FBFEEDF5FCDEEDFAD4E7F8E2E5E9" id="linearGradientF8FBFEEDF5FCDEEDFAD4E7F8E2E5E9_31443453" x1="0" y1="249.0" x2="0" y2="355.0" gradientUnits="userSpaceOnUse" xlink:type="simple" xlink:actuate="onLoad" xlink:show="other" /><linearGradient id="linearGradientF8FBFEEDF5FCDEEDFAD4E7F8E2E5E9"><stop style="stop-color:#F8FBFE;stop-opacity:1;" offset="0.0" id="stopF8FBFE" /><stop style="stop-color:#EDF5FC;stop-opacity:1;" offset="0.25" id="stopEDF5FC" /><stop style="stop-color:#DEEDFA;stop-opacity:1;" offset="0.5" id="stopDEEDFA" /><stop style="stop-color:#D4E7F8;stop-opacity:1;" offset="0.75" id="stopD4E7F8" /><stop style="stop-color:#E2E5E9;stop-opacity:1;" offset="1.0" id="stopE2E5E9" /></linearGradient><linearGradient xmlns:xlink="http://www.w3.org/1999/xlink" xlink:href="#linearGradientFAFBFCFFFFCC" id="linearGradientFAFBFCFFFFCC_98589982" x1="0" y1="226.0" x2="0" y2="286.0" gradientUnits="userSpaceOnUse" xlink:type="simple" xlink:actuate="onLoad" xlink:show="other" /><linearGradient id="linearGradientFAFBFCFFFFCC"><stop style="stop-color:#FAFBFC;stop-opacity:1;" offset="0.0" id="stopFAFBFC" /><stop style="stop-color:#FFFFCC;stop-opacity:1;" offset="1.0" id="stopFFFFCC" /></linearGradient><linearGradient xmlns:xlink="http://www.w3.org/1999/xlink" xlink:href="#linearGradientF8FBFEEDF5FCDEEDFAD4E7F8E2E5E9" id="linearGradientF8FBFEEDF5FCDEEDFAD4E7F8E2E5E9_1088603078" x1="0" y1="108.0" x2="0" y2="214.0" gradientUnits="userSpaceOnUse" xlink:type="simple" xlink:actuate="onLoad" xlink:show="other" /><linearGradient xmlns:xlink="http://www.w3.org/1999/xlink" xlink:href="#linearGradientF8FBFEEDF5FCDEEDFAD4E7F8E2E5E9" id="linearGradientF8FBFEEDF5FCDEEDFAD4E7F8E2E5E9_243742450" x1="0" y1="435.0" x2="0" y2="541.0" gradientUnits="userSpaceOnUse" xlink:type="simple" xlink:actuate="onLoad" xlink:show="other" /><linearGradient xmlns:xlink="http://www.w3.org/1999/xlink" xlink:href="#linearGradientFAFBFCFFFFCC" id="linearGradientFAFBFCFFFFCC_1902675710" x1="0" y1="419.0" x2="0" y2="479.0" gradientUnits="userSpaceOnUse" xlink:type="simple" xlink:actuate="onLoad" xlink:show="other" /><linearGradient xmlns:xlink="http://www.w3.org/1999/xlink" xlink:href="#linearGradientF8FBFEEDF5FCDEEDFAD4E7F8E2E5E9" id="linearGradientF8FBFEEDF5FCDEEDFAD4E7F8E2E5E9_1994861920" x1="0" y1="1000.0" x2="0" y2="1106.0" gradientUnits="userSpaceOnUse" xlink:type="simple" xlink:actuate="onLoad" xlink:show="other" /><linearGradient xmlns:xlink="http://www.w3.org/1999/xlink" xlink:href="#linearGradientFAFBFCFFFFCC" id="linearGradientFAFBFCFFFFCC_550321289" x1="0" y1="1100.0" x2="0" y2="1160.0" gradientUnits="userSpaceOnUse" xlink:type="simple" xlink:actuate="onLoad" xlink:show="other" /><linearGradient xmlns:xlink="http://www.w3.org/1999/xlink" xlink:href="#linearGradientFF6666FF9696FFB6B6" id="linearGradientFF6666FF9696FFB6B6_399158980" x1="0" y1="1075.0" x2="0" y2="1110.0" gradientUnits="userSpaceOnUse" xlink:type="simple" xlink:actuate="onLoad" xlink:show="other" /><linearGradient id="linearGradientFF6666FF9696FFB6B6"><stop style="stop-color:#FF6666;stop-opacity:1;" offset="0.0" id="stopFF6666" /><stop style="stop-color:#FF9696;stop-opacity:1;" offset="0.5" id="stopFF9696" /><stop style="stop-color:#FFB6B6;stop-opacity:1;" offset="1.0" id="stopFFB6B6" /></linearGradient><linearGradient xmlns:xlink="http://www.w3.org/1999/xlink" xlink:href="#linearGradientFAFBFCFFFFCC" id="linearGradientFAFBFCFFFFCC_580945333" x1="0" y1="90.0" x2="0" y2="150.0" gradientUnits="userSpaceOnUse" xlink:type="simple" xlink:actuate="onLoad" xlink:show="other" /><linearGradient xmlns:xlink="http://www.w3.org/1999/xlink" xlink:href="#linearGradientF8FBFEEDF5FCDEEDFAD4E7F8E2E5E9" id="linearGradientF8FBFEEDF5FCDEEDFAD4E7F8E2E5E9_1843601580" x1="0" y1="656.0" x2="0" y2="762.0" gradientUnits="userSpaceOnUse" xlink:type="simple" xlink:actuate="onLoad" xlink:show="other" /><linearGradient xmlns:xlink="http://www.w3.org/1999/xlink" xlink:href="#linearGradientF8FBFEEDF5FCDEEDFAD4E7F8E2E5E9" id="linearGradientF8FBFEEDF5FCDEEDFAD4E7F8E2E5E9_612589805" x1="0" y1="840.0" x2="0" y2="946.0" gradientUnits="userSpaceOnUse" xlink:type="simple" xlink:actuate="onLoad" xlink:show="other" /><linearGradient xmlns:xlink="http://www.w3.org/1999/xlink" xlink:href="#linearGradientFAFBFCFFFFCC" id="linearGradientFAFBFCFFFFCC_1719486007" x1="0" y1="647.0" x2="0" y2="707.0" gradientUnits="userSpaceOnUse" xlink:type="simple" xlink:actuate="onLoad" xlink:show="other" /><linearGradient xmlns:xlink="http://www.w3.org/1999/xlink" xlink:href="#linearGradientFAFBFCFFFFCC" id="linearGradientFAFBFCFFFFCC_1087830624" x1="0" y1="824.0" x2="0" y2="884.0" gradientUnits="userSpaceOnUse" xlink:type="simple" xlink:actuate="onLoad" xlink:show="other" /><linearGradient xmlns:xlink="http://www.w3.org/1999/xlink" xlink:href="#linearGradientFF6666FF9696FFB6B6" id="linearGradientFF6666FF9696FFB6B6_885277846" x1="0" y1="680.0" x2="0" y2="715.0" gradientUnits="userSpaceOnUse" xlink:type="simple" xlink:actuate="onLoad" xlink:show="other" /><linearGradient xmlns:xlink="http://www.w3.org/1999/xlink" xlink:href="#linearGradientFF6666FF9696FFB6B6" id="linearGradientFF6666FF9696FFB6B6_201314027" x1="0" y1="540.0" x2="0" y2="575.0" gradientUnits="userSpaceOnUse" xlink:type="simple" xlink:actuate="onLoad" xlink:show="other" /><linearGradient xmlns:xlink="http://www.w3.org/1999/xlink" xlink:href="#linearGradientFF6666FF9696FFB6B6" id="linearGradientFF6666FF9696FFB6B6_129985885" x1="0" y1="859.0" x2="0" y2="894.0" gradientUnits="userSpaceOnUse" xlink:type="simple" xlink:actuate="onLoad" xlink:show="other" /></defs></svg>
