<?xml version="1.0" encoding="UTF-8"?>
<svg xmlns="http://www.w3.org/2000/svg" style="stroke-dasharray:none; shape-rendering:auto; font-family:'Arial'; text-rendering:auto; fill-opacity:1; color-interpolation:auto; color-rendering:auto; font-size:12; fill:black; stroke:black; image-rendering:auto; stroke-miterlimit:10; stroke-linecap:square; stroke-linejoin:miter; font-style:normal; stroke-width:1; stroke-dashoffset:0; font-weight:normal; stroke-opacity:1;" contentScriptType="text/ecmascript" preserveAspectRatio="xMidYMid meet" zoomAndPan="magnify" version="1.0" contentStyleType="text/css" xml:xlink="http://www.w3.org/1999/xlink" width="1071" height="601"><rect x="10" y="20" width="1061" height="581" ry="0" rx="0" style="stroke:#000000; fill:#FFFFFF" /><rect x="40" y="455" width="1031" height="146" ry="0" rx="0" style="stroke:#000000; fill:#D6E0D0" /><g componentSequence="5"><text x="-528" y="47" transform="rotate(270)" text-anchor="middle" style="font-weight:bold;font-size:10px;stroke:none; fill:#434343"><tspan dy="14" x="-528">SwimLane</tspan></text></g><rect x="40" y="310" width="1031" height="145" ry="0" rx="0" style="stroke:#000000; fill:#D0DAAE" /><g componentSequence="4"><text x="-382" y="47" transform="rotate(270)" text-anchor="middle" style="font-weight:bold;font-size:10px;stroke:none; fill:#434343"><tspan dy="14" x="-382">SwimLane</tspan></text></g><rect x="40" y="165" width="1031" height="145" ry="0" rx="0" style="stroke:#000000; fill:#ADC9AC" /><g componentSequence="3"><text x="-237" y="47" transform="rotate(270)" text-anchor="middle" style="font-weight:bold;font-size:10px;stroke:none; fill:#434343"><tspan dy="14" x="-237">SwimLane</tspan></text></g><rect x="40" y="20" width="1031" height="145" ry="0" rx="0" style="stroke:#000000; fill:#82B0B7" /><g componentSequence="2"><text x="-92" y="47" transform="rotate(270)" text-anchor="middle" style="font-weight:bold;font-size:10px;stroke:none; fill:#434343"><tspan dy="14" x="-92">SwimLane</tspan></text></g><g componentSequence="1"><text x="-310" y="17" transform="rotate(270)" text-anchor="middle" style="font-weight:bold;font-size:10px;stroke:none; fill:#434343"><tspan dy="14" x="-310">Pool</tspan></text></g><g sequence="1"><ellipse cx="172" cy="134" rx="17" ry="17" stroke-width="1" style="fill:url(#linearGradient66FF6696FF96B6FFB6_1949588775);" stroke="336633" /></g><g sequence="8"><rect x="120" y="211" width="106" height="56" ry="5" rx="5" style="fill:url(#linearGradientF8FBFEEDF5FCDEEDFAD4E7F8E2E5E9_2062794193);" stroke="191970" /></g><g componentSequence="8"><text x="173" y="228" text-anchor="middle" style="font-weight:bold;font-size:10px;stroke:none; fill:#333399"><tspan dy="14" x="173">Analisar</tspan></text></g><g sequence="10"><polygon points=" 290 218 320 188 350 218 320 248 290 218" style="fill:url(#linearGradientFAFBFCFFFFCC_2127312471);" stroke="000000" /></g><g componentSequence="10"><text x="320" y="258" text-anchor="middle" style="font-weight:bold;font-size:10px;stroke:none; fill:#333399"><tspan dy="14" x="320">Exclusiv</tspan><tspan dy="14" x="320">o</tspan></text></g><g sequence="12"><rect x="400" y="349" width="106" height="70" ry="5" rx="5" style="fill:url(#linearGradientF8FBFEEDF5FCDEEDFAD4E7F8E2E5E9_1003403242);" stroke="191970" /></g><g componentSequence="12"><text x="453" y="364" text-anchor="middle" style="font-weight:bold;font-size:10px;stroke:none; fill:#333399"><tspan dy="14" x="453">Executar</tspan><tspan dy="14" x="453">Manutenção</tspan></text></g><g sequence="14"><rect x="400" y="211" width="106" height="56" ry="5" rx="5" style="fill:url(#linearGradientF8FBFEEDF5FCDEEDFAD4E7F8E2E5E9_1833240785);" stroke="191970" /></g><g componentSequence="14"><text x="453" y="228" text-anchor="middle" style="font-weight:bold;font-size:10px;stroke:none; fill:#333399"><tspan dy="14" x="453">Executar TI</tspan></text></g><g sequence="16"><rect x="400" y="495" width="106" height="70" ry="5" rx="5" style="fill:url(#linearGradientF8FBFEEDF5FCDEEDFAD4E7F8E2E5E9_180301213);" stroke="191970" /></g><g componentSequence="16"><text x="453" y="510" text-anchor="middle" style="font-weight:bold;font-size:10px;stroke:none; fill:#333399"><tspan dy="14" x="453">Executar</tspan><tspan dy="14" x="453">Laboratório</tspan></text></g><g sequence="19"><rect x="598" y="95" width="106" height="56" ry="5" rx="5" style="fill:url(#linearGradientF8FBFEEDF5FCDEEDFAD4E7F8E2E5E9_366922771);" stroke="191970" /></g><g componentSequence="19"><text x="651" y="112" text-anchor="middle" style="font-weight:bold;font-size:10px;stroke:none; fill:#333399"><tspan dy="14" x="651">FeedBack</tspan></text></g><g sequence="23"><polygon points=" 800 218 830 188 860 218 830 248 800 218" style="fill:url(#linearGradientFAFBFCFFFFCC_1541490853);" stroke="000000" /></g><g componentSequence="23"><text x="830" y="258" text-anchor="middle" style="font-weight:bold;font-size:10px;stroke:none; fill:#333399"><tspan dy="14" x="830">Exclusiv</tspan><tspan dy="14" x="830">o</tspan></text></g><g sequence="29"><ellipse cx="967" cy="238" rx="17" ry="17" stroke-width="3" style="fill:url(#linearGradientFF6666FF9696FFB6B6_514314376);" stroke="993333" /></g><g componentSequence="9"><text x="182" y="181" style="font-size:10px;font-weight:none;stroke:none; fill:#333399" text-anchor="left" /></g><g componentSequence="11"><text x="268" y="239" style="font-size:10px;font-weight:none;stroke:none; fill:#333399" text-anchor="left" /></g><g componentSequence="13"><text x="330" y="377" style="font-size:10px;font-weight:none;stroke:none; fill:#333399" text-anchor="left" /></g><g componentSequence="15"><text x="385" y="239" style="font-size:10px;font-weight:none;stroke:none; fill:#333399" text-anchor="left" /></g><g componentSequence="17"><text x="329" y="450" style="font-size:10px;font-weight:none;stroke:none; fill:#333399" text-anchor="left" /></g><g componentSequence="20"><text x="633" y="239" style="font-size:10px;font-weight:none;stroke:none; fill:#333399" text-anchor="left" /></g><g componentSequence="21"><text x="660" y="340" style="font-size:10px;font-weight:none;stroke:none; fill:#333399" text-anchor="left" /></g><g componentSequence="22"><text x="660" y="413" style="font-size:10px;font-weight:none;stroke:none; fill:#333399" text-anchor="left" /></g><g componentSequence="24"><text x="808" y="124" style="font-size:10px;font-weight:none;stroke:none; fill:#333399" text-anchor="left" /></g><g componentSequence="25"><text x="643" y="304" style="font-size:10px;font-weight:none;stroke:none; fill:#333399" text-anchor="left" /></g><g componentSequence="26"><text x="717" y="442" style="font-size:10px;font-weight:none;stroke:none; fill:#333399" text-anchor="left" /></g><g componentSequence="27"><text x="786" y="593" style="font-size:10px;font-weight:none;stroke:none; fill:#333399" text-anchor="left" /></g><g componentSequence="28"><text x="290" y="134" style="font-size:10px;font-weight:none;stroke:none; fill:#333399" text-anchor="left" /></g><g componentSequence="30"><text x="915" y="238" style="font-size:10px;font-weight:none;stroke:none; fill:#333399" text-anchor="left" /></g><path style="fill:none; stroke:#000000;stroke-width:1" d="M172.0 151.0 L172.0 210.0" /><polygon style="fill:#000000; stroke:#000000;" points=" 177 200 172 210 167 200 172 202" /><path style="fill:none; stroke:#000000;stroke-width:1" d="M318.0 187.0 L316.0 134.0 L190.0 134.0" /><polygon style="fill:#000000; stroke:#000000;" points=" 200 139 190 134 200 129 198 134" /><path style="fill:none; stroke:#000000;stroke-width:1" d="M226.0 239.0 L289.0 239.0" /><polygon style="fill:#000000; stroke:#000000;" points=" 279 234 289 239 279 244 281 239" /><path style="fill:none; stroke:#000000;stroke-width:1" d="M320.0 290.0 L320.0 384.0 L399.0 384.0" /><polygon style="fill:#000000; stroke:#000000;" points=" 389 379 399 384 389 389 391 384" /><path style="fill:none; stroke:#000000;stroke-width:1" d="M350.0 239.0 L399.0 239.0" /><polygon style="fill:#000000; stroke:#000000;" points=" 389 234 399 239 389 244 391 239" /><path style="fill:none; stroke:#000000;stroke-width:1" d="M319.0 290.0 L319.0 530.0 L399.0 530.0" /><polygon style="fill:#000000; stroke:#000000;" points=" 389 525 399 530 389 535 391 530" /><path style="fill:none; stroke:#000000;stroke-width:1" d="M506.0 384.0 L650.0 384.0 L650.0 151.0" /><polygon style="fill:#000000; stroke:#000000;" points=" 645 161 650 151 655 161 650 159" /><path style="fill:none; stroke:#000000;stroke-width:1" d="M830.0 290.0 L832.0 442.0 L452.0 442.0 L452.0 419.0" /><polygon style="fill:#000000; stroke:#000000;" points=" 447 429 452 419 457 429 452 427" /><path style="fill:none; stroke:#000000;stroke-width:1" d="M506.0 239.0 L651.0 239.0 L651.0 151.0" /><polygon style="fill:#000000; stroke:#000000;" points=" 646 161 651 151 656 161 651 159" /><path style="fill:none; stroke:#000000;stroke-width:1" d="M833.0 290.0 L834.0 304.0 L455.0 304.0 L454.0 267.0" /><polygon style="fill:#000000; stroke:#000000;" points=" 449 277 454 267 459 277 454 275" /><path style="fill:none; stroke:#000000;stroke-width:1" d="M506.0 530.0 L650.0 530.0 L650.0 151.0" /><polygon style="fill:#000000; stroke:#000000;" points=" 645 161 650 151 655 161 650 159" /><path style="fill:none; stroke:#000000;stroke-width:1" d="M829.0 290.0 L828.0 437.0 L828.0 593.0 L449.0 593.0 L451.0 565.0" /><polygon style="fill:#000000; stroke:#000000;" points=" 445 575 451 565 455 575 450 573" /><path style="fill:none; stroke:#000000;stroke-width:1" d="M704.0 123.0 L829.0 124.0 L829.0 187.0" /><polygon style="fill:#000000; stroke:#000000;" points=" 834 177 829 187 824 177 829 179" /><path style="fill:none; stroke:#000000;stroke-width:1" d="M860.0 238.0 L950.0 238.0" /><polygon style="fill:#000000; stroke:#000000;" points=" 940 233 950 238 940 243 942 238" /><defs><linearGradient xmlns:xlink="http://www.w3.org/1999/xlink" xlink:href="#linearGradient66FF6696FF96B6FFB6" id="linearGradient66FF6696FF96B6FFB6_1949588775" x1="0" y1="117.0" x2="0" y2="152.0" gradientUnits="userSpaceOnUse" xlink:type="simple" xlink:actuate="onLoad" xlink:show="other" /><linearGradient id="linearGradient66FF6696FF96B6FFB6"><stop style="stop-color:#66FF66;stop-opacity:1;" offset="0.0" id="stop66FF66" /><stop style="stop-color:#96FF96;stop-opacity:1;" offset="0.5" id="stop96FF96" /><stop style="stop-color:#B6FFB6;stop-opacity:1;" offset="1.0" id="stopB6FFB6" /></linearGradient><linearGradient xmlns:xlink="http://www.w3.org/1999/xlink" xlink:href="#linearGradientF8FBFEEDF5FCDEEDFAD4E7F8E2E5E9" id="linearGradientF8FBFEEDF5FCDEEDFAD4E7F8E2E5E9_2062794193" x1="0" y1="211.0" x2="0" y2="317.0" gradientUnits="userSpaceOnUse" xlink:type="simple" xlink:actuate="onLoad" xlink:show="other" /><linearGradient id="linearGradientF8FBFEEDF5FCDEEDFAD4E7F8E2E5E9"><stop style="stop-color:#F8FBFE;stop-opacity:1;" offset="0.0" id="stopF8FBFE" /><stop style="stop-color:#EDF5FC;stop-opacity:1;" offset="0.25" id="stopEDF5FC" /><stop style="stop-color:#DEEDFA;stop-opacity:1;" offset="0.5" id="stopDEEDFA" /><stop style="stop-color:#D4E7F8;stop-opacity:1;" offset="0.75" id="stopD4E7F8" /><stop style="stop-color:#E2E5E9;stop-opacity:1;" offset="1.0" id="stopE2E5E9" /></linearGradient><linearGradient xmlns:xlink="http://www.w3.org/1999/xlink" xlink:href="#linearGradientFAFBFCFFFFCC" id="linearGradientFAFBFCFFFFCC_2127312471" x1="0" y1="188.0" x2="0" y2="248.0" gradientUnits="userSpaceOnUse" xlink:type="simple" xlink:actuate="onLoad" xlink:show="other" /><linearGradient id="linearGradientFAFBFCFFFFCC"><stop style="stop-color:#FAFBFC;stop-opacity:1;" offset="0.0" id="stopFAFBFC" /><stop style="stop-color:#FFFFCC;stop-opacity:1;" offset="1.0" id="stopFFFFCC" /></linearGradient><linearGradient xmlns:xlink="http://www.w3.org/1999/xlink" xlink:href="#linearGradientF8FBFEEDF5FCDEEDFAD4E7F8E2E5E9" id="linearGradientF8FBFEEDF5FCDEEDFAD4E7F8E2E5E9_1003403242" x1="0" y1="349.0" x2="0" y2="455.0" gradientUnits="userSpaceOnUse" xlink:type="simple" xlink:actuate="onLoad" xlink:show="other" /><linearGradient xmlns:xlink="http://www.w3.org/1999/xlink" xlink:href="#linearGradientF8FBFEEDF5FCDEEDFAD4E7F8E2E5E9" id="linearGradientF8FBFEEDF5FCDEEDFAD4E7F8E2E5E9_1833240785" x1="0" y1="211.0" x2="0" y2="317.0" gradientUnits="userSpaceOnUse" xlink:type="simple" xlink:actuate="onLoad" xlink:show="other" /><linearGradient xmlns:xlink="http://www.w3.org/1999/xlink" xlink:href="#linearGradientF8FBFEEDF5FCDEEDFAD4E7F8E2E5E9" id="linearGradientF8FBFEEDF5FCDEEDFAD4E7F8E2E5E9_180301213" x1="0" y1="495.0" x2="0" y2="601.0" gradientUnits="userSpaceOnUse" xlink:type="simple" xlink:actuate="onLoad" xlink:show="other" /><linearGradient xmlns:xlink="http://www.w3.org/1999/xlink" xlink:href="#linearGradientF8FBFEEDF5FCDEEDFAD4E7F8E2E5E9" id="linearGradientF8FBFEEDF5FCDEEDFAD4E7F8E2E5E9_366922771" x1="0" y1="95.0" x2="0" y2="201.0" gradientUnits="userSpaceOnUse" xlink:type="simple" xlink:actuate="onLoad" xlink:show="other" /><linearGradient xmlns:xlink="http://www.w3.org/1999/xlink" xlink:href="#linearGradientFAFBFCFFFFCC" id="linearGradientFAFBFCFFFFCC_1541490853" x1="0" y1="188.0" x2="0" y2="248.0" gradientUnits="userSpaceOnUse" xlink:type="simple" xlink:actuate="onLoad" xlink:show="other" /><linearGradient xmlns:xlink="http://www.w3.org/1999/xlink" xlink:href="#linearGradientFF6666FF9696FFB6B6" id="linearGradientFF6666FF9696FFB6B6_514314376" x1="0" y1="221.0" x2="0" y2="256.0" gradientUnits="userSpaceOnUse" xlink:type="simple" xlink:actuate="onLoad" xlink:show="other" /><linearGradient id="linearGradientFF6666FF9696FFB6B6"><stop style="stop-color:#FF6666;stop-opacity:1;" offset="0.0" id="stopFF6666" /><stop style="stop-color:#FF9696;stop-opacity:1;" offset="0.5" id="stopFF9696" /><stop style="stop-color:#FFB6B6;stop-opacity:1;" offset="1.0" id="stopFFB6B6" /></linearGradient></defs></svg>
