<?xml version="1.0" encoding="UTF-8"?>
<svg xmlns="http://www.w3.org/2000/svg" style="stroke-dasharray:none; shape-rendering:auto; font-family:'Arial'; text-rendering:auto; fill-opacity:1; color-interpolation:auto; color-rendering:auto; font-size:12; fill:black; stroke:black; image-rendering:auto; stroke-miterlimit:10; stroke-linecap:square; stroke-linejoin:miter; font-style:normal; stroke-width:1; stroke-dashoffset:0; font-weight:normal; stroke-opacity:1;" contentScriptType="text/ecmascript" preserveAspectRatio="xMidYMid meet" zoomAndPan="magnify" version="1.0" contentStyleType="text/css" xml:xlink="http://www.w3.org/1999/xlink" width="1041" height="861"><rect x="10" y="10" width="1031" height="851" ry="0" rx="0" style="stroke:#000000; fill:#FFFFFF" /><rect x="40" y="690" width="1001" height="171" ry="0" rx="0" style="stroke:#000000; fill:#E8F3FF" /><g componentSequence="12"><text x="-775" y="47" transform="rotate(270)" text-anchor="middle" style="font-weight:bold;font-size:10px;stroke:none; fill:#434343"><tspan dy="14" x="-775">Presidência</tspan></text></g><rect x="40" y="520" width="1001" height="170" ry="0" rx="0" style="stroke:#000000; fill:#E6FFE6" /><g componentSequence="11"><text x="-605" y="47" transform="rotate(270)" text-anchor="middle" style="font-weight:bold;font-size:10px;stroke:none; fill:#434343"><tspan dy="14" x="-605">Compras</tspan></text></g><rect x="40" y="350" width="1001" height="170" ry="0" rx="0" style="stroke:#000000; fill:#EAF4FF" /><g componentSequence="10"><text x="-435" y="47" transform="rotate(270)" text-anchor="middle" style="font-weight:bold;font-size:10px;stroke:none; fill:#434343"><tspan dy="14" x="-435">Diretoria Institucional</tspan></text></g><rect x="40" y="180" width="1001" height="170" ry="0" rx="0" style="stroke:#000000; fill:#EAFFEA" /><g componentSequence="3"><text x="-265" y="47" transform="rotate(270)" text-anchor="middle" style="font-weight:bold;font-size:10px;stroke:none; fill:#434343"><tspan dy="14" x="-265">Diretor de Departamento</tspan></text></g><rect x="40" y="10" width="1001" height="170" ry="0" rx="0" style="stroke:#000000; fill:#E6F2FF" /><g componentSequence="2"><text x="-95" y="47" transform="rotate(270)" text-anchor="middle" style="font-weight:bold;font-size:10px;stroke:none; fill:#434343"><tspan dy="14" x="-95">Secretária/o</tspan></text></g><g componentSequence="1"><text x="-435" y="17" transform="rotate(270)" text-anchor="middle" style="font-weight:bold;font-size:10px;stroke:none; fill:#434343"><tspan dy="14" x="-435">PROC003 - Comunicação Interna</tspan></text></g><g sequence="4"><ellipse cx="110" cy="52" rx="17" ry="17" stroke-width="1" style="fill:url(#linearGradient66FF6696FF96B6FFB6_1753489231);" stroke="336633" /></g><g sequence="13"><rect x="160" y="239" width="106" height="56" ry="5" rx="5" style="fill:url(#linearGradientF8FBFEEDF5FCDEEDFAD4E7F8E2E5E9_1715727407);" stroke="191970" /></g><g componentSequence="13"><text x="213" y="256" text-anchor="middle" style="font-weight:bold;font-size:10px;stroke:none; fill:#333399"><tspan dy="14" x="213">Aprovar Texto</tspan></text></g><g sequence="15"><polygon points=" 309 246 339 216 369 246 339 276 309 246" style="fill:url(#linearGradientFAFBFCFFFFCC_1652323391);" stroke="000000" /></g><g componentSequence="15"><text x="339" y="286" text-anchor="middle" style="font-weight:bold;font-size:10px;stroke:none; fill:#333399"><tspan dy="14" x="339">Texto</tspan><tspan dy="14" x="339">correto?</tspan></text></g><g sequence="17"><rect x="287" y="90" width="106" height="56" ry="5" rx="5" style="fill:url(#linearGradientF8FBFEEDF5FCDEEDFAD4E7F8E2E5E9_662627860);" stroke="191970" /></g><g componentSequence="17"><text x="340" y="107" text-anchor="middle" style="font-weight:bold;font-size:10px;stroke:none; fill:#333399"><tspan dy="14" x="340">Corrigir Texto</tspan></text></g><g sequence="20"><rect x="287" y="399" width="106" height="56" ry="5" rx="5" style="fill:url(#linearGradientF8FBFEEDF5FCDEEDFAD4E7F8E2E5E9_1867049939);" stroke="191970" /></g><g componentSequence="20"><text x="340" y="416" text-anchor="middle" style="font-weight:bold;font-size:10px;stroke:none; fill:#333399"><tspan dy="14" x="340">Análise</tspan></text></g><g sequence="22"><polygon points=" 482 399 512 369 542 399 512 429 482 399" style="fill:url(#linearGradientFAFBFCFFFFCC_378749057);" stroke="000000" /></g><g componentSequence="22"><text x="512" y="439" text-anchor="middle" style="font-weight:bold;font-size:10px;stroke:none; fill:#333399"><tspan dy="14" x="512">Precisa</tspan><tspan dy="14" x="512">de</tspan><tspan dy="14" x="512">Orça...</tspan></text></g><g sequence="24"><rect x="460" y="579" width="106" height="56" ry="5" rx="5" style="fill:url(#linearGradientF8FBFEEDF5FCDEEDFAD4E7F8E2E5E9_391058400);" stroke="191970" /></g><g componentSequence="24"><text x="513" y="596" text-anchor="middle" style="font-weight:bold;font-size:10px;stroke:none; fill:#333399"><tspan dy="14" x="513">Orçar</tspan></text></g><g sequence="26"><polygon points=" 660 399 690 369 720 399 690 429 660 399" style="fill:url(#linearGradientFAFBFCFFFFCC_1196497243);" stroke="000000" /></g><g componentSequence="26"><text x="690" y="439" text-anchor="middle" style="font-weight:bold;font-size:10px;stroke:none; fill:#333399"><tspan dy="14" x="690">Pré /</tspan><tspan dy="14" x="690">Aprovaç</tspan><tspan dy="14" x="690">ão</tspan></text></g><g sequence="29"><ellipse cx="877" cy="427" rx="17" ry="17" stroke-width="3" style="fill:url(#linearGradientFF6666FF9696FFB6B6_1877963793);" stroke="993333" /></g><g sequence="31"><rect x="637" y="750" width="106" height="56" ry="5" rx="5" style="fill:url(#linearGradientF8FBFEEDF5FCDEEDFAD4E7F8E2E5E9_1676981797);" stroke="191970" /></g><g componentSequence="31"><text x="690" y="767" text-anchor="middle" style="font-weight:bold;font-size:10px;stroke:none; fill:#333399"><tspan dy="14" x="690">Atividade</tspan></text></g><g sequence="33"><polygon points=" 850 756 880 726 910 756 880 786 850 756" style="fill:url(#linearGradientFAFBFCFFFFCC_206272936);" stroke="000000" /></g><g componentSequence="33"><text x="880" y="796" text-anchor="middle" style="font-weight:bold;font-size:10px;stroke:none; fill:#333399"><tspan dy="14" x="880">Solicitaç</tspan><tspan dy="14" x="880">ão</tspan><tspan dy="14" x="880">Apro...</tspan></text></g><g sequence="36"><ellipse cx="997" cy="777" rx="17" ry="17" stroke-width="3" style="fill:url(#linearGradientFF6666FF9696FFB6B6_1126113979);" stroke="993333" /></g><g sequence="38"><polygon points=" 80 125 110 95 140 125 110 155 80 125" style="fill:url(#linearGradientFAFBFCFFFFCC_1472497973);" stroke="000000" /></g><g componentSequence="38"><text x="110" y="165" text-anchor="middle" style="font-weight:bold;font-size:10px;stroke:none; fill:#333399"><tspan dy="14" x="110">Rascunh</tspan><tspan dy="14" x="110">o?</tspan></text></g><g componentSequence="16"><text x="297" y="267" style="font-size:10px;font-weight:none;stroke:none; fill:#333399" text-anchor="left" /></g><g componentSequence="18"><text x="349" y="181" style="font-size:10px;font-weight:none;stroke:none; fill:#333399" text-anchor="left" /></g><g componentSequence="19"><text x="222" y="141" style="font-size:10px;font-weight:none;stroke:none; fill:#333399" text-anchor="left" /></g><g componentSequence="21"><text x="349" y="358" style="font-size:10px;font-weight:none;stroke:none; fill:#333399" text-anchor="left" /></g><g componentSequence="23"><text x="447" y="427" style="font-size:10px;font-weight:none;stroke:none; fill:#333399" text-anchor="left" /></g><g componentSequence="25"><text x="522" y="532" style="font-size:10px;font-weight:none;stroke:none; fill:#333399" text-anchor="left" /></g><g componentSequence="27"><text x="611" y="427" style="font-size:10px;font-weight:none;stroke:none; fill:#333399" text-anchor="left" /></g><g componentSequence="28"><text x="349" y="591" style="font-size:10px;font-weight:none;stroke:none; fill:#333399" text-anchor="left" /></g><g componentSequence="30"><text x="800" y="427" style="font-size:10px;font-weight:none;stroke:none; fill:#333399" text-anchor="left" /></g><g componentSequence="32"><text x="700" y="617" style="font-size:10px;font-weight:none;stroke:none; fill:#333399" text-anchor="left" /></g><g componentSequence="34"><text x="806" y="781" style="font-size:10px;font-weight:none;stroke:none; fill:#333399" text-anchor="left" /></g><g componentSequence="35"><text x="428" y="839" style="font-size:10px;font-weight:none;stroke:none; fill:#333399" text-anchor="left" /></g><g componentSequence="37"><text x="955" y="780" style="font-size:10px;font-weight:none;stroke:none; fill:#333399" text-anchor="left" /></g><g componentSequence="39"><text x="120" y="82" style="font-size:10px;font-weight:none;stroke:none; fill:#333399" text-anchor="left" /></g><g componentSequence="41"><text x="119" y="257" style="font-size:10px;font-weight:none;stroke:none; fill:#333399" text-anchor="left" /></g><g componentSequence="42"><text x="181" y="93" style="font-size:10px;font-weight:none;stroke:none; fill:#333399" text-anchor="left" /></g><path style="fill:none; stroke:#000000;stroke-width:1" d="M110.0 70.0 L110.0 94.0" /><polygon style="fill:#000000; stroke:#000000;" points=" 115 84 110 94 105 84 110 86" /><path style="fill:none; stroke:#000000;stroke-width:1" d="M140.0 145.0 L171.0 145.0 L171.0 52.0 L128.0 52.0" /><polygon style="fill:#000000; stroke:#000000;" points=" 138 57 128 52 138 47 136 52" /><path style="fill:none; stroke:#000000;stroke-width:1" d="M266.0 267.0 L308.0 267.0" /><polygon style="fill:#000000; stroke:#000000;" points=" 298 262 308 267 298 272 300 267" /><path style="fill:none; stroke:#000000;stroke-width:1" d="M286.0 118.0 L212.0 118.0 L212.0 238.0" /><polygon style="fill:#000000; stroke:#000000;" points=" 217 228 212 238 207 228 212 230" /><path style="fill:none; stroke:#000000;stroke-width:1" d="M109.0 197.0 L109.0 266.0 L159.0 266.0" /><polygon style="fill:#000000; stroke:#000000;" points=" 149 261 159 266 149 271 151 266" /><path style="fill:none; stroke:#000000;stroke-width:1" d="M339.0 215.0 L339.0 146.0" /><polygon style="fill:#000000; stroke:#000000;" points=" 334 156 339 146 344 156 339 154" /><path style="fill:none; stroke:#000000;stroke-width:1" d="M339.0 318.0 L339.0 398.0" /><polygon style="fill:#000000; stroke:#000000;" points=" 344 388 339 398 334 388 339 390" /><path style="fill:none; stroke:#000000;stroke-width:1" d="M393.0 427.0 L481.0 427.0" /><polygon style="fill:#000000; stroke:#000000;" points=" 471 422 481 427 471 432 473 427" /><path style="fill:none; stroke:#000000;stroke-width:1" d="M459.0 606.0 L339.0 606.0 L339.0 455.0" /><polygon style="fill:#000000; stroke:#000000;" points=" 334 465 339 455 344 465 339 463" /><path style="fill:none; stroke:#000000;stroke-width:1" d="M878.0 842.0 L878.0 839.0 L339.0 839.0 L339.0 455.0" /><polygon style="fill:#000000; stroke:#000000;" points=" 334 465 339 455 344 465 339 463" /><path style="fill:none; stroke:#000000;stroke-width:1" d="M512.0 485.0 L512.0 578.0" /><polygon style="fill:#000000; stroke:#000000;" points=" 517 568 512 578 507 568 512 570" /><path style="fill:none; stroke:#000000;stroke-width:1" d="M542.0 427.0 L659.0 427.0" /><polygon style="fill:#000000; stroke:#000000;" points=" 649 422 659 427 649 432 651 427" /><path style="fill:none; stroke:#000000;stroke-width:1" d="M720.0 427.0 L859.0 427.0" /><polygon style="fill:#000000; stroke:#000000;" points=" 849 422 859 427 849 432 851 427" /><path style="fill:none; stroke:#000000;stroke-width:1" d="M690.0 485.0 L690.0 749.0" /><polygon style="fill:#000000; stroke:#000000;" points=" 695 739 690 749 685 739 690 741" /><path style="fill:none; stroke:#000000;stroke-width:1" d="M743.0 779.0 L849.0 783.0" /><polygon style="fill:#000000; stroke:#000000;" points=" 839 778 849 783 839 788 841 783" /><path style="fill:none; stroke:#000000;stroke-width:1" d="M910.0 782.0 L980.0 778.0" /><polygon style="fill:#000000; stroke:#000000;" points=" 970 774 980 778 970 784 972 778" /><defs><linearGradient xmlns:xlink="http://www.w3.org/1999/xlink" xlink:href="#linearGradient66FF6696FF96B6FFB6" id="linearGradient66FF6696FF96B6FFB6_1753489231" x1="0" y1="35.0" x2="0" y2="70.0" gradientUnits="userSpaceOnUse" xlink:type="simple" xlink:actuate="onLoad" xlink:show="other" /><linearGradient id="linearGradient66FF6696FF96B6FFB6"><stop style="stop-color:#66FF66;stop-opacity:1;" offset="0.0" id="stop66FF66" /><stop style="stop-color:#96FF96;stop-opacity:1;" offset="0.5" id="stop96FF96" /><stop style="stop-color:#B6FFB6;stop-opacity:1;" offset="1.0" id="stopB6FFB6" /></linearGradient><linearGradient xmlns:xlink="http://www.w3.org/1999/xlink" xlink:href="#linearGradientF8FBFEEDF5FCDEEDFAD4E7F8E2E5E9" id="linearGradientF8FBFEEDF5FCDEEDFAD4E7F8E2E5E9_1715727407" x1="0" y1="239.0" x2="0" y2="345.0" gradientUnits="userSpaceOnUse" xlink:type="simple" xlink:actuate="onLoad" xlink:show="other" /><linearGradient id="linearGradientF8FBFEEDF5FCDEEDFAD4E7F8E2E5E9"><stop style="stop-color:#F8FBFE;stop-opacity:1;" offset="0.0" id="stopF8FBFE" /><stop style="stop-color:#EDF5FC;stop-opacity:1;" offset="0.25" id="stopEDF5FC" /><stop style="stop-color:#DEEDFA;stop-opacity:1;" offset="0.5" id="stopDEEDFA" /><stop style="stop-color:#D4E7F8;stop-opacity:1;" offset="0.75" id="stopD4E7F8" /><stop style="stop-color:#E2E5E9;stop-opacity:1;" offset="1.0" id="stopE2E5E9" /></linearGradient><linearGradient xmlns:xlink="http://www.w3.org/1999/xlink" xlink:href="#linearGradientFAFBFCFFFFCC" id="linearGradientFAFBFCFFFFCC_1652323391" x1="0" y1="216.0" x2="0" y2="276.0" gradientUnits="userSpaceOnUse" xlink:type="simple" xlink:actuate="onLoad" xlink:show="other" /><linearGradient id="linearGradientFAFBFCFFFFCC"><stop style="stop-color:#FAFBFC;stop-opacity:1;" offset="0.0" id="stopFAFBFC" /><stop style="stop-color:#FFFFCC;stop-opacity:1;" offset="1.0" id="stopFFFFCC" /></linearGradient><linearGradient xmlns:xlink="http://www.w3.org/1999/xlink" xlink:href="#linearGradientF8FBFEEDF5FCDEEDFAD4E7F8E2E5E9" id="linearGradientF8FBFEEDF5FCDEEDFAD4E7F8E2E5E9_662627860" x1="0" y1="90.0" x2="0" y2="196.0" gradientUnits="userSpaceOnUse" xlink:type="simple" xlink:actuate="onLoad" xlink:show="other" /><linearGradient xmlns:xlink="http://www.w3.org/1999/xlink" xlink:href="#linearGradientF8FBFEEDF5FCDEEDFAD4E7F8E2E5E9" id="linearGradientF8FBFEEDF5FCDEEDFAD4E7F8E2E5E9_1867049939" x1="0" y1="399.0" x2="0" y2="505.0" gradientUnits="userSpaceOnUse" xlink:type="simple" xlink:actuate="onLoad" xlink:show="other" /><linearGradient xmlns:xlink="http://www.w3.org/1999/xlink" xlink:href="#linearGradientFAFBFCFFFFCC" id="linearGradientFAFBFCFFFFCC_378749057" x1="0" y1="369.0" x2="0" y2="429.0" gradientUnits="userSpaceOnUse" xlink:type="simple" xlink:actuate="onLoad" xlink:show="other" /><linearGradient xmlns:xlink="http://www.w3.org/1999/xlink" xlink:href="#linearGradientF8FBFEEDF5FCDEEDFAD4E7F8E2E5E9" id="linearGradientF8FBFEEDF5FCDEEDFAD4E7F8E2E5E9_391058400" x1="0" y1="579.0" x2="0" y2="685.0" gradientUnits="userSpaceOnUse" xlink:type="simple" xlink:actuate="onLoad" xlink:show="other" /><linearGradient xmlns:xlink="http://www.w3.org/1999/xlink" xlink:href="#linearGradientFAFBFCFFFFCC" id="linearGradientFAFBFCFFFFCC_1196497243" x1="0" y1="369.0" x2="0" y2="429.0" gradientUnits="userSpaceOnUse" xlink:type="simple" xlink:actuate="onLoad" xlink:show="other" /><linearGradient xmlns:xlink="http://www.w3.org/1999/xlink" xlink:href="#linearGradientFF6666FF9696FFB6B6" id="linearGradientFF6666FF9696FFB6B6_1877963793" x1="0" y1="410.0" x2="0" y2="445.0" gradientUnits="userSpaceOnUse" xlink:type="simple" xlink:actuate="onLoad" xlink:show="other" /><linearGradient id="linearGradientFF6666FF9696FFB6B6"><stop style="stop-color:#FF6666;stop-opacity:1;" offset="0.0" id="stopFF6666" /><stop style="stop-color:#FF9696;stop-opacity:1;" offset="0.5" id="stopFF9696" /><stop style="stop-color:#FFB6B6;stop-opacity:1;" offset="1.0" id="stopFFB6B6" /></linearGradient><linearGradient xmlns:xlink="http://www.w3.org/1999/xlink" xlink:href="#linearGradientF8FBFEEDF5FCDEEDFAD4E7F8E2E5E9" id="linearGradientF8FBFEEDF5FCDEEDFAD4E7F8E2E5E9_1676981797" x1="0" y1="750.0" x2="0" y2="856.0" gradientUnits="userSpaceOnUse" xlink:type="simple" xlink:actuate="onLoad" xlink:show="other" /><linearGradient xmlns:xlink="http://www.w3.org/1999/xlink" xlink:href="#linearGradientFAFBFCFFFFCC" id="linearGradientFAFBFCFFFFCC_206272936" x1="0" y1="726.0" x2="0" y2="786.0" gradientUnits="userSpaceOnUse" xlink:type="simple" xlink:actuate="onLoad" xlink:show="other" /><linearGradient xmlns:xlink="http://www.w3.org/1999/xlink" xlink:href="#linearGradientFF6666FF9696FFB6B6" id="linearGradientFF6666FF9696FFB6B6_1126113979" x1="0" y1="760.0" x2="0" y2="795.0" gradientUnits="userSpaceOnUse" xlink:type="simple" xlink:actuate="onLoad" xlink:show="other" /><linearGradient xmlns:xlink="http://www.w3.org/1999/xlink" xlink:href="#linearGradientFAFBFCFFFFCC" id="linearGradientFAFBFCFFFFCC_1472497973" x1="0" y1="95.0" x2="0" y2="155.0" gradientUnits="userSpaceOnUse" xlink:type="simple" xlink:actuate="onLoad" xlink:show="other" /></defs></svg>
