<?xml version="1.0" encoding="utf-8"?>
<!-- Generator: Adobe Illustrator 16.0.0, SVG Export Plug-In . SVG Version: 6.00 Build 0)  -->
<!DOCTYPE svg PUBLIC "-//W3C//DTD SVG 1.1//EN" "http://www.w3.org/Graphics/SVG/1.1/DTD/svg11.dtd">
<svg version="1.1" id="Layer_1" xmlns="http://www.w3.org/2000/svg" xmlns:xlink="http://www.w3.org/1999/xlink" x="0px" y="0px"
	 width="118px" height="118px" viewBox="0 0 118 118" enable-background="new 0 0 118 118" xml:space="preserve">
<g opacity="0.6">
	<path fill="#57585A" d="M29.807,63.175c13.849,0,25.122,11.281,25.122,25.145c0,13.855-11.273,25.129-25.122,25.129
		c-13.871,0-25.151-11.273-25.151-25.129C4.655,74.456,15.936,63.175,29.807,63.175 M29.807,58.52C13.361,58.52,0,71.889,0,88.319
		s13.361,29.784,29.807,29.784c16.416,0,29.777-13.354,29.777-29.784S46.223,58.52,29.807,58.52L29.807,58.52z"/>
	<path fill="#57585A" d="M28.141,30.219h10.423c0.349,0,0.633-0.458,0.633-1.011v-9.801c0-0.557-0.284-1.015-0.633-1.015H28.141
		c-0.342,0-0.64,0.458-0.64,1.015v9.801C27.501,29.761,27.799,30.219,28.141,30.219z"/>
	<path fill="#57585A" d="M39.197,48.919v-9.804c0-0.553-0.284-1.004-0.633-1.004H28.141c-0.342,0-0.64,0.451-0.64,1.004v9.804
		c0,0.553,0.298,1.004,0.64,1.004h10.423C38.913,49.923,39.197,49.472,39.197,48.919z"/>
	<path fill="#57585A" d="M88.441,30.219h10.444c0.349,0,0.626-0.458,0.626-1.011v-9.801c0-0.557-0.277-1.015-0.626-1.015H88.441
		c-0.335,0-0.626,0.458-0.626,1.015v9.801C87.815,29.761,88.106,30.219,88.441,30.219z"/>
	<path fill="#57585A" d="M88.441,49.923h10.444c0.349,0,0.626-0.451,0.626-1.004v-9.804c0-0.553-0.277-1.004-0.626-1.004H88.441
		c-0.335,0-0.626,0.451-0.626,1.004v9.804C87.815,49.472,88.106,49.923,88.441,49.923z"/>
	<path fill="#57585A" d="M88.441,69.735h10.444c0.349,0,0.626-0.451,0.626-0.989v-9.812c0-0.56-0.277-1.019-0.626-1.019H88.441
		c-0.335,0-0.626,0.458-0.626,1.019v9.812C87.815,69.284,88.106,69.735,88.441,69.735z"/>
	<path fill="#57585A" d="M59.831,59.073l17.017-12.03c2.109-1.498,2.109-3.942,0-5.426l-17.017-12.03
		c-2.102-1.491-3.833-0.611-3.833,1.949v25.573C55.998,59.669,57.729,60.557,59.831,59.073z"/>
	<path fill="#57585A" d="M110.479-0.104h-93.03c-4.139,0-7.506,4.109-7.506,9.15v47.881c2.611-1.659,5.462-2.91,8.459-3.877V9.046
		c0-0.284,0.037-0.517,0.087-0.691h90.943c0.058,0.174,0.102,0.407,0.102,0.691v71.148c0,0.276-0.044,0.502-0.088,0.684H66.275
		c0.491,2.4,0.753,4.888,0.753,7.441c0,0.342-0.087,0.661-0.102,1.011h43.553c4.132,0,7.521-4.103,7.521-9.136V9.046
		C118,4.006,114.611-0.104,110.479-0.104z"/>
	<g>
		<g>
			<path fill="#57585A" d="M24.65,101.892c0,2.61,2.102,4.713,4.713,4.713c2.597,0,4.699-2.103,4.699-4.713
				c0-2.597-2.102-4.706-4.699-4.706C26.752,97.186,24.65,99.295,24.65,101.892z"/>
		</g>
		<g>
			<g>
				<g>
					<path fill="#57585A" d="M26.046,70.805V91.6c0,1.454,1.513,2.633,3.375,2.633c1.862,0,3.368-1.179,3.368-2.633V70.805
						c0-1.447-1.505-2.633-3.368-2.633C27.559,68.172,26.046,69.357,26.046,70.805z"/>
				</g>
			</g>
		</g>
	</g>
</g>
</svg>
