<?xml version="1.0" encoding="UTF-8"?>
<svg xmlns="http://www.w3.org/2000/svg" style="stroke-dasharray:none; shape-rendering:auto; font-family:'Arial'; text-rendering:auto; fill-opacity:1; color-interpolation:auto; color-rendering:auto; font-size:12; fill:black; stroke:black; image-rendering:auto; stroke-miterlimit:10; stroke-linecap:square; stroke-linejoin:miter; font-style:normal; stroke-width:1; stroke-dashoffset:0; font-weight:normal; stroke-opacity:1;" contentScriptType="text/ecmascript" preserveAspectRatio="xMidYMid meet" zoomAndPan="magnify" version="1.0" contentStyleType="text/css" xml:xlink="http://www.w3.org/1999/xlink" width="1307" height="620"><g sequence="1"><ellipse cx="153" cy="210" rx="17" ry="17" stroke-width="1" style="fill:url(#linearGradient66FF6696FF96B6FFB6_1038981328);" stroke="336633" /></g><g sequence="2"><rect x="225" y="172" width="106" height="78" ry="5" rx="5" style="fill:url(#linearGradientF8FBFEEDF5FCDEEDFAD4E7F8E2E5E9_858415389);" stroke="191970" /></g><g componentSequence="2"><text x="278" y="187" text-anchor="middle" style="font-weight:bold;font-size:13px;stroke:none; fill:#333399"><tspan dy="14" x="278">Alinhamento</tspan><tspan dy="14" x="278">com o</tspan><tspan dy="14" x="278">Comercial</tspan></text></g><g sequence="3"><rect x="380" y="172" width="106" height="78" ry="5" rx="5" style="fill:url(#linearGradientF8FBFEEDF5FCDEEDFAD4E7F8E2E5E9_924185504);" stroke="191970" /></g><g componentSequence="3"><text x="433" y="187" text-anchor="middle" style="font-weight:bold;font-size:13px;stroke:none; fill:#333399"><tspan dy="14" x="433">Alinhamento</tspan><tspan dy="14" x="433">com Cliente e</tspan><tspan dy="14" x="433">Equipe</tspan></text></g><g sequence="5"><rect x="225" y="316" width="106" height="65" ry="5" rx="5" style="fill:url(#linearGradientF8FBFEEDF5FCDEEDFAD4E7F8E2E5E9_1914137382);" stroke="191970" /></g><g componentSequence="5"><text x="278" y="331" text-anchor="middle" style="font-weight:bold;font-size:13px;stroke:none; fill:#333399"><tspan dy="14" x="278">Coleta de</tspan><tspan dy="14" x="278">Dados</tspan></text></g><g sequence="6"><polygon points=" 403 336 433 306 463 336 433 366 403 336" style="fill:url(#linearGradientFAFBFCFFFFCC_594364076);" stroke="000000" /></g><path style="fill:none; stroke-width:6; stroke:#000000;" d="M423.0 336.0 L443.0 336.0" /><path style="fill:none; stroke-width:6; stroke:#000000;" d="M433.0 326.0 L433.0 346.0" /><g componentSequence="6"><text x="433" y="367" text-anchor="middle" style="font-weight:bold;font-size:13px;stroke:none; fill:#333399"><tspan dy="14" x="433">Parallel</tspan></text></g><g sequence="9"><rect x="450" y="460" width="106" height="53" ry="5" rx="5" style="fill:url(#linearGradientF8FBFEEDF5FCDEEDFAD4E7F8E2E5E9_1135606101);" stroke="191970" /></g><g componentSequence="9"><text x="503" y="475" text-anchor="middle" style="font-weight:bold;font-size:13px;stroke:none; fill:#333399"><tspan dy="14" x="503">Projetado</tspan></text></g><g sequence="10"><rect x="580" y="460" width="106" height="53" ry="5" rx="5" style="fill:url(#linearGradientF8FBFEEDF5FCDEEDFAD4E7F8E2E5E9_1530890867);" stroke="191970" /></g><g componentSequence="10"><text x="633" y="475" text-anchor="middle" style="font-weight:bold;font-size:13px;stroke:none; fill:#333399"><tspan dy="14" x="633">Relatório</tspan></text></g><g sequence="11"><rect x="720" y="459" width="106" height="65" ry="5" rx="5" style="fill:url(#linearGradientF8FBFEEDF5FCDEEDFAD4E7F8E2E5E9_305697897);" stroke="191970" /></g><g componentSequence="11"><text x="773" y="474" text-anchor="middle" style="font-weight:bold;font-size:13px;stroke:none; fill:#333399"><tspan dy="14" x="773">Aprovação</tspan><tspan dy="14" x="773">Gestor</tspan></text></g><g sequence="12"><polygon points=" 851 479 881 449 911 479 881 509 851 479" style="fill:url(#linearGradientFAFBFCFFFFCC_1537861796);" stroke="000000" /></g><g componentSequence="12"><text x="881" y="510" text-anchor="middle" style="font-weight:bold;font-size:13px;stroke:none; fill:#333399"><tspan dy="14" x="881">Valida?</tspan></text></g><g sequence="13"><rect x="1070" y="316" width="106" height="65" ry="5" rx="5" style="fill:url(#linearGradientF8FBFEEDF5FCDEEDFAD4E7F8E2E5E9_1743833045);" stroke="191970" /></g><g componentSequence="13"><text x="1123" y="331" text-anchor="middle" style="font-weight:bold;font-size:13px;stroke:none; fill:#333399"><tspan dy="14" x="1123">Apresentação</tspan><tspan dy="14" x="1123">Inicial</tspan></text></g><g sequence="14"><rect x="540" y="178" width="106" height="65" ry="5" rx="5" style="fill:url(#linearGradientF8FBFEEDF5FCDEEDFAD4E7F8E2E5E9_1077650762);" stroke="191970" /></g><g componentSequence="14"><text x="593" y="193" text-anchor="middle" style="font-weight:bold;font-size:13px;stroke:none; fill:#333399"><tspan dy="14" x="593">Ligar para</tspan><tspan dy="14" x="593">Cliente</tspan></text></g><g sequence="15"><polygon points=" 700 192 730 162 760 192 730 222 700 192" style="fill:url(#linearGradientFAFBFCFFFFCC_376892152);" stroke="000000" /></g><g componentSequence="15"><text x="730" y="232" text-anchor="middle" style="font-weight:bold;font-size:13px;stroke:none; fill:#333399"><tspan dy="14" x="730">Exclusiv</tspan><tspan dy="14" x="730">e</tspan></text></g><g sequence="16"><polygon points=" 833 198 863 168 893 198 863 228 833 198" style="fill:url(#linearGradientFAFBFCFFFFCC_34528346);" stroke="000000" /></g><path style="fill:none; stroke-width:6; stroke:#000000;" d="M853.0 198.0 L873.0 198.0" /><path style="fill:none; stroke-width:6; stroke:#000000;" d="M863.0 188.0 L863.0 208.0" /><g componentSequence="16"><text x="863" y="229" text-anchor="middle" style="font-weight:bold;font-size:13px;stroke:none; fill:#333399"><tspan dy="14" x="863">Join</tspan></text></g><g sequence="17"><rect x="990" y="178" width="106" height="65" ry="5" rx="5" style="fill:url(#linearGradientF8FBFEEDF5FCDEEDFAD4E7F8E2E5E9_1671527841);" stroke="191970" /></g><g componentSequence="17"><text x="1043" y="193" text-anchor="middle" style="font-weight:bold;font-size:13px;stroke:none; fill:#333399"><tspan dy="14" x="1043">Apresentaçao</tspan><tspan dy="14" x="1043">Final</tspan></text></g><g sequence="59"><ellipse cx="862" cy="91" rx="17" ry="17" stroke-width="3" style="fill:url(#linearGradientFF6666FF9696FFB6B6_2116916586);" stroke="993333" /></g><g sequence="70"><rect x="892" y="258" width="106" height="65" ry="5" rx="5" style="fill:url(#linearGradientF8FBFEEDF5FCDEEDFAD4E7F8E2E5E9_1596817789);" stroke="191970" /></g><g componentSequence="70"><text x="945" y="273" text-anchor="middle" style="font-weight:bold;font-size:13px;stroke:none; fill:#333399"><tspan dy="14" x="945">Aguardando fim</tspan><tspan dy="14" x="945">da Consultoria</tspan></text></g><g sequence="76"><rect x="942" y="452" width="106" height="78" ry="5" rx="5" style="fill:url(#linearGradientF8FBFEEDF5FCDEEDFAD4E7F8E2E5E9_733313742);" stroke="191970" /></g><g componentSequence="76"><text x="995" y="467" text-anchor="middle" style="font-weight:bold;font-size:13px;stroke:none; fill:#333399"><tspan dy="14" x="995">Marcar Reunião</tspan><tspan dy="14" x="995">de</tspan><tspan dy="14" x="995">Apresentaçao</tspan></text></g><g sequence="86"><rect x="720" y="322" width="106" height="53" ry="5" rx="5" style="fill:url(#linearGradientF8FBFEEDF5FCDEEDFAD4E7F8E2E5E9_1133598316);" stroke="191970" /></g><g componentSequence="86"><text x="773" y="337" text-anchor="middle" style="font-weight:bold;font-size:13px;stroke:none; fill:#333399"><tspan dy="14" x="773">Relatório Final</tspan></text></g><g sequence="89"><polygon points=" 1247 330 1277 300 1307 330 1277 360 1247 330" style="fill:url(#linearGradientFAFBFCFFFFCC_1367674289);" stroke="000000" /></g><g componentSequence="89"><text x="1277" y="370" text-anchor="middle" style="font-weight:bold;font-size:13px;stroke:none; fill:#333399"><tspan dy="14" x="1277">Exclusiv</tspan><tspan dy="14" x="1277">e</tspan></text></g><g sequence="98"><polygon points=" 915 372 945 342 975 372 945 402 915 372" style="fill:url(#linearGradientFAFBFCFFFFCC_1645234325);" stroke="000000" /></g><g componentSequence="98"><text x="945" y="412" text-anchor="middle" style="font-weight:bold;font-size:13px;stroke:none; fill:#333399"><tspan dy="14" x="945">Exclusiv</tspan><tspan dy="14" x="945">e</tspan></text></g><rect x="376" y="0" width="105" height="149" ry="5" rx="5" style="stroke:none; fill:#FFFFE0" /><g componentSequence="4"><text x="386" y="23" text-anchor="left" style="font-weight:bold;font-size:13px;stroke:none; fill:#000000"><tspan dy="14" x="386">Discutir o caso</tspan><tspan dy="14" x="386">dos clientes e</tspan><tspan dy="14" x="386">definir o início</tspan><tspan dy="14" x="386">do trabalho</tspan><tspan dy="14" x="386">com o Sucesso</tspan><tspan dy="14" x="386">do Cliente.</tspan><tspan dy="14" x="386">Prazo 7 dias</tspan><tspan dy="14" x="386">para</tspan><tspan dy="14" x="386">posicionament</tspan><tspan dy="14" x="386">o</tspan></text></g><path style="fill:none; stroke-width:1; stroke:#000000;" d="M396.0 0.0 L376.0 0.0 L376.0 149.0 L396.0 149.0" /><rect x="225" y="0" width="105" height="75" ry="5" rx="5" style="stroke:none; fill:#FFFFE0" /><g componentSequence="20"><text x="235" y="23" text-anchor="left" style="font-weight:bold;font-size:13px;stroke:none; fill:#000000"><tspan dy="14" x="235">Deverá</tspan><tspan dy="14" x="235">acontecer 24</tspan><tspan dy="14" x="235">horas após o</tspan><tspan dy="14" x="235">inicio.</tspan></text></g><path style="fill:none; stroke-width:1; stroke:#000000;" d="M245.0 0.0 L225.0 0.0 L225.0 75.0 L245.0 75.0" /><rect x="60" y="64" width="105" height="55" ry="5" rx="5" style="stroke:none; fill:#FFFFE0" /><g componentSequence="21"><text x="70" y="87" text-anchor="left" style="font-weight:bold;font-size:13px;stroke:none; fill:#000000"><tspan dy="14" x="70">Envio de Email</tspan><tspan dy="14" x="70">de Boas Vindas</tspan></text></g><path style="fill:none; stroke-width:1; stroke:#000000;" d="M80.0 64.0 L60.0 64.0 L60.0 119.0 L80.0 119.0" /><rect x="511" y="40" width="105" height="112" ry="5" rx="5" style="stroke:none; fill:#FFFFE0" /><g componentSequence="23"><text x="521" y="63" text-anchor="left" style="font-weight:bold;font-size:13px;stroke:none; fill:#000000"><tspan dy="14" x="521">Primeiro mês:</tspan><tspan dy="14" x="521">Até o fim de</tspan><tspan dy="14" x="521">cada semana;</tspan><tspan dy="14" x="521">Apartir do</tspan><tspan dy="14" x="521">Segundo Mês:</tspan><tspan dy="14" x="521">Até o ultimo dia</tspan><tspan dy="14" x="521">do mês;</tspan></text></g><path style="fill:none; stroke-width:1; stroke:#000000;" d="M531.0 40.0 L511.0 40.0 L511.0 152.0 L531.0 152.0" /><rect x="136" y="459" width="105" height="55" ry="5" rx="5" style="stroke:none; fill:#FFFFE0" /><g componentSequence="24"><text x="146" y="472" text-anchor="left" style="font-weight:bold;font-size:13px;stroke:none; fill:#000000"><tspan dy="14" x="146">Prazo de 7 dias</tspan></text></g><path style="fill:none; stroke-width:1; stroke:#000000;" d="M156.0 459.0 L136.0 459.0 L136.0 514.0 L156.0 514.0" /><rect x="10" y="166" width="105" height="273" ry="5" rx="5" style="stroke:none; fill:#FFFFE0" /><g componentSequence="25"><text x="20" y="189" text-anchor="left" style="font-weight:bold;font-size:13px;stroke:none; fill:#000000"><tspan dy="14" x="20">Pegar data da</tspan><tspan dy="14" x="20">primeira</tspan><tspan dy="14" x="20">modificação e</tspan><tspan dy="14" x="20">do envio; E em</tspan><tspan dy="14" x="20">caso de</tspan><tspan dy="14" x="20">segunda</tspan><tspan dy="14" x="20">interação</tspan><tspan dy="14" x="20">cadastrar</tspan><tspan dy="14" x="20">novamente,</tspan><tspan dy="14" x="20">para</tspan><tspan dy="14" x="20">contabilizar o</tspan><tspan dy="14" x="20">tempo das</tspan><tspan dy="14" x="20">atividades;</tspan><tspan dy="14" x="20">Start Processo</tspan><tspan dy="14" x="20">de Primeira</tspan><tspan dy="14" x="20">Reunião com</tspan><tspan dy="14" x="20">Consultor do</tspan><tspan dy="14" x="20">setor ADM com</tspan><tspan dy="14" x="20">prazo de 15</tspan><tspan dy="14" x="20">dias</tspan></text></g><path style="fill:none; stroke-width:1; stroke:#000000;" d="M30.0 166.0 L10.0 166.0 L10.0 439.0 L30.0 439.0" /><rect x="444" y="527" width="105" height="87" ry="5" rx="5" style="stroke:none; fill:#FFFFE0" /><g componentSequence="26"><text x="454" y="550" text-anchor="left" style="font-weight:bold;font-size:13px;stroke:none; fill:#000000"><tspan dy="14" x="454">Prazo de 7 dias</tspan><tspan dy="14" x="454">para projetar as</tspan><tspan dy="14" x="454">métricas</tspan><tspan dy="14" x="454">baseado nos</tspan><tspan dy="14" x="454">dados</tspan></text></g><path style="fill:none; stroke-width:1; stroke:#000000;" d="M464.0 527.0 L444.0 527.0 L444.0 614.0 L464.0 614.0" /><rect x="580" y="546" width="105" height="55" ry="5" rx="5" style="stroke:none; fill:#FFFFE0" /><g componentSequence="72"><text x="590" y="559" text-anchor="left" style="font-weight:bold;font-size:13px;stroke:none; fill:#000000"><tspan dy="14" x="590">20 dias</tspan></text></g><path style="fill:none; stroke-width:1; stroke:#000000;" d="M600.0 546.0 L580.0 546.0 L580.0 601.0 L600.0 601.0" /><rect x="720" y="565" width="105" height="55" ry="5" rx="5" style="stroke:none; fill:#FFFFE0" /><g componentSequence="74"><text x="730" y="578" text-anchor="left" style="font-weight:bold;font-size:13px;stroke:none; fill:#000000"><tspan dy="14" x="730">3 dias</tspan></text></g><path style="fill:none; stroke-width:1; stroke:#000000;" d="M740.0 565.0 L720.0 565.0 L720.0 620.0 L740.0 620.0" /><rect x="884" y="546" width="105" height="55" ry="5" rx="5" style="stroke:none; fill:#FFFFE0" /><g componentSequence="79"><text x="894" y="559" text-anchor="left" style="font-weight:bold;font-size:13px;stroke:none; fill:#000000"><tspan dy="14" x="894">7 dias</tspan></text></g><path style="fill:none; stroke-width:1; stroke:#000000;" d="M904.0 546.0 L884.0 546.0 L884.0 601.0 L904.0 601.0" /><rect x="1110" y="94" width="105" height="55" ry="5" rx="5" style="stroke:none; fill:#FFFFE0" /><g componentSequence="81"><text x="1120" y="117" text-anchor="left" style="font-weight:bold;font-size:13px;stroke:none; fill:#000000"><tspan dy="14" x="1120">15 dias a partid</tspan><tspan dy="14" x="1120">da validação</tspan></text></g><path style="fill:none; stroke-width:1; stroke:#000000;" d="M1130.0 94.0 L1110.0 94.0 L1110.0 149.0 L1130.0 149.0" /><g componentSequence="27"><text x="208" y="210" style="font-size:10px;font-weight:none;stroke:none; fill:#333399" text-anchor="left" /></g><g componentSequence="28"><text x="365" y="211" style="font-size:10px;font-weight:none;stroke:none; fill:#333399" text-anchor="left" /></g><g componentSequence="32"><text x="377" y="348" style="font-size:10px;font-weight:none;stroke:none; fill:#333399" text-anchor="left" /></g><g componentSequence="33"><text x="590" y="348" style="font-size:10px;font-weight:none;stroke:none; fill:#333399" text-anchor="left" /></g><g componentSequence="37"><text x="578" y="486" style="font-size:10px;font-weight:none;stroke:none; fill:#333399" text-anchor="left" /></g><g componentSequence="38"><text x="713" y="489" style="font-size:10px;font-weight:none;stroke:none; fill:#333399" text-anchor="left" /></g><g componentSequence="39"><text x="848" y="491" style="font-size:10px;font-weight:none;stroke:none; fill:#333399" text-anchor="left" /></g><g componentSequence="40"><text x="760" y="417" style="font-size:10px;font-weight:none;stroke:none; fill:#333399" text-anchor="left" /></g><g componentSequence="43"><text x="683" y="210" style="font-size:10px;font-weight:none;stroke:none; fill:#333399" text-anchor="left" /></g><g componentSequence="44"><text x="806" y="210" style="font-size:10px;font-weight:none;stroke:none; fill:#333399" text-anchor="left" /></g><g componentSequence="45"><text x="683" y="210" style="font-size:10px;font-weight:none;stroke:none; fill:#333399" text-anchor="left" /></g><g componentSequence="58"><text x="951" y="210" style="font-size:10px;font-weight:none;stroke:none; fill:#333399" text-anchor="left" /></g><g componentSequence="60"><text x="872" y="138" style="font-size:10px;font-weight:none;stroke:none; fill:#333399" text-anchor="left" /></g><g componentSequence="77"><text x="936" y="491" style="font-size:10px;font-weight:none;stroke:none; fill:#333399" text-anchor="left" /></g><g componentSequence="88"><text x="783" y="417" style="font-size:10px;font-weight:none;stroke:none; fill:#333399" text-anchor="left" /></g><g componentSequence="90"><text x="1182" y="489" style="font-size:10px;font-weight:none;stroke:none; fill:#333399" text-anchor="left" /></g><g componentSequence="91"><text x="1221" y="348" style="font-size:10px;font-weight:none;stroke:none; fill:#333399" text-anchor="left" /></g><g componentSequence="92"><text x="1185" y="252" style="font-size:10px;font-weight:none;stroke:none; fill:#333399" text-anchor="left" /></g><g componentSequence="93"><text x="443" y="278" style="font-size:10px;font-weight:none;stroke:none; fill:#333399" text-anchor="left" /></g><g componentSequence="94"><text x="321" y="486" style="font-size:10px;font-weight:none;stroke:none; fill:#333399" text-anchor="left" /></g><g componentSequence="97"><text x="887" y="373" style="font-size:10px;font-weight:none;stroke:none; fill:#333399" text-anchor="left" /></g><g componentSequence="99"><text x="1032" y="372" style="font-size:10px;font-weight:none;stroke:none; fill:#333399" text-anchor="left" /></g><g componentSequence="100"><text x="883" y="350" style="font-size:10px;font-weight:none;stroke:none; fill:#333399" text-anchor="left" /></g><g componentSequence="101"><text x="955" y="332" style="font-size:10px;font-weight:none;stroke:none; fill:#333399" text-anchor="left" /></g><g componentSequence="102"><text x="955" y="332" style="font-size:10px;font-weight:none;stroke:none; fill:#333399" text-anchor="left" /></g><g componentSequence="30"><text x="442" y="160" style="font-size:10px;font-weight:none;stroke:none; fill:#333399" text-anchor="left" /></g><g componentSequence="49"><text x="287" y="123" style="font-size:10px;font-weight:none;stroke:none; fill:#333399" text-anchor="left" /></g><g componentSequence="50"><text x="145" y="156" style="font-size:10px;font-weight:none;stroke:none; fill:#333399" text-anchor="left" /></g><g componentSequence="53"><text x="591" y="165" style="font-size:10px;font-weight:none;stroke:none; fill:#333399" text-anchor="left" /></g><g componentSequence="55"><text x="180" y="325" style="font-size:10px;font-weight:none;stroke:none; fill:#333399" text-anchor="left" /></g><g componentSequence="56"><text x="511" y="520" style="font-size:10px;font-weight:none;stroke:none; fill:#333399" text-anchor="left" /></g><g componentSequence="73"><text x="642" y="529" style="font-size:10px;font-weight:none;stroke:none; fill:#333399" text-anchor="left" /></g><g componentSequence="75"><text x="782" y="544" style="font-size:10px;font-weight:none;stroke:none; fill:#333399" text-anchor="left" /></g><g componentSequence="80"><text x="972" y="538" style="font-size:10px;font-weight:none;stroke:none; fill:#333399" text-anchor="left" /></g><g componentSequence="82"><text x="1153" y="232" style="font-size:10px;font-weight:none;stroke:none; fill:#333399" text-anchor="left" /></g><path style="fill:none; stroke:#000000;stroke-width:1" d="M170.0 210.0 L224.0 210.0" /><polygon style="fill:#000000; stroke:#000000;" points=" 214 205 224 210 214 215 216 210" /><path style="fill:none; stroke:#000000;stroke-dasharray:2" d="M122.0 119.0 L148.0 193.0" /><path style="fill:none; stroke:#000000;stroke-width:1" d="M331.0 211.0 L379.0 211.0" /><polygon style="fill:#000000; stroke:#000000;" points=" 369 206 379 211 369 216 371 211" /><path style="fill:none; stroke:#000000;stroke-dasharray:2" d="M277.0 75.0 L277.0 171.0" /><path style="fill:none; stroke:#000000;stroke-width:1" d="M433.0 250.0 L433.0 305.0" /><polygon style="fill:#000000; stroke:#000000;" points=" 438 295 433 305 428 295 433 297" /><path style="fill:none; stroke:#000000;stroke-dasharray:2" d="M431.0 149.0 L431.0 171.0" /><path style="fill:none; stroke:#000000;stroke-width:1" d="M278.0 381.0 L278.0 486.0 L449.0 486.0" /><polygon style="fill:#000000; stroke:#000000;" points=" 439 481 449 486 439 491 441 486" /><path style="fill:none; stroke:#000000;stroke-width:1" d="M402.0 348.0 L331.0 348.0" /><polygon style="fill:#000000; stroke:#000000;" points=" 341 353 331 348 341 343 339 348" /><path style="fill:none; stroke:#000000;stroke-dasharray:2" d="M115.0 313.0 L224.0 337.0" /><path style="fill:none; stroke:#000000;stroke-width:1" d="M463.0 348.0 L592.0 348.0 L592.0 243.0" /><polygon style="fill:#000000; stroke:#000000;" points=" 587 253 592 243 597 253 592 251" /><path style="fill:none; stroke:#000000;stroke-width:1" d="M556.0 486.0 L579.0 486.0" /><polygon style="fill:#000000; stroke:#000000;" points=" 569 481 579 486 569 491 571 486" /><path style="fill:none; stroke:#000000;stroke-dasharray:2" d="M500.0 526.0 L500.0 513.0" /><path style="fill:none; stroke:#000000;stroke-width:1" d="M686.0 488.0 L719.0 489.0" /><polygon style="fill:#000000; stroke:#000000;" points=" 709 484 719 489 709 494 711 489" /><path style="fill:none; stroke:#000000;stroke-width:1" d="M880.0 448.0 L880.0 418.0 L632.0 417.0 L632.0 459.0" /><polygon style="fill:#000000; stroke:#000000;" points=" 637 449 632 459 627 449 632 451" /><path style="fill:none; stroke:#000000;stroke-dasharray:2" d="M632.0 545.0 L632.0 513.0" /><path style="fill:none; stroke:#000000;stroke-width:1" d="M826.0 491.0 L850.0 491.0" /><polygon style="fill:#000000; stroke:#000000;" points=" 840 486 850 491 840 496 842 491" /><path style="fill:none; stroke:#000000;stroke-width:1" d="M773.0 375.0 L773.0 458.0" /><polygon style="fill:#000000; stroke:#000000;" points=" 778 448 773 458 768 448 773 450" /><path style="fill:none; stroke:#000000;stroke-dasharray:2" d="M772.0 564.0 L772.0 524.0" /><path style="fill:none; stroke:#000000;stroke-width:1" d="M911.0 491.0 L941.0 491.0" /><polygon style="fill:#000000; stroke:#000000;" points=" 931 486 941 491 931 496 933 491" /><path style="fill:none; stroke:#000000;stroke-width:1" d="M879.0 448.0 L877.0 348.0 L826.0 348.0" /><polygon style="fill:#000000; stroke:#000000;" points=" 836 353 826 348 836 343 834 348" /><path style="fill:none; stroke:#000000;stroke-width:1" d="M1069.0 361.0 L975.0 383.0" /><polygon style="fill:#000000; stroke:#000000;" points=" 986 386 975 383 984 376 983 381" /><path style="fill:none; stroke:#000000;stroke-width:1" d="M1246.0 348.0 L1176.0 348.0" /><polygon style="fill:#000000; stroke:#000000;" points=" 1186 353 1176 348 1186 343 1184 348" /><path style="fill:none; stroke:#000000;stroke-dasharray:2" d="M1157.0 149.0 L1128.0 315.0" /><path style="fill:none; stroke:#000000;stroke-width:1" d="M646.0 210.0 L699.0 210.0" /><polygon style="fill:#000000; stroke:#000000;" points=" 689 205 699 210 689 215 691 210" /><path style="fill:none; stroke:#000000;stroke-width:1" d="M699.0 210.0 L646.0 210.0" /><polygon style="fill:#000000; stroke:#000000;" points=" 656 215 646 210 656 205 654 210" /><path style="fill:none; stroke:#000000;stroke-dasharray:2" d="M578.0 152.0 L584.0 177.0" /><path style="fill:none; stroke:#000000;stroke-width:1" d="M760.0 210.0 L832.0 210.0" /><polygon style="fill:#000000; stroke:#000000;" points=" 822 205 832 210 822 215 824 210" /><path style="fill:none; stroke:#000000;stroke-width:1" d="M862.0 167.0 L862.0 108.0" /><polygon style="fill:#000000; stroke:#000000;" points=" 857 118 862 108 867 118 862 116" /><path style="fill:none; stroke:#000000;stroke-width:1" d="M989.0 210.0 L893.0 210.0" /><polygon style="fill:#000000; stroke:#000000;" points=" 903 215 893 210 903 205 901 210" /><path style="fill:none; stroke:#000000;stroke-width:1" d="M1246.0 319.0 L1125.0 205.0 L1096.0 207.0" /><polygon style="fill:#000000; stroke:#000000;" points=" 1106 211 1096 207 1106 201 1104 206" /><path style="fill:none; stroke:#000000;stroke-width:1" d="M945.0 323.0 L945.0 341.0" /><polygon style="fill:#000000; stroke:#000000;" points=" 950 331 945 341 940 331 945 333" /><path style="fill:none; stroke:#000000;stroke-width:1" d="M945.0 341.0 L945.0 323.0" /><polygon style="fill:#000000; stroke:#000000;" points=" 940 333 945 323 950 333 945 331" /><path style="fill:none; stroke:#000000;stroke-width:1" d="M1048.0 490.0 L1181.0 489.0 L1246.0 393.0" /><polygon style="fill:#000000; stroke:#000000;" points=" 1236 398 1246 393 1245 404 1242 400" /><path style="fill:none; stroke:#000000;stroke-dasharray:2" d="M956.0 545.0 L966.0 530.0" /><path style="fill:none; stroke:#000000;stroke-width:1" d="M914.0 373.0 L869.0 348.0 L826.0 348.0" /><polygon style="fill:#000000; stroke:#000000;" points=" 836 353 826 348 836 343 834 348" /><defs><linearGradient xmlns:xlink="http://www.w3.org/1999/xlink" xlink:href="#linearGradient66FF6696FF96B6FFB6" id="linearGradient66FF6696FF96B6FFB6_1038981328" x1="0" y1="193.0" x2="0" y2="228.0" gradientUnits="userSpaceOnUse" xlink:type="simple" xlink:actuate="onLoad" xlink:show="other" /><linearGradient id="linearGradient66FF6696FF96B6FFB6"><stop style="stop-color:#66FF66;stop-opacity:1;" offset="0.0" id="stop66FF66" /><stop style="stop-color:#96FF96;stop-opacity:1;" offset="0.5" id="stop96FF96" /><stop style="stop-color:#B6FFB6;stop-opacity:1;" offset="1.0" id="stopB6FFB6" /></linearGradient><linearGradient xmlns:xlink="http://www.w3.org/1999/xlink" xlink:href="#linearGradientF8FBFEEDF5FCDEEDFAD4E7F8E2E5E9" id="linearGradientF8FBFEEDF5FCDEEDFAD4E7F8E2E5E9_858415389" x1="0" y1="172.0" x2="0" y2="278.0" gradientUnits="userSpaceOnUse" xlink:type="simple" xlink:actuate="onLoad" xlink:show="other" /><linearGradient id="linearGradientF8FBFEEDF5FCDEEDFAD4E7F8E2E5E9"><stop style="stop-color:#F8FBFE;stop-opacity:1;" offset="0.0" id="stopF8FBFE" /><stop style="stop-color:#EDF5FC;stop-opacity:1;" offset="0.25" id="stopEDF5FC" /><stop style="stop-color:#DEEDFA;stop-opacity:1;" offset="0.5" id="stopDEEDFA" /><stop style="stop-color:#D4E7F8;stop-opacity:1;" offset="0.75" id="stopD4E7F8" /><stop style="stop-color:#E2E5E9;stop-opacity:1;" offset="1.0" id="stopE2E5E9" /></linearGradient><linearGradient xmlns:xlink="http://www.w3.org/1999/xlink" xlink:href="#linearGradientF8FBFEEDF5FCDEEDFAD4E7F8E2E5E9" id="linearGradientF8FBFEEDF5FCDEEDFAD4E7F8E2E5E9_924185504" x1="0" y1="172.0" x2="0" y2="278.0" gradientUnits="userSpaceOnUse" xlink:type="simple" xlink:actuate="onLoad" xlink:show="other" /><linearGradient xmlns:xlink="http://www.w3.org/1999/xlink" xlink:href="#linearGradientF8FBFEEDF5FCDEEDFAD4E7F8E2E5E9" id="linearGradientF8FBFEEDF5FCDEEDFAD4E7F8E2E5E9_1914137382" x1="0" y1="316.0" x2="0" y2="422.0" gradientUnits="userSpaceOnUse" xlink:type="simple" xlink:actuate="onLoad" xlink:show="other" /><linearGradient xmlns:xlink="http://www.w3.org/1999/xlink" xlink:href="#linearGradientFAFBFCFFFFCC" id="linearGradientFAFBFCFFFFCC_594364076" x1="0" y1="306.0" x2="0" y2="366.0" gradientUnits="userSpaceOnUse" xlink:type="simple" xlink:actuate="onLoad" xlink:show="other" /><linearGradient id="linearGradientFAFBFCFFFFCC"><stop style="stop-color:#FAFBFC;stop-opacity:1;" offset="0.0" id="stopFAFBFC" /><stop style="stop-color:#FFFFCC;stop-opacity:1;" offset="1.0" id="stopFFFFCC" /></linearGradient><linearGradient xmlns:xlink="http://www.w3.org/1999/xlink" xlink:href="#linearGradientF8FBFEEDF5FCDEEDFAD4E7F8E2E5E9" id="linearGradientF8FBFEEDF5FCDEEDFAD4E7F8E2E5E9_1135606101" x1="0" y1="460.0" x2="0" y2="566.0" gradientUnits="userSpaceOnUse" xlink:type="simple" xlink:actuate="onLoad" xlink:show="other" /><linearGradient xmlns:xlink="http://www.w3.org/1999/xlink" xlink:href="#linearGradientF8FBFEEDF5FCDEEDFAD4E7F8E2E5E9" id="linearGradientF8FBFEEDF5FCDEEDFAD4E7F8E2E5E9_1530890867" x1="0" y1="460.0" x2="0" y2="566.0" gradientUnits="userSpaceOnUse" xlink:type="simple" xlink:actuate="onLoad" xlink:show="other" /><linearGradient xmlns:xlink="http://www.w3.org/1999/xlink" xlink:href="#linearGradientF8FBFEEDF5FCDEEDFAD4E7F8E2E5E9" id="linearGradientF8FBFEEDF5FCDEEDFAD4E7F8E2E5E9_305697897" x1="0" y1="459.0" x2="0" y2="565.0" gradientUnits="userSpaceOnUse" xlink:type="simple" xlink:actuate="onLoad" xlink:show="other" /><linearGradient xmlns:xlink="http://www.w3.org/1999/xlink" xlink:href="#linearGradientFAFBFCFFFFCC" id="linearGradientFAFBFCFFFFCC_1537861796" x1="0" y1="449.0" x2="0" y2="509.0" gradientUnits="userSpaceOnUse" xlink:type="simple" xlink:actuate="onLoad" xlink:show="other" /><linearGradient xmlns:xlink="http://www.w3.org/1999/xlink" xlink:href="#linearGradientF8FBFEEDF5FCDEEDFAD4E7F8E2E5E9" id="linearGradientF8FBFEEDF5FCDEEDFAD4E7F8E2E5E9_1743833045" x1="0" y1="316.0" x2="0" y2="422.0" gradientUnits="userSpaceOnUse" xlink:type="simple" xlink:actuate="onLoad" xlink:show="other" /><linearGradient xmlns:xlink="http://www.w3.org/1999/xlink" xlink:href="#linearGradientF8FBFEEDF5FCDEEDFAD4E7F8E2E5E9" id="linearGradientF8FBFEEDF5FCDEEDFAD4E7F8E2E5E9_1077650762" x1="0" y1="178.0" x2="0" y2="284.0" gradientUnits="userSpaceOnUse" xlink:type="simple" xlink:actuate="onLoad" xlink:show="other" /><linearGradient xmlns:xlink="http://www.w3.org/1999/xlink" xlink:href="#linearGradientFAFBFCFFFFCC" id="linearGradientFAFBFCFFFFCC_376892152" x1="0" y1="162.0" x2="0" y2="222.0" gradientUnits="userSpaceOnUse" xlink:type="simple" xlink:actuate="onLoad" xlink:show="other" /><linearGradient xmlns:xlink="http://www.w3.org/1999/xlink" xlink:href="#linearGradientFAFBFCFFFFCC" id="linearGradientFAFBFCFFFFCC_34528346" x1="0" y1="168.0" x2="0" y2="228.0" gradientUnits="userSpaceOnUse" xlink:type="simple" xlink:actuate="onLoad" xlink:show="other" /><linearGradient xmlns:xlink="http://www.w3.org/1999/xlink" xlink:href="#linearGradientF8FBFEEDF5FCDEEDFAD4E7F8E2E5E9" id="linearGradientF8FBFEEDF5FCDEEDFAD4E7F8E2E5E9_1671527841" x1="0" y1="178.0" x2="0" y2="284.0" gradientUnits="userSpaceOnUse" xlink:type="simple" xlink:actuate="onLoad" xlink:show="other" /><linearGradient xmlns:xlink="http://www.w3.org/1999/xlink" xlink:href="#linearGradientFF6666FF9696FFB6B6" id="linearGradientFF6666FF9696FFB6B6_2116916586" x1="0" y1="74.0" x2="0" y2="109.0" gradientUnits="userSpaceOnUse" xlink:type="simple" xlink:actuate="onLoad" xlink:show="other" /><linearGradient id="linearGradientFF6666FF9696FFB6B6"><stop style="stop-color:#FF6666;stop-opacity:1;" offset="0.0" id="stopFF6666" /><stop style="stop-color:#FF9696;stop-opacity:1;" offset="0.5" id="stopFF9696" /><stop style="stop-color:#FFB6B6;stop-opacity:1;" offset="1.0" id="stopFFB6B6" /></linearGradient><linearGradient xmlns:xlink="http://www.w3.org/1999/xlink" xlink:href="#linearGradientF8FBFEEDF5FCDEEDFAD4E7F8E2E5E9" id="linearGradientF8FBFEEDF5FCDEEDFAD4E7F8E2E5E9_1596817789" x1="0" y1="258.0" x2="0" y2="364.0" gradientUnits="userSpaceOnUse" xlink:type="simple" xlink:actuate="onLoad" xlink:show="other" /><linearGradient xmlns:xlink="http://www.w3.org/1999/xlink" xlink:href="#linearGradientF8FBFEEDF5FCDEEDFAD4E7F8E2E5E9" id="linearGradientF8FBFEEDF5FCDEEDFAD4E7F8E2E5E9_733313742" x1="0" y1="452.0" x2="0" y2="558.0" gradientUnits="userSpaceOnUse" xlink:type="simple" xlink:actuate="onLoad" xlink:show="other" /><linearGradient xmlns:xlink="http://www.w3.org/1999/xlink" xlink:href="#linearGradientF8FBFEEDF5FCDEEDFAD4E7F8E2E5E9" id="linearGradientF8FBFEEDF5FCDEEDFAD4E7F8E2E5E9_1133598316" x1="0" y1="322.0" x2="0" y2="428.0" gradientUnits="userSpaceOnUse" xlink:type="simple" xlink:actuate="onLoad" xlink:show="other" /><linearGradient xmlns:xlink="http://www.w3.org/1999/xlink" xlink:href="#linearGradientFAFBFCFFFFCC" id="linearGradientFAFBFCFFFFCC_1367674289" x1="0" y1="300.0" x2="0" y2="360.0" gradientUnits="userSpaceOnUse" xlink:type="simple" xlink:actuate="onLoad" xlink:show="other" /><linearGradient xmlns:xlink="http://www.w3.org/1999/xlink" xlink:href="#linearGradientFAFBFCFFFFCC" id="linearGradientFAFBFCFFFFCC_1645234325" x1="0" y1="342.0" x2="0" y2="402.0" gradientUnits="userSpaceOnUse" xlink:type="simple" xlink:actuate="onLoad" xlink:show="other" /></defs></svg>
