<?xml version="1.0" encoding="UTF-8"?>
<svg xmlns="http://www.w3.org/2000/svg" style="stroke-dasharray:none; shape-rendering:auto; font-family:'Arial'; text-rendering:auto; fill-opacity:1; color-interpolation:auto; color-rendering:auto; font-size:12; fill:black; stroke:black; image-rendering:auto; stroke-miterlimit:10; stroke-linecap:square; stroke-linejoin:miter; font-style:normal; stroke-width:1; stroke-dashoffset:0; font-weight:normal; stroke-opacity:1;" contentScriptType="text/ecmascript" preserveAspectRatio="xMidYMid meet" zoomAndPan="magnify" version="1.0" contentStyleType="text/css" xml:xlink="http://www.w3.org/1999/xlink" width="669" height="404"><rect x="89" y="53" width="580" height="351" ry="0" rx="0" style="stroke:#000000; fill:#FFFFFF" /><rect x="119" y="287" width="550" height="117" ry="0" rx="0" style="stroke:#000000; fill:#D0DAAE" /><g componentSequence="7"><text x="-345" y="125" transform="rotate(270)" text-anchor="middle" style="font-weight:bold;font-size:13px;stroke:none; fill:#434343"><tspan dy="14" x="-345">RH</tspan></text></g><rect x="119" y="170" width="550" height="117" ry="0" rx="0" style="stroke:#000000; fill:#ADC9AC" /><g componentSequence="6"><text x="-228" y="125" transform="rotate(270)" text-anchor="middle" style="font-weight:bold;font-size:13px;stroke:none; fill:#434343"><tspan dy="14" x="-228">Gestor</tspan></text></g><rect x="119" y="53" width="550" height="117" ry="0" rx="0" style="stroke:#000000; fill:#82B0B7" /><g componentSequence="5"><text x="-111" y="125" transform="rotate(270)" text-anchor="middle" style="font-weight:bold;font-size:13px;stroke:none; fill:#434343"><tspan dy="14" x="-111">Solicitação</tspan></text></g><g componentSequence="4"><text x="-228" y="95" transform="rotate(270)" text-anchor="middle" style="font-weight:bold;font-size:13px;stroke:none; fill:#434343"><tspan dy="14" x="-228">Inclusão / Alteração de Férias</tspan></text></g><g sequence="1"><ellipse cx="221" cy="120" rx="17" ry="17" stroke-width="1" style="fill:url(#linearGradient66FF6696FF96B6FFB6_1830225662);" stroke="336633" /></g><g sequence="2"><rect x="169" y="193" width="106" height="65" ry="5" rx="5" style="fill:url(#linearGradientF8FBFEEDF5FCDEEDFAD4E7F8E2E5E9_1674638636);" stroke="191970" /></g><g componentSequence="2"><text x="222" y="208" text-anchor="middle" style="font-weight:bold;font-size:13px;stroke:none; fill:#333399"><tspan dy="14" x="222">Validação</tspan><tspan dy="14" x="222">Gestor</tspan></text></g><g sequence="8"><rect x="169" y="319" width="106" height="53" ry="5" rx="5" style="fill:url(#linearGradientF8FBFEEDF5FCDEEDFAD4E7F8E2E5E9_1743744398);" stroke="191970" /></g><g componentSequence="8"><text x="222" y="334" text-anchor="middle" style="font-weight:bold;font-size:13px;stroke:none; fill:#333399"><tspan dy="14" x="222">ARH Creme Mel</tspan></text></g><g sequence="10"><polygon points=" 339 211 369 181 399 211 369 241 339 211" style="fill:url(#linearGradientFAFBFCFFFFCC_586022679);" stroke="000000" /></g><g componentSequence="10"><text x="369" y="251" text-anchor="middle" style="font-weight:bold;font-size:13px;stroke:none; fill:#333399"><tspan dy="14" x="369">Decisão</tspan><tspan dy="14" x="369">Gestor</tspan></text></g><g sequence="14"><ellipse cx="606" cy="94" rx="17" ry="17" stroke-width="3" style="fill:url(#linearGradientFF6666FF9696FFB6B6_1998077250);" stroke="993333" /></g><g sequence="16"><polygon points=" 339 328 369 298 399 328 369 358 339 328" style="fill:url(#linearGradientFAFBFCFFFFCC_319151896);" stroke="000000" /></g><g componentSequence="16"><text x="369" y="368" text-anchor="middle" style="font-weight:bold;font-size:13px;stroke:none; fill:#333399"><tspan dy="14" x="369">Decisão</tspan><tspan dy="14" x="369">RH</tspan></text></g><g sequence="20"><rect x="450" y="319" width="106" height="53" ry="5" rx="5" style="fill:url(#linearGradientF8FBFEEDF5FCDEEDFAD4E7F8E2E5E9_253379563);" stroke="191970" /></g><g componentSequence="20"><text x="503" y="334" text-anchor="middle" style="font-weight:bold;font-size:13px;stroke:none; fill:#333399"><tspan dy="14" x="503">ARH Zecas</tspan></text></g><g componentSequence="3"><text x="231" y="165" style="font-size:10px;font-weight:none;stroke:none; fill:#333399" text-anchor="left" /></g><g componentSequence="11"><text x="317" y="227" style="font-size:10px;font-weight:none;stroke:none; fill:#333399" text-anchor="left" /></g><g componentSequence="12"><text x="344" y="120" style="font-size:10px;font-weight:none;stroke:none; fill:#333399" text-anchor="left" /></g><g componentSequence="13"><text x="302" y="296" style="font-size:10px;font-weight:none;stroke:none; fill:#333399" text-anchor="left" /></g><g componentSequence="15"><text x="571" y="229" style="font-size:10px;font-weight:none;stroke:none; fill:#333399" text-anchor="left" /></g><g componentSequence="17"><text x="317" y="346" style="font-size:10px;font-weight:none;stroke:none; fill:#333399" text-anchor="left" /></g><g componentSequence="18"><text x="550" y="118" style="font-size:10px;font-weight:none;stroke:none; fill:#333399" text-anchor="left" /></g><g componentSequence="19"><text x="562" y="251" style="font-size:10px;font-weight:none;stroke:none; fill:#333399" text-anchor="left" /></g><g componentSequence="21"><text x="434" y="346" style="font-size:10px;font-weight:none;stroke:none; fill:#333399" text-anchor="left" /></g><g componentSequence="22"><text x="505" y="229" style="font-size:10px;font-weight:none;stroke:none; fill:#333399" text-anchor="left" /></g><path style="fill:none; stroke:#000000;stroke-width:1" d="M221.0 137.0 L221.0 192.0" /><polygon style="fill:#000000; stroke:#000000;" points=" 226 182 221 192 216 182 221 184" /><path style="fill:none; stroke:#000000;stroke-width:1" d="M369.0 180.0 L369.0 120.0 L239.0 120.0" /><polygon style="fill:#000000; stroke:#000000;" points=" 249 125 239 120 249 115 247 120" /><path style="fill:none; stroke:#000000;stroke-width:1" d="M399.0 330.0 L541.0 258.0 L541.0 118.0 L238.0 120.0" /><polygon style="fill:#000000; stroke:#000000;" points=" 248 125 238 120 248 115 246 120" /><path style="fill:none; stroke:#000000;stroke-width:1" d="M275.0 226.0 L338.0 228.0" /><polygon style="fill:#000000; stroke:#000000;" points=" 328 223 338 228 328 233 330 228" /><path style="fill:none; stroke:#000000;stroke-width:1" d="M275.0 345.0 L338.0 346.0" /><polygon style="fill:#000000; stroke:#000000;" points=" 328 341 338 346 328 351 330 346" /><path style="fill:none; stroke:#000000;stroke-width:1" d="M367.0 278.0 L367.0 296.0 L221.0 296.0 L221.0 318.0" /><polygon style="fill:#000000; stroke:#000000;" points=" 226 308 221 318 216 308 221 310" /><path style="fill:none; stroke:#000000;stroke-width:1" d="M399.0 229.0 L605.0 229.0 L606.0 111.0" /><polygon style="fill:#000000; stroke:#000000;" points=" 601 121 606 111 611 121 606 119" /><path style="fill:none; stroke:#000000;stroke-width:1" d="M399.0 229.0 L502.0 229.0 L502.0 318.0" /><polygon style="fill:#000000; stroke:#000000;" points=" 507 308 502 318 497 308 502 310" /><path style="fill:none; stroke:#000000;stroke-width:1" d="M399.0 330.0 L606.0 224.0 L606.0 112.0" /><polygon style="fill:#000000; stroke:#000000;" points=" 601 122 606 112 611 122 606 120" /><path style="fill:none; stroke:#000000;stroke-width:1" d="M449.0 345.0 L399.0 346.0" /><polygon style="fill:#000000; stroke:#000000;" points=" 409 351 399 346 409 341 407 346" /><defs><linearGradient xmlns:xlink="http://www.w3.org/1999/xlink" xlink:href="#linearGradient66FF6696FF96B6FFB6" id="linearGradient66FF6696FF96B6FFB6_1830225662" x1="0" y1="103.0" x2="0" y2="138.0" gradientUnits="userSpaceOnUse" xlink:type="simple" xlink:actuate="onLoad" xlink:show="other" /><linearGradient id="linearGradient66FF6696FF96B6FFB6"><stop style="stop-color:#66FF66;stop-opacity:1;" offset="0.0" id="stop66FF66" /><stop style="stop-color:#96FF96;stop-opacity:1;" offset="0.5" id="stop96FF96" /><stop style="stop-color:#B6FFB6;stop-opacity:1;" offset="1.0" id="stopB6FFB6" /></linearGradient><linearGradient xmlns:xlink="http://www.w3.org/1999/xlink" xlink:href="#linearGradientF8FBFEEDF5FCDEEDFAD4E7F8E2E5E9" id="linearGradientF8FBFEEDF5FCDEEDFAD4E7F8E2E5E9_1674638636" x1="0" y1="193.0" x2="0" y2="299.0" gradientUnits="userSpaceOnUse" xlink:type="simple" xlink:actuate="onLoad" xlink:show="other" /><linearGradient id="linearGradientF8FBFEEDF5FCDEEDFAD4E7F8E2E5E9"><stop style="stop-color:#F8FBFE;stop-opacity:1;" offset="0.0" id="stopF8FBFE" /><stop style="stop-color:#EDF5FC;stop-opacity:1;" offset="0.25" id="stopEDF5FC" /><stop style="stop-color:#DEEDFA;stop-opacity:1;" offset="0.5" id="stopDEEDFA" /><stop style="stop-color:#D4E7F8;stop-opacity:1;" offset="0.75" id="stopD4E7F8" /><stop style="stop-color:#E2E5E9;stop-opacity:1;" offset="1.0" id="stopE2E5E9" /></linearGradient><linearGradient xmlns:xlink="http://www.w3.org/1999/xlink" xlink:href="#linearGradientF8FBFEEDF5FCDEEDFAD4E7F8E2E5E9" id="linearGradientF8FBFEEDF5FCDEEDFAD4E7F8E2E5E9_1743744398" x1="0" y1="319.0" x2="0" y2="425.0" gradientUnits="userSpaceOnUse" xlink:type="simple" xlink:actuate="onLoad" xlink:show="other" /><linearGradient xmlns:xlink="http://www.w3.org/1999/xlink" xlink:href="#linearGradientFAFBFCFFFFCC" id="linearGradientFAFBFCFFFFCC_586022679" x1="0" y1="181.0" x2="0" y2="241.0" gradientUnits="userSpaceOnUse" xlink:type="simple" xlink:actuate="onLoad" xlink:show="other" /><linearGradient id="linearGradientFAFBFCFFFFCC"><stop style="stop-color:#FAFBFC;stop-opacity:1;" offset="0.0" id="stopFAFBFC" /><stop style="stop-color:#FFFFCC;stop-opacity:1;" offset="1.0" id="stopFFFFCC" /></linearGradient><linearGradient xmlns:xlink="http://www.w3.org/1999/xlink" xlink:href="#linearGradientFF6666FF9696FFB6B6" id="linearGradientFF6666FF9696FFB6B6_1998077250" x1="0" y1="77.0" x2="0" y2="112.0" gradientUnits="userSpaceOnUse" xlink:type="simple" xlink:actuate="onLoad" xlink:show="other" /><linearGradient id="linearGradientFF6666FF9696FFB6B6"><stop style="stop-color:#FF6666;stop-opacity:1;" offset="0.0" id="stopFF6666" /><stop style="stop-color:#FF9696;stop-opacity:1;" offset="0.5" id="stopFF9696" /><stop style="stop-color:#FFB6B6;stop-opacity:1;" offset="1.0" id="stopFFB6B6" /></linearGradient><linearGradient xmlns:xlink="http://www.w3.org/1999/xlink" xlink:href="#linearGradientFAFBFCFFFFCC" id="linearGradientFAFBFCFFFFCC_319151896" x1="0" y1="298.0" x2="0" y2="358.0" gradientUnits="userSpaceOnUse" xlink:type="simple" xlink:actuate="onLoad" xlink:show="other" /><linearGradient xmlns:xlink="http://www.w3.org/1999/xlink" xlink:href="#linearGradientF8FBFEEDF5FCDEEDFAD4E7F8E2E5E9" id="linearGradientF8FBFEEDF5FCDEEDFAD4E7F8E2E5E9_253379563" x1="0" y1="319.0" x2="0" y2="425.0" gradientUnits="userSpaceOnUse" xlink:type="simple" xlink:actuate="onLoad" xlink:show="other" /></defs></svg>
