<?xml version="1.0" encoding="UTF-8"?>
<svg xmlns="http://www.w3.org/2000/svg" style="stroke-dasharray:none; shape-rendering:auto; font-family:'Arial'; text-rendering:auto; fill-opacity:1; color-interpolation:auto; color-rendering:auto; font-size:12; fill:black; stroke:black; image-rendering:auto; stroke-miterlimit:10; stroke-linecap:square; stroke-linejoin:miter; font-style:normal; stroke-width:1; stroke-dashoffset:0; font-weight:normal; stroke-opacity:1;" contentScriptType="text/ecmascript" preserveAspectRatio="xMidYMid meet" zoomAndPan="magnify" version="1.0" contentStyleType="text/css" xml:xlink="http://www.w3.org/1999/xlink" width="721" height="364"><rect x="70" y="271" width="651" height="93" ry="0" rx="0" style="stroke:#000000; fill:#D0DAAE" /><g componentSequence="3"><text x="-317" y="76" transform="rotate(270)" text-anchor="middle" style="font-weight:bold;font-size:13px;stroke:none; fill:#434343"><tspan dy="14" x="-317">Gestor</tspan></text></g><rect x="70" y="31" width="651" height="145" ry="0" rx="0" style="stroke:#000000; fill:#82B0B7" /><g componentSequence="1"><text x="-103" y="76" transform="rotate(270)" text-anchor="middle" style="font-weight:bold;font-size:13px;stroke:none; fill:#434343"><tspan dy="14" x="-103">Solicitante</tspan></text></g><rect x="70" y="175" width="651" height="96" ry="0" rx="0" style="stroke:#000000; fill:#ADC9AC" /><g componentSequence="2"><text x="-223" y="76" transform="rotate(270)" text-anchor="middle" style="font-weight:bold;font-size:13px;stroke:none; fill:#434343"><tspan dy="14" x="-223">Financeiro</tspan></text></g><g sequence="1"><ellipse cx="137" cy="103" rx="17" ry="17" stroke-width="1" style="fill:url(#linearGradient66FF6696FF96B6FFB6_1918146019);" stroke="336633" /></g><g sequence="6"><rect x="237" y="191" width="106" height="65" ry="5" rx="5" style="fill:url(#linearGradientF8FBFEEDF5FCDEEDFAD4E7F8E2E5E9_2090034649);" stroke="191970" /></g><g componentSequence="6"><text x="290" y="206" text-anchor="middle" style="font-weight:bold;font-size:13px;stroke:none; fill:#333399"><tspan dy="14" x="290">Aprovação</tspan><tspan dy="14" x="290">Gestor Imediato</tspan></text></g><g sequence="8"><rect x="237" y="289" width="106" height="65" ry="5" rx="5" style="fill:url(#linearGradientF8FBFEEDF5FCDEEDFAD4E7F8E2E5E9_2024603283);" stroke="191970" /></g><g componentSequence="8"><text x="290" y="304" text-anchor="middle" style="font-weight:bold;font-size:13px;stroke:none; fill:#333399"><tspan dy="14" x="290">Aprovação</tspan><tspan dy="14" x="290">Financeiro</tspan></text></g><g sequence="14"><ellipse cx="617" cy="103" rx="17" ry="17" stroke-width="3" style="fill:url(#linearGradientFF6666FF9696FFB6B6_1034842082);" stroke="993333" /></g><g sequence="31"><polygon points=" 470 270 500 240 530 270 500 300 470 270" style="fill:url(#linearGradientFAFBFCFFFFCC_1803750969);" stroke="000000" /></g><g componentSequence="31"><text x="500" y="310" text-anchor="middle" style="font-weight:bold;font-size:13px;stroke:none; fill:#333399"><tspan dy="14" x="500">Exclusiv</tspan><tspan dy="14" x="500">e</tspan></text></g><g sequence="38"><polygon points=" 400 210 430 180 460 210 430 240 400 210" style="fill:url(#linearGradientFAFBFCFFFFCC_207164221);" stroke="000000" /></g><g componentSequence="38"><text x="430" y="250" text-anchor="middle" style="font-weight:bold;font-size:13px;stroke:none; fill:#333399"><tspan dy="14" x="430">Exclusiv</tspan><tspan dy="14" x="430">e</tspan></text></g><g componentSequence="33"><text x="627" y="248" style="font-size:10px;font-weight:none;stroke:none; fill:#333399" text-anchor="left" /></g><g componentSequence="34"><text x="405" y="55" style="font-size:10px;font-weight:none;stroke:none; fill:#333399" text-anchor="left" /></g><g componentSequence="35"><text x="276" y="103" style="font-size:10px;font-weight:none;stroke:none; fill:#333399" text-anchor="left" /></g><g componentSequence="37"><text x="418" y="321" style="font-size:10px;font-weight:none;stroke:none; fill:#333399" text-anchor="left" /></g><g componentSequence="39"><text x="381" y="226" style="font-size:10px;font-weight:none;stroke:none; fill:#333399" text-anchor="left" /></g><g componentSequence="40"><text x="540" y="162" style="font-size:10px;font-weight:none;stroke:none; fill:#333399" text-anchor="left" /></g><g componentSequence="41"><text x="379" y="268" style="font-size:10px;font-weight:none;stroke:none; fill:#333399" text-anchor="left" /></g><g componentSequence="42"><text x="304" y="108" style="font-size:10px;font-weight:none;stroke:none; fill:#333399" text-anchor="left" /></g><path style="fill:none; stroke:#000000;stroke-width:1" d="M155.0 103.0 L290.0 103.0 L290.0 190.0" /><polygon style="fill:#000000; stroke:#000000;" points=" 295 180 290 190 285 180 290 182" /><path style="fill:none; stroke:#000000;stroke-width:1" d="M499.0 239.0 L499.0 55.0 L137.0 55.0 L137.0 85.0" /><polygon style="fill:#000000; stroke:#000000;" points=" 142 75 137 85 132 75 137 77" /><path style="fill:none; stroke:#000000;stroke-width:1" d="M399.0 201.0 L288.0 103.0 L155.0 103.0" /><polygon style="fill:#000000; stroke:#000000;" points=" 165 108 155 103 165 98 163 103" /><path style="fill:none; stroke:#000000;stroke-width:1" d="M343.0 225.0 L399.0 227.0" /><polygon style="fill:#000000; stroke:#000000;" points=" 389 222 399 227 389 232 391 227" /><path style="fill:none; stroke:#000000;stroke-width:1" d="M343.0 321.0 L412.0 321.0 L469.0 300.0" /><polygon style="fill:#000000; stroke:#000000;" points=" 458 299 469 300 461 308 461 303" /><path style="fill:none; stroke:#000000;stroke-width:1" d="M399.0 248.0 L339.0 288.0" /><polygon style="fill:#000000; stroke:#000000;" points=" 350 287 339 288 345 278 346 284" /><path style="fill:none; stroke:#000000;stroke-width:1" d="M530.0 288.0 L617.0 288.0 L617.0 121.0" /><polygon style="fill:#000000; stroke:#000000;" points=" 612 131 617 121 622 131 617 129" /><path style="fill:none; stroke:#000000;stroke-width:1" d="M460.0 208.0 L603.0 113.0" /><polygon style="fill:#000000; stroke:#000000;" points=" 592 114 603 113 597 123 596 117" /><defs><linearGradient xmlns:xlink="http://www.w3.org/1999/xlink" xlink:href="#linearGradient66FF6696FF96B6FFB6" id="linearGradient66FF6696FF96B6FFB6_1918146019" x1="0" y1="86.0" x2="0" y2="121.0" gradientUnits="userSpaceOnUse" xlink:type="simple" xlink:actuate="onLoad" xlink:show="other" /><linearGradient id="linearGradient66FF6696FF96B6FFB6"><stop style="stop-color:#66FF66;stop-opacity:1;" offset="0.0" id="stop66FF66" /><stop style="stop-color:#96FF96;stop-opacity:1;" offset="0.5" id="stop96FF96" /><stop style="stop-color:#B6FFB6;stop-opacity:1;" offset="1.0" id="stopB6FFB6" /></linearGradient><linearGradient xmlns:xlink="http://www.w3.org/1999/xlink" xlink:href="#linearGradientF8FBFEEDF5FCDEEDFAD4E7F8E2E5E9" id="linearGradientF8FBFEEDF5FCDEEDFAD4E7F8E2E5E9_2090034649" x1="0" y1="191.0" x2="0" y2="297.0" gradientUnits="userSpaceOnUse" xlink:type="simple" xlink:actuate="onLoad" xlink:show="other" /><linearGradient id="linearGradientF8FBFEEDF5FCDEEDFAD4E7F8E2E5E9"><stop style="stop-color:#F8FBFE;stop-opacity:1;" offset="0.0" id="stopF8FBFE" /><stop style="stop-color:#EDF5FC;stop-opacity:1;" offset="0.25" id="stopEDF5FC" /><stop style="stop-color:#DEEDFA;stop-opacity:1;" offset="0.5" id="stopDEEDFA" /><stop style="stop-color:#D4E7F8;stop-opacity:1;" offset="0.75" id="stopD4E7F8" /><stop style="stop-color:#E2E5E9;stop-opacity:1;" offset="1.0" id="stopE2E5E9" /></linearGradient><linearGradient xmlns:xlink="http://www.w3.org/1999/xlink" xlink:href="#linearGradientF8FBFEEDF5FCDEEDFAD4E7F8E2E5E9" id="linearGradientF8FBFEEDF5FCDEEDFAD4E7F8E2E5E9_2024603283" x1="0" y1="289.0" x2="0" y2="395.0" gradientUnits="userSpaceOnUse" xlink:type="simple" xlink:actuate="onLoad" xlink:show="other" /><linearGradient xmlns:xlink="http://www.w3.org/1999/xlink" xlink:href="#linearGradientFF6666FF9696FFB6B6" id="linearGradientFF6666FF9696FFB6B6_1034842082" x1="0" y1="86.0" x2="0" y2="121.0" gradientUnits="userSpaceOnUse" xlink:type="simple" xlink:actuate="onLoad" xlink:show="other" /><linearGradient id="linearGradientFF6666FF9696FFB6B6"><stop style="stop-color:#FF6666;stop-opacity:1;" offset="0.0" id="stopFF6666" /><stop style="stop-color:#FF9696;stop-opacity:1;" offset="0.5" id="stopFF9696" /><stop style="stop-color:#FFB6B6;stop-opacity:1;" offset="1.0" id="stopFFB6B6" /></linearGradient><linearGradient xmlns:xlink="http://www.w3.org/1999/xlink" xlink:href="#linearGradientFAFBFCFFFFCC" id="linearGradientFAFBFCFFFFCC_1803750969" x1="0" y1="240.0" x2="0" y2="300.0" gradientUnits="userSpaceOnUse" xlink:type="simple" xlink:actuate="onLoad" xlink:show="other" /><linearGradient id="linearGradientFAFBFCFFFFCC"><stop style="stop-color:#FAFBFC;stop-opacity:1;" offset="0.0" id="stopFAFBFC" /><stop style="stop-color:#FFFFCC;stop-opacity:1;" offset="1.0" id="stopFFFFCC" /></linearGradient><linearGradient xmlns:xlink="http://www.w3.org/1999/xlink" xlink:href="#linearGradientFAFBFCFFFFCC" id="linearGradientFAFBFCFFFFCC_207164221" x1="0" y1="180.0" x2="0" y2="240.0" gradientUnits="userSpaceOnUse" xlink:type="simple" xlink:actuate="onLoad" xlink:show="other" /></defs></svg>
